<svg width="57" height="63" viewBox="0 0 57 63" xmlns="http://www.w3.org/2000/svg" xmlns:xlink="http://www.w3.org/1999/xlink"><title>bonus loyalty</title><defs><path id="a" d="M55.87 37H0V.935h55.87V37z"/></defs><g fill="none" fill-rule="evenodd"><path fill="#D8E6F2" d="M.771 26.914l1.94 34.953h50.448l1.94-34.953L27.934 6.667z"/><path d="M0 26.553l2 36.065h51.87l1.999-36.065L27.934 5.73 0 26.553zm1.543.722L27.934 7.602l26.393 19.673-1.876 33.842H3.419L1.543 27.275z" fill="#211F1F"/><path fill="#AFBEC7" d="M1.404 27.055l2 35.563h48.899l1.999-35.563z"/><path d="M23.278 16.818c1.834 1.043 4.37 6.88 4.37 6.88s-6.314.805-8.148-.238a3.821 3.821 0 0 1 3.778-6.642" fill="#FFF"/><path d="M23.278 16.818c1.834 1.043 4.37 6.88 4.37 6.88s-6.314.805-8.148-.238a3.821 3.821 0 0 1 3.778-6.642z" stroke="#231F1F" stroke-width="1.5"/><path d="M31.938 16.77c-1.822 1.064-4.292 6.929-4.292 6.929s6.322.734 8.144-.33a3.821 3.821 0 0 0-3.852-6.599" fill="#FFF"/><path d="M31.938 16.77c-1.822 1.064-4.292 6.929-4.292 6.929s6.322.734 8.144-.33a3.821 3.821 0 0 0-3.852-6.599z" stroke="#231F1F" stroke-width="1.5"/><path fill="#42B573" d="M43.691 45.85l-31.519.177-.078-14.072 31.518-.176z"/><path stroke="#211F1F" stroke-width="1.5" stroke-linecap="round" stroke-linejoin="round" d="M43.691 45.85l-31.519.177-.078-14.072 31.518-.176z"/><path fill="#42B573" d="M45.697 31.767l-35.687.2-.043-7.819 35.686-.199z"/><path stroke="#211F1F" stroke-width="1.5" stroke-linecap="round" stroke-linejoin="round" d="M45.697 31.767l-35.687.2-.043-7.819 35.686-.199z"/><path fill="#FFF" d="M32.007 45.916l-8.15.045-.124-21.97 8.151-.045z"/><path stroke="#231F1F" stroke-width="1.5" d="M32.007 45.916l-8.15.045-.124-21.97 8.151-.045z"/><path d="M47.919 15.763l8.023-4.732M44.279 11.529L55.073.525M39.994 8.167l1.482-6.072" stroke="#221F1F" stroke-width="1.5"/><path d="M2.71 61.867L.854 28.417c3.985 3.7 15.78 13.674 27.08 13.674 11.3 0 23.095-9.975 27.08-13.674l-1.855 33.45H2.71z" fill="#FFF"/><g transform="translate(0 25.618)"><mask id="b" fill="#fff"><use xlink:href="#a"/></mask><path d="M55.87.935S41.354 15.723 27.935 15.723C14.515 15.723 0 .935 0 .935L2 37h51.87l2-36.065zm-1.704 3.63L52.45 35.5H3.419L1.704 4.565A74.217 74.217 0 0 0 8.078 9.56c7.298 5.085 13.979 7.663 19.857 7.663s12.559-2.578 19.857-7.663a74.06 74.06 0 0 0 6.374-4.995z" fill="#221F1F" mask="url(#b)"/></g></g></svg>