<svg width="127" height="42" viewBox="0 0 127 42" xmlns="http://www.w3.org/2000/svg" xmlns:xlink="http://www.w3.org/1999/xlink"><title>custome the reward</title><defs><path id="a" d="M0 41.5h126.294V0H0z"/></defs><g fill="none" fill-rule="evenodd"><path d="M78.337 20.75c0 9.827-7.966 17.793-17.793 17.793-9.828 0-17.794-7.966-17.794-17.793 0-9.827 7.966-17.793 17.794-17.793 9.827 0 17.793 7.966 17.793 17.793z" fill="#FFF"/><path d="M78.337 20.75c0 9.827-7.966 17.793-17.793 17.793-9.828 0-17.794-7.966-17.794-17.793 0-9.827 7.966-17.793 17.794-17.793 9.827 0 17.793 7.966 17.793 17.793z" stroke="#211F1F" stroke-width="1.5" stroke-linejoin="round"/><path d="M74.431 20.75c0 7.67-6.218 13.888-13.888 13.888S46.656 28.42 46.656 20.75 52.873 6.862 60.543 6.862c7.67 0 13.888 6.218 13.888 13.888" fill="#FFF"/><path d="M74.431 20.75c0 7.67-6.218 13.888-13.888 13.888S46.656 28.42 46.656 20.75 52.873 6.862 60.543 6.862c7.67 0 13.888 6.218 13.888 13.888z" stroke="#211F1F" stroke-width="1.5" stroke-linejoin="round"/><path d="M125.544 20.75c0 11.046-8.954 20-20 20s-20-8.954-20-20 8.954-20 20-20 20 8.954 20 20z" stroke="#211F1F" stroke-width="1.5" stroke-linejoin="round" stroke-dasharray="2.991,2.991"/><path stroke="#FFF" stroke-width="5" stroke-linecap="round" stroke-linejoin="round" d="M54.358 17.142l6.63 8.28L79.03 6.862"/><path stroke="#211F1F" stroke-width="1.5" stroke-linecap="round" stroke-linejoin="round" d="M54.358 17.142l6.63 8.28L79.03 6.862"/><path d="M36.337 20.75c0 9.827-7.966 17.793-17.793 17.793C8.716 38.543.75 30.577.75 20.75c0-9.827 7.966-17.793 17.794-17.793 9.827 0 17.793 7.966 17.793 17.793" fill="#FFF"/><path d="M36.337 20.75c0 9.827-7.966 17.793-17.793 17.793C8.716 38.543.75 30.577.75 20.75c0-9.827 7.966-17.793 17.794-17.793 9.827 0 17.793 7.966 17.793 17.793z" stroke="#211F1F" stroke-width="1.5" stroke-linejoin="round"/><path d="M32.431 20.75c0 7.67-6.218 13.888-13.888 13.888S4.656 28.42 4.656 20.75 10.873 6.862 18.543 6.862c7.67 0 13.888 6.218 13.888 13.888" fill="#FFF"/><path d="M32.431 20.75c0 7.67-6.218 13.888-13.888 13.888S4.656 28.42 4.656 20.75 10.873 6.862 18.543 6.862c7.67 0 13.888 6.218 13.888 13.888z" stroke="#211F1F" stroke-width="1.5" stroke-linejoin="round"/><path stroke="#FFF" stroke-width="5" stroke-linecap="round" stroke-linejoin="round" d="M12.358 17.142l6.63 8.28L37.03 6.862"/><path stroke="#211F1F" stroke-width="1.5" stroke-linecap="round" stroke-linejoin="round" d="M12.358 17.142l6.63 8.28L37.03 6.862"/><path d="M102.51 9.99c1.281.739 3.033 4.838 3.033 4.838s-4.425.539-5.706-.2a2.678 2.678 0 0 1 2.673-4.637" fill="#FFF"/><path d="M102.51 9.99c1.281.739 3.033 4.838 3.033 4.838s-4.425.539-5.706-.2a2.678 2.678 0 0 1 2.673-4.637z" stroke="#231F1F" stroke-width="1.5"/><path d="M108.577 9.99c-1.281.739-3.033 4.838-3.033 4.838s4.425.539 5.706-.2a2.678 2.678 0 0 0-2.673-4.637" fill="#FFF"/><path d="M108.577 9.99c-1.281.739-3.033 4.838-3.033 4.838s4.425.539 5.706-.2a2.678 2.678 0 0 0-2.673-4.637z" stroke="#231F1F" stroke-width="1.5"/><mask id="b" fill="#fff"><use xlink:href="#a"/></mask><path fill="#42B573" mask="url(#b)" d="M94.616 30.408h22.08V20.55h-22.08z"/><path stroke="#211F1F" stroke-width="1.5" stroke-linecap="round" stroke-linejoin="round" mask="url(#b)" d="M94.616 30.408h22.08V20.55h-22.08z"/><path fill="#42B573" mask="url(#b)" d="M93.157 20.55h24.999v-5.476H93.157z"/><path stroke="#211F1F" stroke-width="1.5" stroke-linecap="round" stroke-linejoin="round" mask="url(#b)" d="M93.157 20.55h24.999v-5.476H93.157z"/><path fill="#FFF" mask="url(#b)" d="M102.801 30.408h5.71V15.017h-5.71z"/><path stroke="#231F1F" stroke-width="1.5" mask="url(#b)" d="M102.801 30.408h5.71V15.017h-5.71z"/></g></svg>