<svg width="122" height="101" viewBox="0 0 122 101" xmlns="http://www.w3.org/2000/svg" xmlns:xlink="http://www.w3.org/1999/xlink"><title>Artboard</title><defs><path d="M74 2.9v45.3c0 1.3-1.1 2.4-2.4 2.4H3c-1.3 0-2.4-1.1-2.4-2.4V2.9C.6 1.6 1.7.5 3 .5h68.6C72.9.5 74 1.6 74 2.9z" id="a"/></defs><g fill="none" fill-rule="evenodd"><path d="M83 5.9v45.3c0 1.3-1.1 2.4-2.4 2.4H12c-1.3 0-2.4-1.1-2.4-2.4V5.9c0-1.3 1.1-2.4 2.4-2.4h68.6c1.3 0 2.4 1.1 2.4 2.4z" fill="#FFF" fill-rule="nonzero"/><g transform="translate(9 3)"><mask id="b" fill="#fff"><use xlink:href="#a"/></mask><g fill-rule="nonzero" fill="#49B451" mask="url(#b)"><g transform="translate(-8 -53)"><circle cx="1.1" cy="104.5" r="1"/><circle cx="1.1" cy="98.8" r="1"/><circle cx="1.1" cy="93" r="1"/><circle cx="1.1" cy="87.2" r="1"/><circle cx="1.1" cy="81.5" r="1"/><circle cx="1.1" cy="75.7" r="1"/><circle cx="1.1" cy="70" r="1"/><circle cx="1.1" cy="64.2" r="1"/><circle cx="1.1" cy="58.5" r="1"/><circle cx="1.1" cy="52.7" r="1"/></g><g transform="translate(-4 -51)"><circle cx="1.6" cy="105" r="1"/><circle cx="1.6" cy="99.3" r="1"/><circle cx="1.6" cy="93.5" r="1"/><circle cx="1.6" cy="87.8" r="1"/><circle cx="1.6" cy="82" r="1"/><circle cx="1.6" cy="76.2" r="1"/><circle cx="1.6" cy="70.5" r="1"/><circle cx="1.6" cy="64.7" r="1"/><circle cx="1.6" cy="59" r="1"/><circle cx="1.6" cy="53.2" r="1"/><circle cx="1.6" cy="47.5" r="1"/></g><g transform="translate(1 -53)"><circle cx="1" cy="104.5" r="1"/><circle cx="1" cy="98.8" r="1"/><circle cx="1" cy="93" r="1"/><circle cx="1" cy="87.2" r="1"/><circle cx="1" cy="81.5" r="1"/><circle cx="1" cy="75.7" r="1"/><circle cx="1" cy="70" r="1"/><circle cx="1" cy="64.2" r="1"/><circle cx="1" cy="58.5" r="1"/><circle cx="1" cy="52.7" r="1"/></g><g transform="translate(5 -51)"><circle cx="1.4" cy="105" r="1"/><circle cx="1.4" cy="99.3" r="1"/><circle cx="1.4" cy="93.5" r="1"/><circle cx="1.4" cy="87.8" r="1"/><circle cx="1.4" cy="82" r="1"/><circle cx="1.4" cy="76.2" r="1"/><circle cx="1.4" cy="70.5" r="1"/><circle cx="1.4" cy="64.7" r="1"/><circle cx="1.4" cy="59" r="1"/><circle cx="1.4" cy="53.2" r="1"/><circle cx="1.4" cy="47.5" r="1"/></g><g transform="translate(9 -53)"><circle cx="1.8" cy="104.5" r="1"/><circle cx="1.8" cy="98.8" r="1"/><circle cx="1.8" cy="93" r="1"/><circle cx="1.8" cy="87.2" r="1"/><circle cx="1.8" cy="81.5" r="1"/><circle cx="1.8" cy="75.7" r="1"/><circle cx="1.8" cy="70" r="1"/><circle cx="1.8" cy="64.2" r="1"/><circle cx="1.8" cy="58.5" r="1"/><circle cx="1.8" cy="52.7" r="1"/></g><g transform="translate(14 -51)"><circle cx="1.3" cy="105" r="1"/><circle cx="1.3" cy="99.3" r="1"/><circle cx="1.3" cy="93.5" r="1"/><circle cx="1.3" cy="87.8" r="1"/><circle cx="1.3" cy="82" r="1"/><circle cx="1.3" cy="76.2" r="1"/><circle cx="1.3" cy="70.5" r="1"/><circle cx="1.3" cy="64.7" r="1"/><circle cx="1.3" cy="59" r="1"/><circle cx="1.3" cy="53.2" r="1"/><circle cx="1.3" cy="47.5" r="1"/></g><g transform="translate(18 -53)"><circle cx="1.6" cy="104.5" r="1"/><circle cx="1.6" cy="98.8" r="1"/><circle cx="1.6" cy="93" r="1"/><circle cx="1.6" cy="87.2" r="1"/><circle cx="1.6" cy="81.5" r="1"/><circle cx="1.6" cy="75.7" r="1"/><circle cx="1.6" cy="70" r="1"/><circle cx="1.6" cy="64.2" r="1"/><circle cx="1.6" cy="58.5" r="1"/><circle cx="1.6" cy="52.7" r="1"/></g><g transform="translate(23 -51)"><circle cx="1.1" cy="105" r="1"/><circle cx="1.1" cy="99.3" r="1"/><circle cx="1.1" cy="93.5" r="1"/><circle cx="1.1" cy="87.8" r="1"/><circle cx="1.1" cy="82" r="1"/><circle cx="1.1" cy="76.2" r="1"/><circle cx="1.1" cy="70.5" r="1"/><circle cx="1.1" cy="64.7" r="1"/><circle cx="1.1" cy="59" r="1"/><circle cx="1.1" cy="53.2" r="1"/><circle cx="1.1" cy="47.5" r="1"/></g><g transform="translate(27 -53)"><circle cx="1.4" cy="104.5" r="1"/><circle cx="1.4" cy="98.8" r="1"/><circle cx="1.4" cy="93" r="1"/><circle cx="1.4" cy="87.2" r="1"/><circle cx="1.4" cy="81.5" r="1"/><circle cx="1.4" cy="75.7" r="1"/><circle cx="1.4" cy="70" r="1"/><circle cx="1.4" cy="64.2" r="1"/><circle cx="1.4" cy="58.5" r="1"/><circle cx="1.4" cy="52.7" r="1"/></g><g transform="translate(32 -51)"><circle cx=".9" cy="105" r="1"/><circle cx=".9" cy="99.3" r="1"/><circle cx=".9" cy="93.5" r="1"/><circle cx=".9" cy="87.8" r="1"/><circle cx=".9" cy="82" r="1"/><circle cx=".9" cy="76.2" r="1"/><circle cx=".9" cy="70.5" r="1"/><circle cx=".9" cy="64.7" r="1"/><circle cx=".9" cy="59" r="1"/><circle cx=".9" cy="53.2" r="1"/><circle cx=".9" cy="47.5" r="1"/></g><g transform="translate(36 -53)"><circle cx="1.3" cy="104.5" r="1"/><circle cx="1.3" cy="98.8" r="1"/><circle cx="1.3" cy="93" r="1"/><circle cx="1.3" cy="87.2" r="1"/><circle cx="1.3" cy="81.5" r="1"/><circle cx="1.3" cy="75.7" r="1"/><circle cx="1.3" cy="70" r="1"/><circle cx="1.3" cy="64.2" r="1"/><circle cx="1.3" cy="58.5" r="1"/><circle cx="1.3" cy="52.7" r="1"/></g><g transform="translate(40 -51)"><circle cx="1.7" cy="105" r="1"/><circle cx="1.7" cy="99.3" r="1"/><circle cx="1.7" cy="93.5" r="1"/><circle cx="1.7" cy="87.8" r="1"/><circle cx="1.7" cy="82" r="1"/><circle cx="1.7" cy="76.2" r="1"/><circle cx="1.7" cy="70.5" r="1"/><circle cx="1.7" cy="64.7" r="1"/><circle cx="1.7" cy="59" r="1"/><circle cx="1.7" cy="53.2" r="1"/><circle cx="1.7" cy="47.5" r="1"/></g><g><g transform="translate(45 -53)"><circle cx="1.1" cy="104.5" r="1"/><circle cx="1.1" cy="98.8" r="1"/><circle cx="1.1" cy="93" r="1"/><circle cx="1.1" cy="87.2" r="1"/><circle cx="1.1" cy="81.5" r="1"/><circle cx="1.1" cy="75.7" r="1"/><circle cx="1.1" cy="70" r="1"/><circle cx="1.1" cy="64.2" r="1"/><circle cx="1.1" cy="58.5" r="1"/><circle cx="1.1" cy="52.7" r="1"/></g><g transform="translate(49 -51)"><circle cx="1.6" cy="105" r="1"/><circle cx="1.6" cy="99.3" r="1"/><circle cx="1.6" cy="93.5" r="1"/><circle cx="1.6" cy="87.8" r="1"/><circle cx="1.6" cy="82" r="1"/><circle cx="1.6" cy="76.2" r="1"/><circle cx="1.6" cy="70.5" r="1"/><circle cx="1.6" cy="64.7" r="1"/><circle cx="1.6" cy="59" r="1"/><circle cx="1.6" cy="53.2" r="1"/><circle cx="1.6" cy="47.5" r="1"/></g></g><g><g transform="translate(54 -53)"><circle cx=".9" cy="104.5" r="1"/><circle cx=".9" cy="98.8" r="1"/><circle cx=".9" cy="93" r="1"/><circle cx=".9" cy="87.2" r="1"/><circle cx=".9" cy="81.5" r="1"/><circle cx=".9" cy="75.7" r="1"/><circle cx=".9" cy="70" r="1"/><circle cx=".9" cy="64.2" r="1"/><circle cx=".9" cy="58.5" r="1"/><circle cx=".9" cy="52.7" r="1"/></g><g transform="translate(58 -51)"><circle cx="1.4" cy="105" r="1"/><circle cx="1.4" cy="99.3" r="1"/><circle cx="1.4" cy="93.5" r="1"/><circle cx="1.4" cy="87.8" r="1"/><circle cx="1.4" cy="82" r="1"/><circle cx="1.4" cy="76.2" r="1"/><circle cx="1.4" cy="70.5" r="1"/><circle cx="1.4" cy="64.7" r="1"/><circle cx="1.4" cy="59" r="1"/><circle cx="1.4" cy="53.2" r="1"/><circle cx="1.4" cy="47.5" r="1"/></g></g><g><g transform="translate(62 -53)"><circle cx="1.7" cy="104.5" r="1"/><circle cx="1.7" cy="98.8" r="1"/><circle cx="1.7" cy="93" r="1"/><circle cx="1.7" cy="87.2" r="1"/><circle cx="1.7" cy="81.5" r="1"/><circle cx="1.7" cy="75.7" r="1"/><circle cx="1.7" cy="70" r="1"/><circle cx="1.7" cy="64.2" r="1"/><circle cx="1.7" cy="58.5" r="1"/><circle cx="1.7" cy="52.7" r="1"/></g><g transform="translate(67 -51)"><circle cx="1.2" cy="105" r="1"/><circle cx="1.2" cy="99.3" r="1"/><circle cx="1.2" cy="93.5" r="1"/><circle cx="1.2" cy="87.8" r="1"/><circle cx="1.2" cy="82" r="1"/><circle cx="1.2" cy="76.2" r="1"/><circle cx="1.2" cy="70.5" r="1"/><circle cx="1.2" cy="64.7" r="1"/><circle cx="1.2" cy="59" r="1"/><circle cx="1.2" cy="53.2" r="1"/><circle cx="1.2" cy="47.5" r="1"/></g></g><g><g transform="translate(71 -53)"><circle cx="1.5" cy="104.5" r="1"/><circle cx="1.5" cy="98.8" r="1"/><circle cx="1.5" cy="93" r="1"/><circle cx="1.5" cy="87.2" r="1"/><circle cx="1.5" cy="81.5" r="1"/><circle cx="1.5" cy="75.7" r="1"/><circle cx="1.5" cy="70" r="1"/><circle cx="1.5" cy="64.2" r="1"/><circle cx="1.5" cy="58.5" r="1"/><circle cx="1.5" cy="52.7" r="1"/></g><g transform="translate(76 -51)"><circle cx="1" cy="105" r="1"/><circle cx="1" cy="99.3" r="1"/><circle cx="1" cy="93.5" r="1"/><circle cx="1" cy="87.8" r="1"/><circle cx="1" cy="82" r="1"/><circle cx="1" cy="76.2" r="1"/><circle cx="1" cy="70.5" r="1"/><circle cx="1" cy="64.7" r="1"/><circle cx="1" cy="59" r="1"/><circle cx="1" cy="53.2" r="1"/><circle cx="1" cy="47.5" r="1"/></g></g><g><g transform="translate(80 -53)"><circle cx="1.4" cy="104.5" r="1"/><circle cx="1.4" cy="98.8" r="1"/><circle cx="1.4" cy="93" r="1"/><circle cx="1.4" cy="87.2" r="1"/><circle cx="1.4" cy="81.5" r="1"/><circle cx="1.4" cy="75.7" r="1"/><circle cx="1.4" cy="70" r="1"/><circle cx="1.4" cy="64.2" r="1"/><circle cx="1.4" cy="58.5" r="1"/><circle cx="1.4" cy="52.7" r="1"/></g><g transform="translate(84 -51)"><circle cx="1.8" cy="105" r="1"/><circle cx="1.8" cy="99.3" r="1"/><circle cx="1.8" cy="93.5" r="1"/><circle cx="1.8" cy="87.8" r="1"/><circle cx="1.8" cy="82" r="1"/><circle cx="1.8" cy="76.2" r="1"/><circle cx="1.8" cy="70.5" r="1"/><circle cx="1.8" cy="64.7" r="1"/><circle cx="1.8" cy="59" r="1"/><circle cx="1.8" cy="53.2" r="1"/><circle cx="1.8" cy="47.5" r="1"/></g></g></g></g><path d="M83 5.9v45.3c0 1.3-1.1 2.4-2.4 2.4H12c-1.3 0-2.4-1.1-2.4-2.4V5.9c0-1.3 1.1-2.4 2.4-2.4h68.6c1.3 0 2.4 1.1 2.4 2.4z" stroke="#231F20" stroke-width="1.5"/><path stroke="#231F20" stroke-width="1.5" fill="#49B451" fill-rule="nonzero" stroke-linecap="round" stroke-linejoin="round" d="M9 12.8h75v7.1H9z"/><path stroke="#231F20" stroke-width="1.5" fill="#49B451" fill-rule="nonzero" stroke-linecap="round" stroke-linejoin="round" d="M20.3 2.3h7.1v52.3h-7.1z"/><g stroke="#231F20" stroke-width="1.5"><path fill="#49B451" fill-rule="nonzero" stroke-linecap="round" stroke-linejoin="round" d="M16.7 39.2l-2.1-4h-3.8L20.4 13l5.9 4z"/><path fill="#49B451" fill-rule="nonzero" stroke-linecap="round" stroke-linejoin="round" d="M31 39.2l2-4h3.8L27.2 13l-5.8 4z"/><path d="M23.4 17.4l-8.3 4.7c-1.2.7-2.6 1.2-4 1.6l-5.3 1.2c-2.1.5-4-1.4-3.6-3.5l1.1-5.5L2.2 10c-.4-2.1 1.5-3.9 3.6-3.5l5 1.1c1.4.3 2.7.8 3.9 1.5l8.8 4.9v3.4h-.1z" fill="#49B451" fill-rule="nonzero" stroke-linecap="round" stroke-linejoin="round"/><path stroke-linecap="round" d="M10.3 13.6l13.1 2.1-9 2.2"/><path d="M23.4 17.4l8.3 4.7c1.2.7 2.6 1.2 4 1.6l5.3 1.2c2.1.5 4-1.4 3.6-3.5l-1.1-5.5 1.1-5.9c.4-2.1-1.5-3.9-3.6-3.5l-5 1.1c-1.4.3-2.7.8-3.9 1.5L23.3 14v3.4h.1z" fill="#49B451" fill-rule="nonzero" stroke-linecap="round" stroke-linejoin="round"/><path stroke-linecap="round" d="M36.5 13.6l-13.1 2.1 9 2.2"/><path d="M26.2 19.6c-1.5 0-2.8-1-2.8-1s-1.5 1-2.8 1c-1.3 0-1.6-.7-1.6-1.6v-4.6c0-.9.6-1.6 1.6-1.6 1.1 0 2.6 1 2.6 1s1.8-1 2.9-1c1.1 0 1.6.7 1.6 1.6V18c.1.9 0 1.6-1.5 1.6z" fill="#49B451" fill-rule="nonzero" stroke-linecap="round" stroke-linejoin="round"/><path d="M23.3 12.8v5.8"/></g><g><g fill-rule="nonzero"><path fill="#D8E6F1" d="M50.8 98.2l-2.5-44.6L83 27.8l34.6 25.8-2.5 44.6z"/><path d="M83 28.7L116.9 54l-2.4 43.5h-63L49.1 54 83 28.7zm0-1.9L47.5 53.2 50 98.9h65.8l2.5-45.7L83 26.8z" fill="#211F1F"/></g><path fill="#AFBEC7" fill-rule="nonzero" d="M114.3 99H51.7l-2.6-45.1h67.7z"/><g stroke-width="1.5" fill-rule="nonzero" stroke="#231F20"><path d="M77.1 40.9c2.3 1.3 5.5 8.7 5.5 8.7s-8 1-10.3-.3C70 48 69.2 45 70.5 42.7s4.2-3.1 6.6-1.8zM88 40.8c-2.3 1.3-5.4 8.8-5.4 8.8s8 .9 10.3-.4c2.3-1.3 3.1-4.3 1.7-6.6-1.4-2.3-4.2-3.1-6.6-1.8z" fill="#FFF"/><path fill="#49B451" stroke-linecap="round" stroke-linejoin="round" d="M102.906 77.656l-40 .224-.1-17.8 40-.223zM105.485 59.84l-45.3.253-.056-9.9 45.3-.253z"/><path fill="#FFF" d="M88.035 77.84l-10.3.057-.156-27.9 10.3-.057z"/></g><g fill-rule="nonzero"><path d="M50.8 98.2l-2.4-43.1c1.9 1.7 5.5 5 10.1 8.1 6.2 4.3 15.5 9.5 24.5 9.5s18.3-5.2 24.5-9.5c4.6-3.2 8.2-6.4 10.1-8.1l-2.4 43.1H50.8z" fill="#FFF"/><path d="M49.2 56.9c5.9 5.3 20.1 16.6 33.7 16.6 13.7 0 27.9-11.3 33.7-16.6l-2.2 40.6h-63l-2.2-40.6zm69.2-3.7S100 72 83 72 47.6 53.2 47.6 53.2l2.5 45.7h65.8l2.5-45.7z" fill="#221F1F"/></g><g stroke="#221F1F" stroke-width="1.5" stroke-linecap="round"><path d="M34.1 64.9L22.5 67M36.6 71.5L19.1 82M40.2 77.4L35.8 84"/></g></g><g stroke="#221F1F" stroke-width="1.5" stroke-linecap="round"><path d="M108.4 36.6l10.7-4.7M103 30.4L119.8 18M97.1 25.6l5.5-7.2"/></g></g></svg>