<svg width="109" height="74" viewBox="0 0 109 74" xmlns="http://www.w3.org/2000/svg"><title>async loyalty redemption</title><g fill="none" fill-rule="evenodd"><path d="M10.492 49.989c1.527.109 5.013 3.138 5.013 3.138s-3.88 2.502-5.409 2.393a2.773 2.773 0 0 1 .396-5.531" fill="#FFF"/><path d="M10.492 49.989c1.527.109 5.013 3.138 5.013 3.138s-3.88 2.502-5.409 2.393a2.773 2.773 0 0 1 .396-5.531z" stroke="#231F1F" stroke-width="1.5"/><path d="M16.147 47.247c-.86 1.267-.642 5.88-.642 5.88s4.37-1.498 5.23-2.765a2.772 2.772 0 1 0-4.588-3.115" fill="#FFF"/><path d="M16.147 47.247c-.86 1.267-.642 5.88-.642 5.88s4.37-1.498 5.23-2.765a2.772 2.772 0 1 0-4.588-3.115z" stroke="#231F1F" stroke-width="1.5"/><path fill="#42B573" d="M32.942 62.61L12.36 72.587l-4.455-9.189 20.582-9.977z"/><path stroke="#211F1F" stroke-width="1.5" stroke-linecap="round" stroke-linejoin="round" d="M32.942 62.61L12.36 72.587l-4.455-9.189 20.582-9.977z"/><path fill="#42B573" d="M29.848 52.762L6.545 64.059 4.07 58.953l23.303-11.296z"/><path stroke="#211F1F" stroke-width="1.5" stroke-linecap="round" stroke-linejoin="round" d="M29.848 52.762L6.545 64.059 4.07 58.953l23.303-11.296z"/><path fill="#FFF" d="M25.312 66.309l-5.323 2.58-6.954-14.346 5.322-2.58z"/><path stroke="#231F1F" stroke-width="1.5" d="M25.312 66.309l-5.323 2.58-6.954-14.346 5.322-2.58z"/><path d="M92.104 47.033c.685 1.369-.14 5.913-.14 5.913s-4.133-2.062-4.818-3.431a2.771 2.771 0 1 1 4.958-2.482" fill="#FFF"/><path d="M92.104 47.033c.685 1.369-.14 5.913-.14 5.913s-4.133-2.062-4.818-3.431a2.771 2.771 0 1 1 4.958-2.482z" stroke="#231F1F" stroke-width="1.5"/><path d="M97.347 50.498c-1.528-.094-5.384 2.448-5.384 2.448s3.517 2.993 5.045 3.086a2.772 2.772 0 1 0 .339-5.534" fill="#FFF"/><path d="M97.347 50.498c-1.528-.094-5.384 2.448-5.384 2.448s3.517 2.993 5.045 3.086a2.772 2.772 0 1 0 .339-5.534z" stroke="#231F1F" stroke-width="1.5"/><path fill="#42B573" d="M92.703 72.78L73.621 60.17l5.63-8.519 19.082 12.61z"/><path stroke="#211F1F" stroke-width="1.5" stroke-linecap="round" stroke-linejoin="round" d="M92.703 72.78L73.621 60.17l5.63-8.519 19.082 12.61z"/><path fill="#42B573" d="M99.595 65.094L77.99 50.817l3.128-4.733 21.605 14.277z"/><path stroke="#211F1F" stroke-width="1.5" stroke-linecap="round" stroke-linejoin="round" d="M99.595 65.094L77.99 50.817l3.128-4.733 21.605 14.277z"/><path fill="#FFF" d="M85.63 68.106l-4.935-3.261 8.79-13.301 4.935 3.26z"/><path stroke="#231F1F" stroke-width="1.5" d="M85.63 68.106l-4.935-3.261 8.79-13.301 4.935 3.26z"/><path d="M51.485 44.666c1.144 1.018 2.061 5.544 2.061 5.544s-4.602-.383-5.746-1.4a2.772 2.772 0 1 1 3.685-4.144" fill="#FFF"/><path d="M51.485 44.666c1.144 1.018 2.061 5.544 2.061 5.544s-4.602-.383-5.746-1.4a2.772 2.772 0 1 1 3.685-4.144z" stroke="#231F1F" stroke-width="1.5"/><path d="M57.64 45.94c-1.455.48-4.094 4.27-4.094 4.27s4.376 1.475 5.83.996a2.773 2.773 0 0 0-1.737-5.266" fill="#FFF"/><path d="M57.64 45.94c-1.455.48-4.094 4.27-4.094 4.27s4.376 1.475 5.83.996a2.773 2.773 0 0 0-1.737-5.266z" stroke="#231F1F" stroke-width="1.5"/><path fill="#42B573" d="M61.588 68.356L39.191 63.72l2.07-10 22.397 4.636z"/><path stroke="#211F1F" stroke-width="1.5" stroke-linecap="round" stroke-linejoin="round" d="M61.588 68.356L39.191 63.72l2.07-10 22.397 4.636z"/><path fill="#42B573" d="M65.139 58.663l-25.36-5.25 1.15-5.555 25.36 5.249z"/><path stroke="#211F1F" stroke-width="1.5" stroke-linecap="round" stroke-linejoin="round" d="M65.139 58.663l-25.36-5.25 1.15-5.555 25.36 5.249z"/><path fill="#FFF" d="M53.285 66.637l-5.791-1.199 3.23-15.612 5.794 1.2z"/><path stroke="#231F1F" stroke-width="1.5" d="M53.285 66.637l-5.791-1.199 3.23-15.612 5.794 1.2z"/><path fill="#FFF" d="M.75.75v33.144l2.198 2.198 1.748-1.748 1.748 1.748 1.748-1.748 1.748 1.748 1.748-1.748 1.748 1.748 1.748-1.748 1.748 1.748 1.748-1.748 1.748 1.748 1.748-1.748 1.748 1.748 1.748-1.748 1.747 1.748 2.199-2.198V.75z"/><path stroke="#221F1F" stroke-width="1.5" d="M.75.75v33.144l2.198 2.198 1.748-1.748 1.748 1.748 1.748-1.748 1.748 1.748 1.748-1.748 1.748 1.748 1.748-1.748 1.748 1.748 1.748-1.748 1.748 1.748 1.748-1.748 1.748 1.748 1.748-1.748 1.747 1.748 2.199-2.198V.75z"/><path d="M5.617 12.436h18.965" fill="#FFF"/><path d="M5.617 12.436h18.965" stroke="#221F1F" stroke-width="1.5"/><path d="M5.617 16.697h18.965" fill="#FFF"/><path d="M5.617 16.697h18.965" stroke="#221F1F" stroke-width="1.5"/><path d="M5.617 20.96h18.965" fill="#FFF"/><path d="M5.617 20.96h18.965" stroke="#221F1F" stroke-width="1.5"/><path d="M5.617 25.22h10.406" fill="#FFF"/><path d="M5.617 25.22h10.406" stroke="#221F1F" stroke-width="1.5"/><path d="M15.184 34.344v16.957" fill="#AFBEC7"/><path d="M15.184 34.344v16.957" stroke="#211F1F" stroke-width="1.5" stroke-linejoin="round"/><path fill="#FFF" d="M39.622.75v33.144l2.198 2.198 1.748-1.748 1.748 1.748 1.748-1.748 1.748 1.748 1.748-1.748 1.748 1.748 1.748-1.748 1.748 1.748 1.748-1.748 1.748 1.748 1.748-1.748 1.748 1.748 1.748-1.748 1.747 1.748 2.2-2.198V.75z"/><path stroke="#221F1F" stroke-width="1.5" d="M39.622.75v33.144l2.198 2.198 1.748-1.748 1.748 1.748 1.748-1.748 1.748 1.748 1.748-1.748 1.748 1.748 1.748-1.748 1.748 1.748 1.748-1.748 1.748 1.748 1.748-1.748 1.748 1.748 1.748-1.748 1.747 1.748 2.2-2.198V.75z"/><path d="M44.49 12.436h18.964" fill="#FFF"/><path d="M44.49 12.436h18.964" stroke="#221F1F" stroke-width="1.5"/><path d="M44.49 16.697h18.964" fill="#FFF"/><path d="M44.49 16.697h18.964" stroke="#221F1F" stroke-width="1.5"/><path d="M44.49 20.96h18.964" fill="#FFF"/><path d="M44.49 20.96h18.964" stroke="#221F1F" stroke-width="1.5"/><path d="M44.49 25.22h10.405" fill="#FFF"/><path d="M44.49 25.22h10.405" stroke="#221F1F" stroke-width="1.5"/><g><path d="M54.056 34.344v16.957" fill="#AFBEC7"/><path d="M54.056 34.344v16.957" stroke="#211F1F" stroke-width="1.5" stroke-linejoin="round"/></g><path fill="#FFF" d="M78.495.75v33.144l2.197 2.198 1.749-1.748 1.748 1.748 1.748-1.748 1.748 1.748 1.748-1.748 1.747 1.748 1.748-1.748 1.749 1.748 1.747-1.748 1.748 1.748 1.749-1.748 1.747 1.748 1.748-1.748 1.748 1.748 2.198-2.198V.75z"/><path stroke="#221F1F" stroke-width="1.5" d="M78.495.75v33.144l2.197 2.198 1.749-1.748 1.748 1.748 1.748-1.748 1.748 1.748 1.748-1.748 1.747 1.748 1.748-1.748 1.749 1.748 1.747-1.748 1.748 1.748 1.749-1.748 1.747 1.748 1.748-1.748 1.748 1.748 2.198-2.198V.75z"/><g><path d="M83.362 12.436h18.965" fill="#FFF"/><path d="M83.362 12.436h18.965" stroke="#221F1F" stroke-width="1.5"/></g><g><path d="M83.362 16.697h18.965" fill="#FFF"/><path d="M83.362 16.697h18.965" stroke="#221F1F" stroke-width="1.5"/></g><g><path d="M83.362 20.96h18.965" fill="#FFF"/><path d="M83.362 20.96h18.965" stroke="#221F1F" stroke-width="1.5"/></g><g><path d="M83.362 25.22h10.406" fill="#FFF"/><path d="M83.362 25.22h10.406" stroke="#221F1F" stroke-width="1.5"/></g><g><path d="M92.928 34.344v16.957" fill="#AFBEC7"/><path d="M92.928 34.344v16.957" stroke="#211F1F" stroke-width="1.5" stroke-linejoin="round"/></g></g></svg>