<svg width="187" height="90" viewBox="0 0 187 90" xmlns="http://www.w3.org/2000/svg" xmlns:xlink="http://www.w3.org/1999/xlink"><title>Promo Code - 2 - share</title><defs><path id="a" d="M.5 0h56v59.5H.5z"/><path d="M47.608 20.632c.015.221.038.436.073.644.044.27.09.492.132.668.046.176.116.375.21.6.093.222.168.383.221.477l.26.472a67.752 67.752 0 0 1 .294.538c.028.057.044.092.051.103.003.014.017.048.038.107.024.06.031.095.024.11a.306.306 0 0 0-.003.106c.003.057-.007.1-.037.132a.523.523 0 0 1-.249.253.407.407 0 0 1-.334.018 7.59 7.59 0 0 1-1.109-.498c-1.633-.857-3.178-2.26-4.244-3.73H2.775A2.692 2.692 0 0 1 .083 17.94V3.402A2.692 2.692 0 0 1 2.775.71H56.17a2.692 2.692 0 0 1 2.692 2.692V17.94a2.692 2.692 0 0 1-2.692 2.692h-8.562z" id="c"/></defs><g fill="none" fill-rule="evenodd"><path stroke="#BECBCF" stroke-width="1.5" fill="#FFF" stroke-linecap="round" d="M67 88h89V14H67z"/><g transform="translate(136 68)"><rect stroke="#BECBCF" stroke-width="1.5" width="12" height="12" rx="3"/><circle stroke="#BECBCF" stroke-width="1.5" cx="6" cy="6" r="3"/><circle fill="#BECBCF" cx="9.75" cy="2.75" r="1"/></g><path d="M87.956 26.899a7.155 7.155 0 0 1-.289 2.354 7.335 7.335 0 0 1-.902 1.94 7.59 7.59 0 0 1-1.44 1.643c-.557.476-1.229.856-2.014 1.14a7.37 7.37 0 0 1-2.522.426 6.995 6.995 0 0 1-3.872-1.132c.182.02.385.031.61.031 1.17 0 2.213-.359 3.13-1.077a2.467 2.467 0 0 1-1.469-.504 2.478 2.478 0 0 1-.89-1.245c.172.026.331.039.477.039.223 0 .445-.029.664-.086a2.48 2.48 0 0 1-1.449-.871 2.436 2.436 0 0 1-.573-1.604v-.031a2.51 2.51 0 0 0 1.14.32 2.5 2.5 0 0 1-.82-.898 2.445 2.445 0 0 1-.306-1.202c0-.458.115-.883.344-1.273a7.133 7.133 0 0 0 2.3 1.862 7.013 7.013 0 0 0 2.9.777 2.783 2.783 0 0 1-.063-.577c0-.698.246-1.293.738-1.785a2.432 2.432 0 0 1 1.784-.737 2.43 2.43 0 0 1 1.842.795 4.916 4.916 0 0 0 1.601-.609c.32.793-.427 1.945-.92 2.304zM116.69 67.236v2.061h-1.226c-.448 0-.749.093-.905.281-.156.187-.235.468-.235.843v1.475h2.287l-.304 2.311h-1.983v5.926h-2.389v-5.926h-1.99v-2.31h1.99v-1.702c0-.969.271-1.719.812-2.253.542-.533 1.263-.8 2.163-.8.766 0 1.36.031 1.78.094" fill="#BECBCF"/><path d="M67 88h32V44H67z" fill="#FFF" stroke="#BECBCF" stroke-width="1.5"/><g transform="translate(99 -1)"><mask id="b" fill="#fff"><use xlink:href="#a"/></mask><g mask="url(#b)" fill="#FFF" stroke="#BECBCF" stroke-width="1.5"><path d="M40.27 45.262a4.751 4.751 0 0 1 6.634-6.635l4.638-4.637L19.368 1.816 14.73 6.454a4.751 4.751 0 0 1-6.634 6.634l-4.638 4.638L35.632 49.9l4.638-4.637z"/><path d="M40.27 59.404a4.751 4.751 0 0 1 6.634-6.634l4.638-4.638-32.174-32.174-4.638 4.638a4.751 4.751 0 0 1-6.634 6.634l-4.638 4.638 32.174 32.174 4.638-4.638z"/><path d="M40.27 73.546a4.751 4.751 0 0 1 6.634-6.634l4.638-4.638L19.368 30.1l-4.638 4.637a4.751 4.751 0 0 1-6.634 6.635L3.458 46.01l32.174 32.174 4.638-4.638z"/></g></g><g fill="#FFF" transform="translate(31 55)"><use xlink:href="#c"/><use stroke="#BECBCF" stroke-width="1.5" xlink:href="#c"/></g><path d="M41 62.039v8M44.484 63.493l-7.215 4.542M37.313 63.493l7.215 4.542M54 62.039v8M57.484 63.493l-7.215 4.542M50.314 63.493l7.215 4.542M67 62.039v8M70.484 63.493l-7.215 4.542M63.313 63.493l7.215 4.542M80 62.039v8M83.484 63.493l-7.215 4.542M76.314 63.493l7.215 4.542M99 15v30M99 59h57" stroke="#BECBCF" stroke-width="1.5" stroke-linecap="round"/><path d="M127 59.496V88" stroke="#BECBCF" stroke-width="1.5"/></g></svg>