<svg width="187" height="90" viewBox="0 0 187 90" xmlns="http://www.w3.org/2000/svg"><title>Promo Code - 1 - create</title><g fill="none" fill-rule="evenodd"><path stroke="#BECBCF" stroke-width="1.5" fill="#FFF" d="M67.355 81.85h63.299V64.9H67.355z"/><path stroke="#BECBCF" stroke-width="1.5" fill="#FFF" d="M59.487 73.874h63.299v-16.95H59.487z"/><path stroke="#BECBCF" stroke-width="1.5" fill="#FFF" d="M51.618 65.898h63.299V48.95H51.618z"/><path stroke="#BECBCF" stroke-width="1.5" fill="#FFF" d="M43.75 57.922h63.299V39.975H43.75z"/><g stroke="#BECBCF" stroke-linecap="round" stroke-width="1.5"><path d="M55.481 44.4v8M58.965 45.855l-7.215 4.542M51.795 45.855l7.215 4.542M68.481 44.4v8M71.965 45.855l-7.215 4.542M64.795 45.855l7.215 4.542M81.481 44.4v8M84.965 45.855l-7.215 4.542M77.795 45.855l7.215 4.542M94.481 44.4v8M97.965 45.855l-7.215 4.542M90.795 45.855l7.215 4.542"/></g><path stroke="#BECBCF" stroke-width="1.5" fill="#FFF" stroke-linecap="round" stroke-linejoin="round" d="M112.473 44.257l-7.233-7.233 27.135-27.136 7.234 7.233zM103.216 46.28l9.256-2.023-7.233-7.233z"/><path fill="#BECBCF" d="M103.216 46.28l3.54-.773-2.767-2.766z"/><path d="M140.248 9.248a5.115 5.115 0 0 0-7.233 0l-.64.64 7.233 7.233.64-.64a5.115 5.115 0 0 0 0-7.233z" stroke="#BECBCF" stroke-width="1.5" fill="#FFF" stroke-linecap="round"/><path d="M136.661 15.309l-26.163 26.163" stroke="#BECBCF" stroke-width="1.5" stroke-linecap="round"/></g></svg>