<svg width="109" height="108" viewBox="0 0 109 108" xmlns="http://www.w3.org/2000/svg" xmlns:xlink="http://www.w3.org/1999/xlink"><title>Illustration / Blog</title><defs><path d="M9.652 1.339L.94 14.92a.97.97 0 0 0 .522 1.422l73.56 24.523a.97.97 0 0 0 1.272-.823l1.18-16.093a.97.97 0 0 0-.659-1.017L10.79.919a.97.97 0 0 0-1.138.42" id="a"/><path d="M9.652 1.339L.94 14.92a.97.97 0 0 0 .522 1.422l73.56 24.523a.97.97 0 0 0 1.272-.823l1.18-16.093a.97.97 0 0 0-.659-1.017L10.79.919a.97.97 0 0 0-1.138.42z" id="c"/><path d="M9.652 1.339L.94 14.92a.97.97 0 0 0 .522 1.422l73.56 24.523a.97.97 0 0 0 1.272-.823l1.18-16.093a.97.97 0 0 0-.659-1.017L10.79.919a.97.97 0 0 0-1.138.42" id="e"/><path d="M9.652 1.339L.94 14.92a.97.97 0 0 0 .522 1.422l73.56 24.523a.97.97 0 0 0 1.272-.823l1.18-16.093a.97.97 0 0 0-.659-1.017L10.79.919a.97.97 0 0 0-1.138.42z" id="g"/><path d="M9.652 1.339L.94 14.92a.97.97 0 0 0 .522 1.422l73.56 24.523a.97.97 0 0 0 1.272-.823l1.18-16.093a.97.97 0 0 0-.659-1.017L10.79.919a.97.97 0 0 0-1.138.42" id="i"/><path d="M9.652 1.339L.94 14.92a.97.97 0 0 0 .522 1.422l73.56 24.523a.97.97 0 0 0 1.272-.823l1.18-16.093a.97.97 0 0 0-.659-1.017L10.79.919a.97.97 0 0 0-1.138.42z" id="k"/><path d="M9.652 1.339L.94 14.92a.97.97 0 0 0 .522 1.422l73.56 24.523a.97.97 0 0 0 1.272-.823l1.18-16.093a.97.97 0 0 0-.659-1.017L10.79.919a.97.97 0 0 0-1.138.42" id="m"/><path d="M9.652 1.339L.94 14.92a.97.97 0 0 0 .522 1.422l73.56 24.523a.97.97 0 0 0 1.272-.823l1.18-16.093a.97.97 0 0 0-.659-1.017L10.79.919a.97.97 0 0 0-1.138.42z" id="o"/><path d="M9.652 1.339L.94 14.92a.97.97 0 0 0 .522 1.422l73.56 24.523a.97.97 0 0 0 1.272-.823l1.18-16.093a.97.97 0 0 0-.659-1.017L10.79.919a.97.97 0 0 0-1.138.42" id="q"/><path d="M9.652 1.339L.94 14.92a.97.97 0 0 0 .522 1.422l73.56 24.523a.97.97 0 0 0 1.272-.823l1.18-16.093a.97.97 0 0 0-.659-1.017L10.79.919a.97.97 0 0 0-1.138.42z" id="s"/><path d="M9.652 1.339L.94 14.92a.97.97 0 0 0 .522 1.422l73.56 24.523a.97.97 0 0 0 1.272-.823l1.18-16.093a.97.97 0 0 0-.659-1.017L10.79.919a.97.97 0 0 0-1.138.42" id="u"/><path d="M9.652 1.339L.94 14.92a.97.97 0 0 0 .522 1.422l73.56 24.523a.97.97 0 0 0 1.272-.823l1.18-16.093a.97.97 0 0 0-.659-1.017L10.79.919a.97.97 0 0 0-1.138.42z" id="w"/><path d="M9.652 1.339L.94 14.92a.97.97 0 0 0 .522 1.422l73.56 24.523a.97.97 0 0 0 1.272-.823l1.18-16.093a.97.97 0 0 0-.659-1.017L10.79.919a.97.97 0 0 0-1.138.42" id="y"/><path d="M9.652 1.339L.94 14.92a.97.97 0 0 0 .522 1.422l73.56 24.523a.97.97 0 0 0 1.272-.823l1.18-16.093a.97.97 0 0 0-.659-1.017L10.79.919a.97.97 0 0 0-1.138.42z" id="A"/><path d="M9.652 1.339L.94 14.92a.97.97 0 0 0 .522 1.422l73.56 24.523a.97.97 0 0 0 1.272-.823l1.18-16.093a.97.97 0 0 0-.659-1.017L10.79.919a.97.97 0 0 0-1.138.42" id="C"/><path d="M9.652 1.339L.94 14.92a.97.97 0 0 0 .522 1.422l73.56 24.523a.97.97 0 0 0 1.272-.823l1.18-16.093a.97.97 0 0 0-.659-1.017L10.79.919a.97.97 0 0 0-1.138.42z" id="E"/><path d="M9.652 1.339L.94 14.92a.97.97 0 0 0 .522 1.422l73.56 24.523a.97.97 0 0 0 1.272-.823l1.18-16.093a.97.97 0 0 0-.659-1.017L10.79.919a.97.97 0 0 0-1.138.42" id="G"/><path d="M9.652 1.339L.94 14.92a.97.97 0 0 0 .522 1.422l73.56 24.523a.97.97 0 0 0 1.272-.823l1.18-16.093a.97.97 0 0 0-.659-1.017L10.79.919a.97.97 0 0 0-1.138.42z" id="I"/></defs><g fill="none" fill-rule="evenodd"><path fill="#AFBEC7" d="M7.52 39.4L.75 59.241l5.5 1.877 5.82-9.089 8.27-1.259 4.631-13.577z"/><path stroke="#000" stroke-width="1.5" stroke-linecap="round" stroke-linejoin="round" d="M24.972 37.194L7.52 39.4.75 59.242l5.5 1.877 5.822-9.09 8.268-1.26z"/><path fill="#AFBEC7" d="M95.558 60.726l12.636 12.237-6.49 19.935-5.527-1.8.798-10.764-5.858-5.968z"/><path stroke="#000" stroke-width="1.5" stroke-linecap="round" stroke-linejoin="round" d="M95.558 60.726l12.636 12.237-6.49 19.935-5.527-1.8.798-10.764-5.858-5.968z"/><path fill="#D6E4EF" d="M87.456 87.888L15.063 63.753l14.589-43.76 72.393 24.136z"/><path stroke="#211F1F" stroke-width="1.5" d="M87.456 87.888L15.063 63.753l14.589-43.76 72.393 24.136z"/><path fill="#FFF" d="M18.502 64.302l10.274-30.817L47 39.561 36.727 70.377"/><path stroke="#000" stroke-width="1.5" d="M18.502 64.302l10.274-30.817L47 39.561 36.727 70.377"/><path fill="#FFF" d="M87.878 71.722l5.49-16.467-43.004-14.337-5.49 16.467z"/><path stroke="#000" stroke-width="1.5" d="M87.878 71.722l5.49-16.467-43.004-14.337-5.49 16.467z"/><path fill="#AFBEC7" d="M103.994 26.689L37.48 4.514 38.734.75l66.515 22.175z"/><path stroke="#000" stroke-width="1.5" stroke-linecap="round" stroke-linejoin="round" d="M103.994 26.689L37.48 4.514 38.734.75l66.515 22.175z"/><path d="M39.132 53.944a.722.722 0 1 1-1.371-.456.722.722 0 0 1 1.37.456" fill="#FFF"/><path d="M39.132 53.944a.722.722 0 1 1-1.371-.456.722.722 0 0 1 1.37.456z" stroke="#000" stroke-width="1.5"/><path fill="#CBD8DF" d="M83.99 12.769l14.801 4.935-.904 2.709-14.8-4.935z"/><path stroke="#000" stroke-width="1.5" stroke-linecap="round" stroke-linejoin="round" d="M83.99 12.769l14.801 4.935-.904 2.709-14.8-4.935z"/><path fill="#FFF" d="M83.69 8.24l-1.329 3.986 18.058 6.02 1.328-3.984"/><path stroke="#000" stroke-width="1.5" d="M83.69 8.24l-1.329 3.986 18.058 6.02 1.328-3.984"/><path d="M101.747 14.261s-.321-4.535-7.7-6.995c-7.378-2.46-10.357.974-10.357.974l18.057 6.021z" fill="#AFBEC7"/><path d="M101.747 14.261s-.321-4.535-7.7-6.995c-7.378-2.46-10.357.974-10.357.974l18.057 6.021z" stroke="#000" stroke-width="1.5" stroke-linecap="round" stroke-linejoin="round"/><g><g transform="translate(27 3.477)"><mask id="b" fill="#fff"><use xlink:href="#a"/></mask><path d="M2.278 25.237l-.678-.226a4.085 4.085 0 0 1-2.583-5.168L5.873-.719l8.428 2.81-6.855 20.562a4.084 4.084 0 0 1-5.168 2.584" fill="#44B573" mask="url(#b)"/></g><g transform="translate(27 3.477)"><mask id="d" fill="#fff"><use xlink:href="#c"/></mask><path d="M2.278 25.237l-.678-.226a4.085 4.085 0 0 1-2.583-5.168L5.873-.719l8.428 2.81-6.855 20.562a4.084 4.084 0 0 1-5.168 2.584z" stroke="#000" stroke-width="1.5" mask="url(#d)"/></g><g transform="translate(27 3.477)"><mask id="f" fill="#fff"><use xlink:href="#e"/></mask><path d="M10.707 28.048l-.677-.226a4.086 4.086 0 0 1-2.584-5.17L14.235 2.29l8.429 2.81-6.789 20.365a4.085 4.085 0 0 1-5.168 2.584" fill="#FFF" mask="url(#f)"/></g><g transform="translate(27 3.477)"><mask id="h" fill="#fff"><use xlink:href="#g"/></mask><path d="M10.707 28.048l-.677-.226a4.086 4.086 0 0 1-2.584-5.17L14.235 2.29l8.429 2.81-6.789 20.365a4.085 4.085 0 0 1-5.168 2.584z" stroke="#000" stroke-width="1.5" mask="url(#h)"/></g><g transform="translate(27 3.477)"><mask id="j" fill="#fff"><use xlink:href="#i"/></mask><path d="M19.136 30.857l-.677-.226a4.085 4.085 0 0 1-2.584-5.168L22.73 4.901l8.428 2.81-6.855 20.563a4.085 4.085 0 0 1-5.168 2.583" fill="#44B573" mask="url(#j)"/></g><g transform="translate(27 3.477)"><mask id="l" fill="#fff"><use xlink:href="#k"/></mask><path d="M19.136 30.857l-.677-.226a4.085 4.085 0 0 1-2.584-5.168L22.73 4.901l8.428 2.81-6.855 20.563a4.085 4.085 0 0 1-5.168 2.583z" stroke="#000" stroke-width="1.5" mask="url(#l)"/></g><g transform="translate(27 3.477)"><mask id="n" fill="#fff"><use xlink:href="#m"/></mask><path d="M27.564 33.668l-.677-.226a4.085 4.085 0 0 1-2.584-5.168L31.16 7.71l8.428 2.81-6.855 20.563a4.085 4.085 0 0 1-5.168 2.584" fill="#FFF" mask="url(#n)"/></g><g transform="translate(27 3.477)"><mask id="p" fill="#fff"><use xlink:href="#o"/></mask><path d="M27.564 33.668l-.677-.226a4.085 4.085 0 0 1-2.584-5.168L31.16 7.71l8.428 2.81-6.855 20.563a4.085 4.085 0 0 1-5.168 2.584z" stroke="#000" stroke-width="1.5" mask="url(#p)"/></g><g transform="translate(27 3.477)"><mask id="r" fill="#fff"><use xlink:href="#q"/></mask><path d="M35.993 36.477l-.677-.226a4.086 4.086 0 0 1-2.584-5.168l6.856-20.562 8.428 2.81-6.854 20.563a4.086 4.086 0 0 1-5.169 2.583" fill="#44B573" mask="url(#r)"/></g><g transform="translate(27 3.477)"><mask id="t" fill="#fff"><use xlink:href="#s"/></mask><path d="M35.993 36.477l-.677-.226a4.086 4.086 0 0 1-2.584-5.168l6.856-20.562 8.428 2.81-6.854 20.563a4.086 4.086 0 0 1-5.169 2.583z" stroke="#000" stroke-width="1.5" mask="url(#t)"/></g><g transform="translate(27 3.477)"><mask id="v" fill="#fff"><use xlink:href="#u"/></mask><path d="M44.422 39.288l-.677-.226a4.085 4.085 0 0 1-2.583-5.168l6.855-20.563 8.429 2.81-6.855 20.563a4.086 4.086 0 0 1-5.17 2.584" fill="#FFF" mask="url(#v)"/></g><g transform="translate(27 3.477)"><mask id="x" fill="#fff"><use xlink:href="#w"/></mask><path d="M44.422 39.288l-.677-.226a4.085 4.085 0 0 1-2.583-5.168l6.855-20.563 8.429 2.81-6.855 20.563a4.086 4.086 0 0 1-5.17 2.584z" stroke="#000" stroke-width="1.5" mask="url(#x)"/></g><g transform="translate(27 3.477)"><mask id="z" fill="#fff"><use xlink:href="#y"/></mask><path d="M52.852 42.097l-.677-.226a4.085 4.085 0 0 1-2.584-5.168l6.855-20.562 8.428 2.81-6.854 20.563a4.085 4.085 0 0 1-5.169 2.583" fill="#44B573" mask="url(#z)"/></g><g transform="translate(27 3.477)"><mask id="B" fill="#fff"><use xlink:href="#A"/></mask><path d="M52.852 42.097l-.677-.226a4.085 4.085 0 0 1-2.584-5.168l6.855-20.562 8.428 2.81-6.854 20.563a4.085 4.085 0 0 1-5.169 2.583z" stroke="#000" stroke-width="1.5" mask="url(#B)"/></g><g transform="translate(27 3.477)"><mask id="D" fill="#fff"><use xlink:href="#C"/></mask><path d="M61.28 44.908l-.677-.226a4.085 4.085 0 0 1-2.584-5.168l6.856-20.563 8.428 2.811-6.855 20.562a4.085 4.085 0 0 1-5.168 2.584" fill="#FFF" mask="url(#D)"/></g><g transform="translate(27 3.477)"><mask id="F" fill="#fff"><use xlink:href="#E"/></mask><path d="M61.28 44.908l-.677-.226a4.085 4.085 0 0 1-2.584-5.168l6.856-20.563 8.428 2.811-6.855 20.562a4.085 4.085 0 0 1-5.168 2.584z" stroke="#000" stroke-width="1.5" mask="url(#F)"/></g><g transform="translate(27 3.477)"><mask id="H" fill="#fff"><use xlink:href="#G"/></mask><path d="M69.709 47.718l-.677-.226a4.085 4.085 0 0 1-2.584-5.168l6.856-20.562 8.428 2.81-6.855 20.563a4.084 4.084 0 0 1-5.168 2.583" fill="#44B573" mask="url(#H)"/></g><g transform="translate(27 3.477)"><mask id="J" fill="#fff"><use xlink:href="#I"/></mask><path d="M69.709 47.718l-.677-.226a4.085 4.085 0 0 1-2.584-5.168l6.856-20.562 8.428 2.81-6.855 20.563a4.084 4.084 0 0 1-5.168 2.583z" stroke="#000" stroke-width="1.5" mask="url(#J)"/></g></g><g><path d="M102.022 44.342l-73.56-24.523a.971.971 0 0 1-.523-1.422l8.713-13.581a.97.97 0 0 1 1.138-.419l66.025 22.012a.969.969 0 0 1 .658 1.017l-1.18 16.093a.969.969 0 0 1-1.27.823z" stroke="#000" stroke-width="1.5"/><path d="M29.528 28.086l-.6-.2a3.628 3.628 0 0 1-2.295-4.588l1.441-4.32 7.482 2.494-1.44 4.321a3.626 3.626 0 0 1-4.588 2.293" fill="#44B573"/><path d="M29.528 28.086l-.6-.2a3.628 3.628 0 0 1-2.295-4.588l1.441-4.32 7.482 2.494-1.44 4.321a3.626 3.626 0 0 1-4.588 2.293z" stroke="#000" stroke-width="1.5"/><path d="M38.044 30.926l-.708-.236a4.28 4.28 0 0 1-2.706-5.412l1.234-3.704 8.826 2.943-1.234 3.703a4.278 4.278 0 0 1-5.412 2.706" fill="#FFF"/><path d="M38.044 30.926l-.708-.236a4.28 4.28 0 0 1-2.706-5.412l1.234-3.704 8.826 2.943-1.234 3.703a4.278 4.278 0 0 1-5.412 2.706z" stroke="#000" stroke-width="1.5"/><path d="M46.59 33.775l-.667-.223a4.025 4.025 0 0 1-2.546-5.092l1.314-3.943 8.306 2.77-1.314 3.942a4.027 4.027 0 0 1-5.093 2.546" fill="#44B573"/><path d="M46.59 33.775l-.667-.223a4.025 4.025 0 0 1-2.546-5.092l1.314-3.943 8.306 2.77-1.314 3.942a4.027 4.027 0 0 1-5.093 2.546z" stroke="#000" stroke-width="1.5"/><path d="M54.895 36.544l-.667-.223a4.026 4.026 0 0 1-2.546-5.092l1.315-3.943 8.305 2.77-1.314 3.941a4.027 4.027 0 0 1-5.093 2.547" fill="#FFF"/><path d="M54.895 36.544l-.667-.223a4.026 4.026 0 0 1-2.546-5.092l1.315-3.943 8.305 2.77-1.314 3.941a4.027 4.027 0 0 1-5.093 2.547z" stroke="#000" stroke-width="1.5"/><path d="M63.202 39.313l-.667-.223a4.026 4.026 0 0 1-2.547-5.092l1.315-3.943 8.306 2.77-1.314 3.942a4.027 4.027 0 0 1-5.093 2.546" fill="#44B573"/><path d="M63.202 39.313l-.667-.223a4.026 4.026 0 0 1-2.547-5.092l1.315-3.943 8.306 2.77-1.314 3.942a4.027 4.027 0 0 1-5.093 2.546z" stroke="#000" stroke-width="1.5"/><path d="M71.508 42.082l-.667-.223a4.026 4.026 0 0 1-2.546-5.092l1.315-3.943 8.305 2.77-1.314 3.942a4.027 4.027 0 0 1-5.093 2.546" fill="#FFF"/><path d="M71.508 42.082l-.667-.223a4.026 4.026 0 0 1-2.546-5.092l1.315-3.943 8.305 2.77-1.314 3.942a4.027 4.027 0 0 1-5.093 2.546z" stroke="#000" stroke-width="1.5"/><path d="M79.814 44.85l-.667-.221a4.026 4.026 0 0 1-2.547-5.092l1.315-3.943 8.306 2.769-1.314 3.942a4.026 4.026 0 0 1-5.093 2.546" fill="#44B573"/><path d="M79.814 44.85l-.667-.221a4.026 4.026 0 0 1-2.547-5.092l1.315-3.943 8.306 2.769-1.314 3.942a4.026 4.026 0 0 1-5.093 2.546z" stroke="#000" stroke-width="1.5"/><path d="M88.12 47.62l-.667-.223a4.026 4.026 0 0 1-2.546-5.092l1.315-3.943 8.305 2.77-1.314 3.942a4.027 4.027 0 0 1-5.093 2.546" fill="#FFF"/><path d="M88.12 47.62l-.667-.223a4.026 4.026 0 0 1-2.546-5.092l1.315-3.943 8.305 2.77-1.314 3.942a4.027 4.027 0 0 1-5.093 2.546z" stroke="#000" stroke-width="1.5"/><path d="M96.427 50.39l-.667-.223a4.026 4.026 0 0 1-2.547-5.092l1.315-3.943 8.306 2.77-1.314 3.94a4.027 4.027 0 0 1-5.093 2.548" fill="#44B573"/><path d="M96.427 50.39l-.667-.223a4.026 4.026 0 0 1-2.547-5.092l1.315-3.943 8.306 2.77-1.314 3.94a4.027 4.027 0 0 1-5.093 2.548z" stroke="#000" stroke-width="1.5"/><path fill="#44B673" d="M58.776 85.205l-18.983-6.478 2.06-6.036 18.983 6.478z"/><path stroke="#211F1F" stroke-width="1.5" stroke-linecap="round" stroke-linejoin="round" d="M58.776 85.205l-18.983-6.478 2.06-6.036 18.983 6.478z"/><path stroke="#231F20" stroke-width="2" stroke-linecap="round" d="M35.925 101.737l5.624-16.87M40.439 106.477l5.625-16.87M47.683 105.657l5.625-16.871"/></g></g></svg>