<svg id="Layer_1" data-name="Layer 1" xmlns="http://www.w3.org/2000/svg" viewBox="0 0 200 150"><defs><style>.cls-1{fill:#b1d0e6}.cls-2,.cls-3,.cls-8{fill:#fff}.cls-2,.cls-8{stroke:#6691af;stroke-miterlimit:10}.cls-4{fill:#6691af}.cls-5{fill:#81ae9a}.cls-6{fill:#161542}.cls-7{fill:none}.cls-8{stroke-width:1.5px}</style></defs><g id="Layer_2" data-name="Layer 2"><g id="Layer_1-2" data-name="Layer 1-2"><circle class="cls-1" cx="100.17" cy="74.75" r="58.28"/><path class="cls-2" d="M156.27 43.58a2.72 2.72 0 0 1-.63-.08c-1.16-.29-11.73-3.19-25.47-16.2-11.3-10.71-12.09-14.58-11.51-16.75A3.34 3.34 0 0 1 121 8.16l.68-.16.67.23a66.74 66.74 0 0 1 35.85 30.05s1.42 2.56.11 4.29a2.55 2.55 0 0 1-2.04 1.01zm-31.65-29.37a65.54 65.54 0 0 0 8.82 9.64A74.39 74.39 0 0 0 151.86 37a62 62 0 0 0-27.24-22.79z"/><path class="cls-3" d="M150.25 19.27c-.2-1 .23-5-2.64-6.24-1.48-.62-1.78-2.67-2.07-4.24a20.42 20.42 0 0 1-.23-5l-.78.45-19.1 11.9a15.15 15.15 0 0 1-4.1 1.85l-32.4 9.14a10 10 0 0 0-5.67 4.21l-.16.18-9.57 7.62a8 8 0 0 0-2.66 8.58l1.37 4.48-.11.25a8.62 8.62 0 0 0 1.41 9.06l2.33 2.7v.29c-.13 4.1-.18 8.23-.21 11.36a16.79 16.79 0 0 0 .58 5.23c.32 1 .71 2 1.09 3v.13c.23.56.45 1.11.65 1.68.83 2.28 1.76 4.77 2.86 7.62a3.72 3.72 0 0 0 3.09 2.35 3.35 3.35 0 0 0 1.41-.15c4.51-1.49 5.75-9.09 3.59-22a14.87 14.87 0 0 1 .91-5.45l.11-.35.34-.13A26 26 0 0 0 97 64c1.92-1.67 2.63-6.91 2.73-11.26v-.11l-.12-.51.31-.28a19.62 19.62 0 0 1 4.67-3.84l.24-.13.27.07a2.57 2.57 0 0 1 1.58 1.48l1.63 4.81a4.4 4.4 0 0 1-.69 4.07c-3.53 4.6-10.54 18.93-8.11 25.84a6 6 0 0 0 4.42 4 1 1 0 0 0 .24 0c4.35-.13 5.84-4.46 7.29-8.65a26.36 26.36 0 0 1 2.65-6 47.76 47.76 0 0 1 3.57-4.8 40 40 0 0 0 3-3.87c.92-1.31 2.06-3.27 3.37-5.54 2.91-5 6.88-11.93 10.22-14 .76-.48 1.55-.92 2.34-1.36 2.77-1.53 5.56-3 8.18-4.28l4.21-2.06c.29-.14 1.9-1 3.46-1.88 1.74-1 3.37-1.85 3.7-2l.33-.14h.07a15 15 0 0 1 .54-1.88l.12-.31.71.25a4.81 4.81 0 0 0 .5-2.36 3.42 3.42 0 0 0-2.2-2.5c-1.07-.45-4.88-1.84-5.98-7.49z"/><path class="cls-4" d="M147.05 36.53l-2.05 1c-3.9 1.93-7.94 3.93-11.67 6.23s-7.67 9.13-10.84 14.62c-1.23 2.14-2.39 4.16-3.28 5.41a40.51 40.51 0 0 1-2.93 3.74 48.27 48.27 0 0 0-3.74 4.92 27.27 27.27 0 0 0-2.87 6.46c-1.48 4.29-2.67 7.09-5.33 7.39h-.29a4.1 4.1 0 0 1-2.85-2.73c-2.2-6.2 4.58-19.85 7.8-24.12a6.2 6.2 0 0 0 1-5.78l-1.63-4.81a4.45 4.45 0 0 0-2.47-2.53 2.58 2.58 0 0 0-2.14 0c-2.66 1.32-5.39 4.29-7.38 6.46a23.06 23.06 0 0 1-2.1 2.21c-2.66 2.2-7.8 14.91-7.2 19.06 2.75 16.38-.73 19.39-2.35 19.93a1.79 1.79 0 0 1-2.16-1.14c-1.08-2.78-2-5.26-2.85-7.58-.22-.63-.47-1.24-.72-1.86a27.75 27.75 0 0 1-1-2.82 15 15 0 0 1-.5-4.67c0-3.48.09-7.6.23-11.74a13.13 13.13 0 0 1 .74-4.77 31.6 31.6 0 0 1 2.08-4c.29-.52.59-1 .87-1.53a72.42 72.42 0 0 0 3.91-8.26 30.61 30.61 0 0 0 1.77-5.28q-.3.4-.57.84c-.79 1.28-1.56 2.61-2.3 3.93-.46.84-.93 1.66-1.4 2.48l-1.26 2.21c-2.64 4.77-4.57 8.2-4.82 8.92a11.41 11.41 0 0 0-.45 1.4l-.37 1.39-1-1.19a6.8 6.8 0 0 1-.89-7.6L84.4 33a8.16 8.16 0 0 1 5-4.05l32.43-9.18a17.19 17.19 0 0 0 4.61-2l18.93-11.84a20.37 20.37 0 0 1 0-2.21l-19.94 12.42a15.15 15.15 0 0 1-4.1 1.85l-32.4 9.14a10 10 0 0 0-5.67 4.21l-.16.18-9.57 7.62a8 8 0 0 0-2.66 8.58l1.37 4.48-.11.25a8.62 8.62 0 0 0 1.41 9.06l2.33 2.7v.29c-.13 4.1-.18 8.23-.21 11.36a16.79 16.79 0 0 0 .58 5.23c.32 1 .71 2 1.09 3v.13c.23.56.45 1.11.65 1.68.83 2.28 1.76 4.77 2.86 7.62a3.72 3.72 0 0 0 3.09 2.35 3.35 3.35 0 0 0 1.41-.15c4.51-1.49 5.75-9.09 3.59-22a14.87 14.87 0 0 1 .91-5.45l.11-.35.34-.13A26 26 0 0 0 97 64c1.92-1.67 2.63-6.91 2.73-11.26v-.11l-.12-.51.31-.28a19.62 19.62 0 0 1 4.67-3.84l.24-.13.27.07a2.57 2.57 0 0 1 1.58 1.48l1.63 4.81a4.4 4.4 0 0 1-.69 4.07c-3.53 4.6-10.54 18.93-8.11 25.84a6 6 0 0 0 4.42 4 1 1 0 0 0 .24 0c4.35-.13 5.84-4.46 7.29-8.65a26.36 26.36 0 0 1 2.65-6 47.76 47.76 0 0 1 3.57-4.8 40 40 0 0 0 3-3.87c.92-1.31 2.06-3.27 3.37-5.54 2.91-5 6.88-11.93 10.22-14 .76-.48 1.55-.92 2.34-1.36 2.77-1.53 5.56-3 8.18-4.28l4.21-2.06c.29-.14 1.9-1 3.46-1.88 1.74-1 3.37-1.85 3.7-2l.33-.14 1.33-.61c.14-.64-.07-.9.16-1.51l.23-.62c0-.08-4.77 2.31-6.85 3.42-1.86 1.02-3.43 1.88-4.31 2.29zm-72.37 4l6.27-5-7.51 14.3-.81-2.66a6.15 6.15 0 0 1 2.05-6.59zm23 15.58c-.23 2-.77 5.48-1.89 6.49a15.82 15.82 0 0 1-3.32 2.17l-1.81 1 .75-1.87c.57-1.44 2.56-6.22 4.07-7.47.23-.2.52-.47.89-.85L97.93 54z"/><path class="cls-5" d="M117.28 120.16l-39.45-15.64 2.5-26.44L120 91.33l-2.72 28.83z"/><path class="cls-6" d="M117.28 120.91a1.31 1.31 0 0 1-.28 0l-39.46-15.7a.74.74 0 0 1-.47-.76L79.57 78a.76.76 0 0 1 .84-.68h.16l39.69 13.28a.74.74 0 0 1 .51.79L118 120.23a.68.68 0 0 1-.35.57.7.7 0 0 1-.37.11zM78.62 104l38 15.07 2.58-27.25L80.93 79.1z"/><path class="cls-3" d="M101.5 139.24l-39.91-10.83 2.94-31.25L104.44 108l-2.94 31.24z"/><path class="cls-4" d="M101.49 140h-.2l-39.91-10.87a.79.79 0 0 1-.55-.79l3-31.24a.8.8 0 0 1 .32-.55.74.74 0 0 1 .63-.11l39.91 10.84a.73.73 0 0 1 .55.79l-3 31.24a.77.77 0 0 1-.32.55.76.76 0 0 1-.43.14zm-39.11-12.15l38.45 10.43 2.81-29.72-38.45-10.44z"/><path class="cls-3" d="M117.28 120.16l-15.78 19.08 3.61-38.24 14.59-8.33-2.42 27.49z"/><path class="cls-4" d="M101.49 140a.77.77 0 0 1-.75-.77l3.62-38.24a.77.77 0 0 1 .37-.58l14.6-8.41a.72.72 0 0 1 .77 0 .74.74 0 0 1 .35.7L118 120.21a.69.69 0 0 1-.17.41l-15.78 19.1a.76.76 0 0 1-.56.28zm4.32-38.53l-3.34 35.42 14.08-17L118.83 94z"/><path class="cls-6" d="M104.44 109.08a1.08 1.08 0 0 1-.76-1.84l15.25-15.33a1.07 1.07 0 0 1 1.52-.09 1.07 1.07 0 0 1 .1 1.51l-.09.09-15.25 15.29a1.08 1.08 0 0 1-.77.37z"/><path class="cls-7" d="M64.53 97.17l15.79-19.08"/><path class="cls-6" d="M64.53 98.25a1.08 1.08 0 0 1-.83-1.77L79.48 77.4a1.08 1.08 0 1 1 1.67 1.37L65.36 97.85a1.07 1.07 0 0 1-.83.4z"/><path class="cls-5" d="M122.66 101.43L75.44 77.74l-5.52-6.44 47.6 13.33 5.14 16.8z"/><path class="cls-6" d="M122.65 102.18a.76.76 0 0 1-.33-.08L75.1 78.41a.58.58 0 0 1-.23-.18l-5.53-6.44a.77.77 0 0 1 .09-1.06.73.73 0 0 1 .68-.15l47.6 13.33a.77.77 0 0 1 .52.5l5.14 16.8a.75.75 0 0 1-.72 1zm-46.72-25L121.42 100l-4.49-14.73-44.84-12.55z"/><path class="cls-3" d="M107 112.22L59.4 98.89 69.92 71.3l47.6 13.33L107 112.22z"/><path class="cls-4" d="M107 113a.67.67 0 0 1-.2 0L59.18 99.61a.74.74 0 0 1-.46-.39.7.7 0 0 1 0-.6L69.21 71a.73.73 0 0 1 .9-.45l47.6 13.33a.74.74 0 0 1 .54.9v.1l-10.52 27.57a.74.74 0 0 1-.73.55zM60.38 98.39l46.15 12.92 10-26.18-46.16-12.92z"/><path class="cls-3" d="M122.66 101.43l-15.91 16.34.19-6.11L118 84.58l4.66 16.85z"/><path class="cls-4" d="M106.74 118.52a.8.8 0 0 1-.3-.06.74.74 0 0 1-.45-.71l.19-6.11a.58.58 0 0 1 .06-.26L117.3 84.3a.77.77 0 0 1 1-.43.74.74 0 0 1 .44.5l4.65 16.85a.72.72 0 0 1-.18.72l-15.92 16.34a.68.68 0 0 1-.55.24zm.93-6.7l-.12 4 14.26-14.6-4-14.32z"/><path class="cls-3" d="M65.41 105.61l-1.69.74a3.42 3.42 0 0 1-3.79-1.06l-1.45-1.57c.28-3 .2-2.08.49-5.06 2.79.67 4.19 1 7 1.82-.31 3.01-.24 2.11-.56 5.13z"/><path class="cls-4" d="M62.6 107.33a4.44 4.44 0 0 1-3.25-1.54l-1.42-1.58a.75.75 0 0 1-.19-.57l.49-5.06a.72.72 0 0 1 .31-.54.74.74 0 0 1 .61-.12c2.82.68 4.23 1.06 7 1.83a.73.73 0 0 1 .55.8c-.16 1.52-.22 2-.28 2.59s-.13 1.06-.28 2.55a.76.76 0 0 1-.45.61L64 107a3.42 3.42 0 0 1-1.4.33zm-3.35-3.88l1.21 1.34a2.66 2.66 0 0 0 3 .87l1.29-.56c.12-1.18.18-1.66.24-2.13s.1-.9.21-2c-2.12-.58-3.45-.93-5.53-1.44z"/><path class="cls-3" d="M72.43 107.72l-1.7.71a3.49 3.49 0 0 1-3.87-1.13l-1.45-1.64c.32-3 .25-2.12.56-5.14 2.82.78 4.23 1.19 7 2-.28 3-.21 2.11-.54 5.2z"/><path class="cls-4" d="M69.64 109.35a4.53 4.53 0 0 1-3.35-1.63l-1.44-1.63a.81.81 0 0 1-.19-.58c.16-1.5.22-2 .29-2.56s.12-1.06.28-2.58a.75.75 0 0 1 .77-.67h.13c2.75.75 4.17 1.17 7 2a.75.75 0 0 1 .54.8l-.29 2.6c-.07.53-.13 1.06-.29 2.57a.72.72 0 0 1-.45.62L71 109a3.6 3.6 0 0 1-1.36.35zm-3.45-4l1.23 1.37a2.78 2.78 0 0 0 3 .94l1.3-.54c.12-1.2.18-1.68.24-2.16s.1-.91.22-2c-2.2-.65-3.55-1-5.57-1.6-.1.88-.14 1.29-.19 1.71s-.1 1.05-.23 2.29z"/><path class="cls-3" d="M79.47 109.77l-1.7.72a3.51 3.51 0 0 1-3.84-1.17l-1.5-1.6c.33-3 .26-2.15.58-5.18 2.81.83 4.22 1.26 7 2.11-.31 2.98-.23 2.07-.54 5.12z"/><path class="cls-4" d="M76.69 111.45a4.57 4.57 0 0 1-3.36-1.63l-1.46-1.66a.78.78 0 0 1-.18-.57c.16-1.53.22-2.06.29-2.6s.12-1.07.28-2.58a.77.77 0 0 1 .33-.54.74.74 0 0 1 .63-.1c2.73.81 4.13 1.24 6.75 2l.26.08a.74.74 0 0 1 .53.8c-.16 1.53-.22 2.06-.27 2.6s-.12 1.07-.28 2.57a.72.72 0 0 1-.45.61l-1.7.72a3.59 3.59 0 0 1-1.37.3zm-3.48-4l1.24 1.41a2.8 2.8 0 0 0 3 1l1.29-.54c.12-1.17.17-1.66.22-2.13s.1-.91.21-2c-2.12-.65-3.46-1.06-5.54-1.67-.09.86-.14 1.28-.19 1.7s-.09.93-.23 2.2z"/><path class="cls-3" d="M86.3 111.79c-.66.3-1 .44-1.67.73a3.45 3.45 0 0 1-3.84-1.13l-1.45-1.67c.31-3 .24-2.14.54-5.17l6.93 2.17c-.3 3-.22 2.06-.51 5.07z"/><path class="cls-4" d="M83.55 113.49a4.5 4.5 0 0 1-3.32-1.61l-1.4-1.59a1 1 0 0 1-.24-.63c.16-1.52.22-2.06.28-2.6s.11-1.06.27-2.57a.73.73 0 0 1 .33-.55.74.74 0 0 1 .63-.1l2 .6 5 1.51a.72.72 0 0 1 .53.79l-.5 5.13a.76.76 0 0 1-.45.61l-1.67.73a3.49 3.49 0 0 1-1.46.28zm-3.43-4l1.23 1.41a2.72 2.72 0 0 0 3 .94l1.27-.55.4-4.07-4.37-1.33-1.09-.33c-.09.85-.14 1.27-.18 1.68s-.13 1-.26 2.24z"/><path class="cls-3" d="M93.11 113.72l-1.62.75a3.29 3.29 0 0 1-3.76-1c-.57-.65-.86-1-1.43-1.63.29-3 .21-2.11.51-5.12 2.74.82 4.1 1.23 6.78 2-.28 2.92-.2 2-.48 5z"/><path class="cls-4" d="M90.37 115.46a4.31 4.31 0 0 1-3.2-1.55l-1.37-1.55a1.09 1.09 0 0 1-.25-.64l.51-5.13a.75.75 0 0 1 .79-.69.74.74 0 0 1 .21 0c2.74.82 4.1 1.23 6.77 2a.76.76 0 0 1 .55.79l-.48 5.06a.73.73 0 0 1-.43.6l-1.63.76a3.28 3.28 0 0 1-1.47.35zm-3.29-3.92l1.21 1.38a2.57 2.57 0 0 0 2.88.87l1.23-.57.38-4c-2-.58-3.31-1-5.32-1.56z"/><path class="cls-3" d="M99.93 115.85l-1.67.72a3.43 3.43 0 0 1-3.84-1.13l-1.49-1.65c.31-3 .24-2.14.55-5.17l7 2.1c-.34 3-.26 2.11-.55 5.13z"/><path class="cls-4" d="M97.17 117.55a4.55 4.55 0 0 1-3.32-1.61l-1.45-1.66a.78.78 0 0 1-.18-.57c.15-1.52.21-2.06.27-2.59s.12-1.07.28-2.58a.82.82 0 0 1 .33-.55.71.71 0 0 1 .63-.09l2 .61 4.9 1.49a.73.73 0 0 1 .53.79l-.51 5.13a.74.74 0 0 1-.44.62l-1.67.72a3.4 3.4 0 0 1-1.37.29zm-3.43-4L95 115a2.74 2.74 0 0 0 3 .94l1.26-.55.41-4.08-4.34-1.31-1.15-.35c-.08.86-.13 1.27-.18 1.68s-.13 1-.26 2.25z"/><path class="cls-3" d="M106.74 117.77l-1.62.76a3.29 3.29 0 0 1-3.76-1.06l-1.43-1.62c.29-3 .21-2.12.5-5.13 2.75.83 4.11 1.23 6.79 2-.29 3-.22 2.07-.48 5.05z"/><path class="cls-4" d="M104 119.52a4.38 4.38 0 0 1-3.21-1.55l-1.43-1.63a.83.83 0 0 1-.18-.57l.51-5.12a.77.77 0 0 1 .32-.55.73.73 0 0 1 .64-.1c2.74.83 4.1 1.23 6.77 2a.73.73 0 0 1 .54.79l-.48 5.06a.74.74 0 0 1-.42.61l-1.63.76a3.53 3.53 0 0 1-1.43.3zm-3.3-3.92l1.23 1.38a2.57 2.57 0 0 0 2.88.87l1.23-.58.38-4c-2-.57-3.31-1-5.32-1.56z"/><path class="cls-3" d="M65.98 100.47l-7.01-1.89L69.48 71l7.02 1.88-10.52 27.59z"/><path class="cls-4" d="M65.93 101.22h-.19l-7-1.89a.86.86 0 0 1-.48-.38.81.81 0 0 1 0-.61l10.52-27.62a.76.76 0 0 1 .9-.46l7 1.89a.7.7 0 0 1 .47.38.72.72 0 0 1 0 .61l-10.47 27.58a.76.76 0 0 1-.75.5zm-6-3.14l5.56 1.49 10-26.18-5.56-1.49z"/><path class="cls-3" d="M80.02 104.57L73 102.69 83.53 75.1l7 1.89-10.51 27.58z"/><path class="cls-4" d="M80 105.32a.61.61 0 0 1-.19 0l-7-1.89a.74.74 0 0 1-.47-.38.81.81 0 0 1 0-.61l10.48-27.61a.74.74 0 0 1 .89-.45l7 1.88a.74.74 0 0 1 .47.39.7.7 0 0 1 0 .6l-10.47 27.59a.72.72 0 0 1-.71.48zm-6-3.14l5.54 1.54 10-26.17-5.54-1.5z"/><path class="cls-3" d="M93.81 108.43l-7-1.88 10.52-27.59 7 1.89-10.52 27.58z"/><path class="cls-4" d="M93.81 109.18h-.19l-7-1.89a.74.74 0 0 1-.47-.38.81.81 0 0 1 0-.61l10.47-27.58a.75.75 0 0 1 .89-.46l7 1.89a.74.74 0 0 1 .47.39.7.7 0 0 1 0 .6l-10.47 27.58a.72.72 0 0 1-.7.46zm-6-3.14l5.56 1.49 10-26.18-5.56-1.49z"/><path class="cls-3" d="M107 112.22l-7.03-1.89 10.53-27.59 7.02 1.89L107 112.22z"/><path class="cls-4" d="M107 113a.67.67 0 0 1-.2 0l-7-1.89a.74.74 0 0 1-.47-.38.81.81 0 0 1 0-.61l10.47-27.61a.76.76 0 0 1 .9-.46l7 1.89a.71.71 0 0 1 .48.38.66.66 0 0 1 0 .61l-10.48 27.58a.74.74 0 0 1-.7.49zm-6-3.15l5.56 1.5 10-26.18-5.62-1.5z"/><path class="cls-3" d="M88.69 71.16c-1.27-.17-2.47-.66-3.72-.91a15.29 15.29 0 0 0-7.29.64c-.62.18-1.22.37-1.83.58l-.15.06v4.35a16.79 16.79 0 0 0 .58 5.23c.32 1 .71 2 1.09 3v.13c.23.56.45 1.11.65 1.68.83 2.28 1.76 4.77 2.86 7.62A3.7 3.7 0 0 0 84 95.87a3.35 3.35 0 0 0 1.41-.15c4.51-1.49 5.75-9.09 3.59-22a8.42 8.42 0 0 1 .18-2.55zM79.75 118.03l-9.97-2.36-1.37 14.5 9.98 2.36 1.36-14.5z"/><path class="cls-4" d="M78.38 133.28h-.17l-10-2.36a.76.76 0 0 1-.57-.8l1.36-14.5a.82.82 0 0 1 .3-.54.76.76 0 0 1 .62-.12l10 2.36a.77.77 0 0 1 .58.8l-1.37 14.5a.74.74 0 0 1-.75.68zm-9.17-3.69l8.5 2 1.23-13-8.5-2z"/><path class="cls-8" d="M57 65.05s-26.07-21.61-30-13 30 13 30 13zM59.41 61.53S50.93 38 45.22 42s14.19 19.53 14.19 19.53zM56 67.21s-24.3 6-20.91 12.11S56 67.21 56 67.21z"/><path class="cls-4" d="M79.59 85.72s2.27-1.15 4.07 1.9a27.26 27.26 0 0 1 2.64 6.1A5.43 5.43 0 0 1 83.21 95c-1 0-1.36-3.83-2.4-6.09-.81-1.72-1.3-1.61-1.22-3.19z"/><path class="cls-4" d="M83.2 96.08c-1.45 0-1.91-1.68-2.48-3.8a18.53 18.53 0 0 0-1-3 5.11 5.11 0 0 0-.62-1.09 3.63 3.63 0 0 1-.65-2.47 1.17 1.17 0 0 1 .62-1c1.12-.57 3.72-.82 5.58 2.33a28.87 28.87 0 0 1 2.76 6.35 1.13 1.13 0 0 1-.36 1.17 6.34 6.34 0 0 1-3.85 1.51zm-2.33-9.33c0 .09.11.18.19.3a9.56 9.56 0 0 1 .79 1.39 19.4 19.4 0 0 1 1.08 3.31c.19.68.4 1.34.65 2a4.12 4.12 0 0 0 1.35-.48 26.23 26.23 0 0 0-2.28-5 2.78 2.78 0 0 0-1.78-1.55z"/><path class="cls-2" d="M156.83 43.06a2.39 2.39 0 0 1-2.1-1.25 61.82 61.82 0 0 0-33.95-29.09 2.38 2.38 0 0 1 1.58-4.48 66.65 66.65 0 0 1 36.57 31.32 2.35 2.35 0 0 1-1 3.18 2.12 2.12 0 0 1-1.1.32z"/><path class="cls-4" d="M77.32 84.07v.13c.23.56.45 1.11.65 1.68.83 2.28 1.76 4.77 2.86 7.62a3.72 3.72 0 0 0 3.1 2.37 3.35 3.35 0 0 0 1.41-.15c4.51-1.49 5.75-9.09 3.59-22a14.4 14.4 0 0 1 .84-5.2A7.34 7.34 0 0 0 88 68a17.23 17.23 0 0 0-.92 6c2.75 16.38-.73 19.39-2.35 19.93a1.79 1.79 0 0 1-2.13-1.13c-1.08-2.78-2-5.26-2.85-7.58-.22-.63-.47-1.24-.72-1.86a27.75 27.75 0 0 1-1-2.82 15 15 0 0 1-.5-4.67c0-1.93 0-4.05.09-6.25l-.39.11c-.49.14-1 .3-1.46.48 0 2.06-.06 4-.08 5.64a16.79 16.79 0 0 0 .58 5.23 22.55 22.55 0 0 0 1.05 2.99z"/><ellipse class="cls-1" cx="95.6" cy="143.94" rx="24.89" ry="2.77"/></g></g></svg>