<svg data-name="Layer 1" xmlns="http://www.w3.org/2000/svg" viewBox="0 0 200 150"><circle cx="97.97" cy="74.31" r="58.28" fill="#b1d1e8"/><path d="M8.93 128.53h180.31v1.82a5.87 5.87 0 0 1-5.87 5.87H14.8a5.87 5.87 0 0 1-5.87-5.87v-1.82z" fill="#fff"/><path d="M183.37 137.05H14.8a6.71 6.71 0 0 1-6.7-6.7v-1.82a.83.83 0 0 1 .83-.83h180.31a.83.83 0 0 1 .83.83v1.82a6.71 6.71 0 0 1-6.7 6.7zm-173.61-7.7v1a5 5 0 0 0 5 5h168.61a5 5 0 0 0 5-5v-1z" fill="#6592b0"/><path d="M187.46 131.09H11.56a2.29 2.29 0 0 1-1.69-3.84L41.4 92.63h116.22l31.54 34.62a2.3 2.3 0 0 1-1.7 3.84z" fill="#fff"/><path d="M187.46 132.09H11.56a3.3 3.3 0 0 1-2.43-5.52L40.66 92a1 1 0 0 1 .74-.33h116.22a1 1 0 0 1 .74.33l31.54 34.61a3.3 3.3 0 0 1-2.44 5.52zM41.84 93.63l-31.23 34.29a1.29 1.29 0 0 0 1 2.17h175.9a1.29 1.29 0 0 0 1-2.17l-31.33-34.29z" fill="#6592b0"/><path fill="#fff" d="M139.84 78.75h17.73v20.72h-17.73z"/><path d="M157.57 100.22h-17.73a.75.75 0 0 1-.75-.75V78.75a.75.75 0 0 1 .75-.75h17.73a.74.74 0 0 1 .75.75v20.72a.74.74 0 0 1-.75.75zm-17-1.5h16.23V79.5h-16.21z" fill="#6592b0"/><path fill="#fff" d="M40.55 78.75h17.73v20.72H40.55z"/><path d="M58.28 100.22H40.55a.74.74 0 0 1-.75-.75V78.75a.74.74 0 0 1 .75-.75h17.73a.75.75 0 0 1 .75.75v20.72a.75.75 0 0 1-.75.75zm-17-1.5h16.25V79.5H41.3z" fill="#6592b0"/><path d="M49.63 90.52a6.92 6.92 0 0 0-6.93 6.92h13.85a6.92 6.92 0 0 0-6.92-6.92z" fill="#6592b0"/><circle cx="49.63" cy="87.32" r="3.73" fill="#6592b0"/><path fill="#fff" d="M24.6 91.42h22.48v26.28H24.6z"/><path d="M47.08 118.45H24.6a.74.74 0 0 1-.75-.75V91.42a.75.75 0 0 1 .75-.75h22.48a.76.76 0 0 1 .75.75v26.28a.75.75 0 0 1-.75.75zM25.35 117h21V92.17h-21z" fill="#6592b0"/><path fill="#fff" stroke="#7db2d3" stroke-miterlimit="10" d="M46.61 119.98H23.46l-6.84 6.84h24.86l5.13-6.84z"/><path fill="none" stroke="#7db2d3" stroke-miterlimit="10" d="M158.44 101.32H140.9l4.27 7.27h20.11l-6.84-7.27z"/><path d="M149 90.17a7.27 7.27 0 0 0-7.27 7.27h14.54a7.28 7.28 0 0 0-7.27-7.27z" fill="#6592b0"/><circle cx="148.99" cy="86.82" r="3.91" fill="#6592b0"/><path d="M158.44 101.38c-.73.14-1.46.23-2.19.32s-1.46.19-2.19.24c-1.46.1-2.93.26-4.39.29s-2.92.07-4.38.09-2.93 0-4.39-.1l.77-1.35c.68 1.23 1.25 2.52 1.88 3.78.32.63.6 1.28.87 1.93s.56 1.3.8 2h-.09l-4.31-7.24-.08-.14h17.7z" fill="#6592b0"/><path fill="#fff" d="M122.65 85.09h20.11v23.5h-20.11z"/><path d="M142.76 109.34h-20.11a.76.76 0 0 1-.75-.75v-23.5a.75.75 0 0 1 .75-.75h20.11a.75.75 0 0 1 .75.75v23.5a.76.76 0 0 1-.75.75zm-19.36-1.5H142v-22h-18.6z" fill="#6592b0"/><path fill="#fff" d="M55.09 85.09H75.2v23.5H55.09z"/><path d="M75.2 109.34H55.09a.76.76 0 0 1-.75-.75v-23.5a.75.75 0 0 1 .75-.75H75.2a.75.75 0 0 1 .75.75v23.5a.76.76 0 0 1-.75.75zm-19.36-1.5h18.61v-22H55.84z" fill="#6592b0"/><path fill="none" stroke="#7db2d3" stroke-miterlimit="10" d="M74.83 111.08H54.91l-5.13 6.62h22.48l2.57-6.62zM71.89 119.98h-22.3l-5.13 6.84h24.86l2.57-6.84zM143.53 111.08h-20.77l2.56 6.62h22.49l-4.28-6.62z"/><path fill="#fff" stroke="#7db2d3" stroke-miterlimit="10" d="M97.44 111.08H77.52l-1.71 6.62h21.63v-6.62zM97.17 119.98H75.73l-3.42 6.84h24.86v-6.84z"/><path fill="none" stroke="#7db2d3" stroke-miterlimit="10" d="M166.15 111.08h-19.06l3.41 6.62h22.49l-6.84-6.62zM148.58 119.98h-23.15l2.56 6.84h24.86l-4.27-6.84zM174.72 119.98h-23.16l4.28 6.84h24.86l-5.98-6.84z"/><path d="M41.43 126.78c.31-.66.65-1.29 1-1.91l1.08-1.87a95.9 95.9 0 0 1 2.28-3.62l.82 1.63c-1.93.11-3.86.19-5.79.2s-3.86 0-5.79-.06-3.86-.18-5.78-.34c-1-.09-1.93-.18-2.9-.32s-1.93-.24-2.89-.43v-.14h23.36l-.13.16-5.15 6.82zM72.2 117.68c.1-.6.23-1.18.37-1.76l.41-1.75c.31-1.15.64-2.29 1-3.42l.85 1.24c-1.66.1-3.32.18-5 .19s-3.32 0-5-.05-3.32-.16-5-.31-3.32-.38-5-.68V111H75v.13l-2.59 6.61zM69.26 126.79c.18-1.23.5-2.41.75-3.61s.61-2.37 1-3.54l.91 1.31c-.93.08-1.86.12-2.79.16s-1.86.07-2.79.08h-5.57L58 121l-2.78-.22q-2.79-.25-5.58-.76v-.14H72v.12l-2.59 6.82z" fill="#6592b0"/><path d="M143.53 111.14c-1.73.31-3.46.53-5.19.69s-3.46.25-5.19.31-3.47.07-5.2 0-3.46-.09-5.19-.2l.83-1.21c.36 1.13.69 2.27 1 3.42s.59 2.31.79 3.5h-.11l-2.6-6.61v-.12H143.58z" fill="none" stroke="#6592b0" stroke-miterlimit="10"/><path fill="#fff" stroke="#7db2d3" stroke-miterlimit="10" d="M97.72 101.32H80.18l-2.57 7.27h20.11v-7.27z"/><path d="M97.38 117.7c-.24-1.1-.34-2.21-.51-3.31s-.24-2.21-.31-3.31l.88.88c-1.66.12-3.32.2-5 .21s-3.32 0-5 0-3.32-.16-5-.31-3.32-.38-5-.69V111h20.1v6.71zM97.1 126.82c-.26-1.14-.37-2.28-.56-3.42s-.26-2.28-.33-3.42l1 1c-.9.08-1.79.13-2.68.16s-1.79.08-2.68.09h-5.36l-2.72-.23-2.68-.21a57.63 57.63 0 0 1-5.36-.77v-.14H97.27V126.82zM166.15 111.14c-.79.17-1.59.27-2.38.38s-1.59.21-2.38.29c-1.59.15-3.18.25-4.77.31s-3.18.09-4.77.06-3.17-.07-4.76-.16l.84-1.37c.49 1.14 1 2.29 1.42 3.45.23.59.42 1.19.63 1.78s.41 1.18.58 1.79l-.11.06-3.45-6.61-.07-.14h19.22zM132.72 98.13a8.31 8.31 0 0 0-8.31 8.31H141a8.31 8.31 0 0 0-8.28-8.31z" fill="#6592b0"/><circle cx="132.72" cy="94.3" r="4.47" fill="#6592b0"/><path d="M148.58 120.05c-1.93.35-3.86.59-5.79.77l-2.89.22-2.89.12c-1.93 0-3.86.07-5.79 0-1 0-1.93 0-2.9-.08s-1.93-.09-2.89-.17l.89-1.28c.36 1.16.67 2.34 1 3.53s.58 2.38.77 3.61h-.13l-2.62-6.77-.06-.14h23.3zM174.71 120.05c-1.92.34-3.85.58-5.78.76s-3.86.27-5.79.34-3.86.09-5.79 0-3.86-.1-5.79-.22l.85-1.52c.64 1.19 1.25 2.39 1.85 3.6s1.15 2.45 1.64 3.73l-.12.07-4.3-6.81-.1-.16h23.33z" fill="#6592b0"/><path fill="#fff" d="M100.15 97.76h24.86v29.06h-24.86z"/><path d="M125 127.57h-24.85a.76.76 0 0 1-.75-.75V97.76a.76.76 0 0 1 .75-.75H125a.76.76 0 0 1 .75.75v29.06a.76.76 0 0 1-.75.75zm-24.11-1.5h23.36V98.51H100.9zM97.66 108.59c-.14-.61-.23-1.21-.32-1.82s-.21-1.21-.26-1.82c-.15-1.21-.24-2.42-.32-3.63l1 1-2.19.1h-2.2c-1.46 0-2.92 0-4.38-.07s-2.99-.15-4.43-.35c-.73-.07-1.46-.16-2.19-.28s-1.46-.21-2.19-.38v-.12c5.84 0 11.69-.09 17.54 0h.1V108.59z" fill="#6592b0"/><path fill="#fff" stroke="#7db2d3" stroke-miterlimit="10" d="M97.72 94.46H82.29l-1.84 5.18h17.27v-5.18z"/><path d="M97.67 99.64c-.19-.87-.27-1.73-.41-2.59L97 94.46l.69.7c-1.29.1-2.57.15-3.86.16s-2.57 0-3.86 0l-1.92-.09-1.9-.23a36.12 36.12 0 0 1-3.86-.52v-.1c5.14 0 10.29-.07 15.43 0h.07v5.25zM35.65 105.75a9 9 0 0 0-9 9h18a9 9 0 0 0-9-9z" fill="#6592b0"/><circle cx="35.78" cy="101.6" r="4.85" fill="#6592b0"/><path d="M112.68 114.75a9.69 9.69 0 0 0-9.69 9.7h19.39a9.7 9.7 0 0 0-9.7-9.7z" fill="#6592b0"/><circle cx="112.68" cy="110.28" r="5.22" fill="#6592b0"/><path d="M64.86 98.83a7.61 7.61 0 0 0-7.61 7.61h15.23a7.62 7.62 0 0 0-7.62-7.61z" fill="#6592b0"/><circle cx="64.86" cy="95.31" r="4.1" fill="#6592b0"/><path d="M46.65 85.37s-1.51-.76-.69-1.14 2.82-.36 4.16-1c3.62-1.79 1.93-2.46 2.56-.38.56 1.85-.15 2.6-1.21 2.75s-4.86-.66-4.82-.23z" fill="#6592b0"/><path d="M151.15 33s22-3.08 19.61-8.79S151.15 33 151.15 33zM151.46 35.24s14.89 7 15.69 2.49-15.69-2.49-15.69-2.49z" fill="none" stroke="#6592b0" stroke-miterlimit="10"/><path d="M93.65 87.61S110.44 73 105.27 69.53 93.65 87.61 93.65 87.61zM95.16 89.35s16.3-2.25 14.5-6.48-14.5 6.48-14.5 6.48zM85.76 90.68s-2.25-16.3-6.48-14.5 6.48 14.5 6.48 14.5z" fill="#fff" stroke="#6592b0" stroke-miterlimit="10"/><path d="M150.42 31s8.51-14.08 4.09-15.34S150.42 31 150.42 31z" fill="none" stroke="#6592b0" stroke-miterlimit="10"/><path d="M133 88.14a2.21 2.21 0 0 0-.74-.2 4.77 4.77 0 0 0-4.48 5v4.82h5.05z" fill="#6592b0"/><path d="M132.82 88.09a1.35 1.35 0 0 1 .58-.15 4.76 4.76 0 0 1 4.47 5v4.82h-5.05zM69.13 93.93a4.32 4.32 0 0 0-8.54 0z" fill="#6592b0"/><rect x="60.35" y="92.73" width="8.98" height="2.25" rx=".57" fill="#6592b0"/><path d="M42.41 100.62c-.53 3.69-3 4.31-6.63 4.31s-6.36-.51-6.63-4.31 3-6.63 6.63-6.63 7.14 3.01 6.63 6.63z" fill="#6592b0"/><path d="M89 82.84a.18.18 0 0 1-.16-.09.19.19 0 0 1 .07-.24l.34-.19a.16.16 0 0 1 .23.07.16.16 0 0 1-.06.23l-.34.19z" fill="#d3e8d0"/><path d="M89.79 91.3a1 1 0 0 1-1-1V65.15A12.37 12.37 0 0 0 83.55 55c-4.07-2.76-12.4-4.69-28.93 1.86-12.07 4.77-16.51 2.12-18.11-1-4.19-8 7.44-25.55 24.39-36.76 27.73-18.36 65.84-8.89 77.35 2.38a1 1 0 0 1-1.46 1.52c-6-5.92-18.6-10.52-32-11.73-16-1.44-31.22 2-42.75 9.6C45 32.16 35.12 48.74 38.35 54.93c1.7 3.27 7.21 3.26 15.51 0 9.59-3.79 22.72-7.16 30.86-1.63a14.28 14.28 0 0 1 6.11 11.88v25.08a1 1 0 0 1-1.04 1.04z" fill="#6691af"/><path fill="#fff" d="M108.43 25.92l36.824-5.135 6.002 43.033-36.824 5.136z"/><path d="M114.43 69.7a.77.77 0 0 1-.75-.65l-6-43a.75.75 0 0 1 .15-.56.74.74 0 0 1 .49-.29l36.82-5.2a.76.76 0 0 1 .85.64l6 43a.76.76 0 0 1-.64.84l-36.82 5.14zm-5.16-43.15l5.8 41.55 35.33-4.93-5.8-41.55z" fill="#6592b0"/><path d="M138.16 39.13c.72 5.32-3 8.28-8.12 9s-9.81-1.14-10.53-6.46a9.57 9.57 0 0 1 8-10.89l.7-.07a9.6 9.6 0 0 1 9.95 8.42z" fill="#6592b0"/><path d="M128.05 31.93c1.49-8.88-14.66-2-13.54 5.09.78 4.85 7.23 11.33 5.57 12s-1.77.73-3.82 0c0 0 .63 4.7 4.18 4.28 12.89-1.4-6.88-20.89 7.61-21.37z" fill="#6592b0"/><path d="M130.19 48.76a14.87 14.87 0 0 0-12.48 16.93l29-3.92a14.88 14.88 0 0 0-16.52-13.01z" fill="#6592b0"/><ellipse cx="129.25" cy="41.85" rx="7.88" ry="8.14" transform="rotate(-8.1 132.588 44.353)" fill="#6592b0"/><path d="M124.61 32.25a3.26 3.26 0 0 1 3.63-1.56" fill="#fff"/><path d="M124.61 33a.7.7 0 0 1-.31-.07.74.74 0 0 1-.36-1 4 4 0 0 1 4.41-2 .74.74 0 0 1-.22 1.47 2.53 2.53 0 0 0-2.84 1.12.75.75 0 0 1-.68.48z" fill="#6592b0"/><rect x="122.29" y="33.53" width="11.17" height="5.76" rx="1.16" transform="rotate(-15.01 127.872 36.422)" fill="#6592b0"/></svg>