<svg id="Layer_1" data-name="Layer 1" xmlns="http://www.w3.org/2000/svg" viewBox="0 0 200 150"><defs><style>.cls-1{fill:#b1d1e8}.cls-2,.cls-5,.cls-7{fill:#fff}.cls-3{fill:#6691af}.cls-10,.cls-4,.cls-8{fill:none}.cls-4{stroke:#171443}.cls-10,.cls-4,.cls-5,.cls-6,.cls-7{stroke-linecap:round;stroke-linejoin:round}.cls-10,.cls-4,.cls-5,.cls-6,.cls-8{stroke-width:1.5px}.cls-10,.cls-5,.cls-6,.cls-7,.cls-8{stroke:#6691af}.cls-6,.cls-9{fill:#f0f3f3}.cls-7{stroke-width:1.57px}.cls-8{stroke-miterlimit:10}.cls-11{fill:#b2d1e6}</style></defs><circle class="cls-1" cx="99.81" cy="74.69" r="58.28"/><path class="cls-2" d="M21.34 130.63c-.69 0-.89-.3-1-.55a.8.8 0 0 1 .09-.76c1-1.62 6.32-2.66 9.73-3.12-2.29 1.62-6.6 4.43-8.83 4.43z"/><path class="cls-3" d="M28.07 127c-2.37 1.53-5.19 3.1-6.73 3.1-.44 0-.48-.13-.52-.23a.3.3 0 0 1 0-.31c.67-1.06 3.91-2 7.21-2.56m3.97-1.52s-13.44 1.24-12.13 4.77a1.4 1.4 0 0 0 1.46.88c3.32 0 10.67-5.65 10.67-5.65z"/><path class="cls-2" d="M28.94 123.69c-3.17 0-5.39-.4-5.91-1.06a.41.41 0 0 1-.09-.38c0-.13.1-.46 1-.46 1.59 0 4.23 1.08 6 1.88z"/><path class="cls-3" d="M23.92 122.29a11.14 11.14 0 0 1 3.45.86c-2.69-.13-3.71-.57-3.93-.8a1.48 1.48 0 0 1 .48-.06m0-1c-.77 0-1.33.23-1.47.85-.39 1.73 3.58 2 6.49 2 1.64 0 2.94-.1 2.94-.1s-5.29-2.8-8-2.8z"/><path class="cls-2" d="M29.8 135.41h-.16a.47.47 0 0 1-.31-.32c-.38-1.12 1.05-4.11 2.46-6.49-.28 3.57-1.05 6.84-2 6.84z"/><path class="cls-3" d="M31 131c-.33 2.11-.8 3.59-1.21 3.87-.18-.39.21-1.87 1.21-3.87m1.38-4.34s-5.55 8.28-2.91 9.17a1 1 0 0 0 .32.06c2.34 0 2.59-9.23 2.59-9.23z"/><path class="cls-4" d="M160.47 52.7l2.37-.88M158.45 51.41l2.02 1.3"/><path class="cls-5" d="M144.47 122.39l31.61-5.64v2.82l-31.61 5.69v-2.87zM140.81 121.52l31.61-5.64 3.66.64-31.61 5.68-3.66-.68z"/><path class="cls-5" d="M140.81 124.32l3.66.94v-2.87l-3.66-.87v2.8zM161.22 52.34v66.22s-1 1.56-3.5 0v-68.5zM80.9 89.05l31.61-5.64v2.82L80.9 91.91v-2.86zM77.24 88.18l31.61-5.65 3.66.64-31.61 5.69-3.66-.68zM77.24 90.98l3.66.93v-2.86l-3.66-.87v2.8z"/><path class="cls-5" d="M97.65 19v66.21s-1 1.57-3.5 0V16.72z"/><ellipse class="cls-5" cx="92.74" cy="12.63" rx="2.39" ry="2.08" transform="rotate(-66.48 92.749 12.625)"/><path class="cls-5" d="M91.47 14.71l72.84 41.8 2.29-4.21-72.84-41.81"/><ellipse class="cls-5" cx="165.65" cy="54.49" rx="2.39" ry="2.08" transform="rotate(-66.48 165.66 54.487)"/><path class="cls-6" d="M72.96 112.92l-1.54-15.36 13.97 14.04 2.95 14.75-15.38-13.43z"/><path class="cls-5" d="M21.39 108.51s3.27 3.75 5 6a61.83 61.83 0 0 0 8.23 8.74L52.55 95 38.63 81z"/><path class="cls-6" d="M71.42 97.56L38.59 80.93l13.96 14.04 32.84 16.63-13.97-14.04z"/><path class="cls-6" d="M36.84 64.41l1.75 16.52 13.96 14.04-2.25-17.59-13.46-12.97z"/><path class="cls-2" d="M108.73 40.22c-2.79-2.15-7-5.81-7.06-7.73a.78.78 0 0 1 .32-.67.84.84 0 0 1 .51-.18c1.72 0 4.5 4.73 6.23 8.58z"/><path class="cls-3" d="M102.5 32.14c.9 0 2.87 2.45 4.86 6.38-3.53-2.93-5.17-5.2-5.19-6a.29.29 0 0 1 .13-.27.34.34 0 0 1 .2-.07m0-1a1.31 1.31 0 0 0-.81.28c-3 2.33 8.25 10.32 8.25 10.32s-4.38-10.6-7.44-10.6z"/><path class="cls-2" d="M113.17 39.86c1.66-2.37 3.9-5 5.06-5a.46.46 0 0 1 .35.16.52.52 0 0 1 .11.45c-.25 1.15-3.06 3.04-5.52 4.39z"/><path class="cls-3" d="M118.2 35.33c0 .52-1.3 1.63-3.11 2.81 1.33-1.65 2.54-2.78 3.11-2.81m0-1c-2.25 0-6.54 6.86-6.54 6.86s9.11-4.39 7.26-6.52a.9.9 0 0 0-.72-.34z"/><path class="cls-2" d="M103.25 43.2c-1.34 0-1.8-.27-2-.43a.46.46 0 0 1-.12-.33c0-.62 1.09-.75 2-.75a25.3 25.3 0 0 1 5.25.79 26.41 26.41 0 0 1-5.16.72z"/><path class="cls-3" d="M103.16 42.19a16.56 16.56 0 0 1 2.7.27 17.71 17.71 0 0 1-2.61.24 3 3 0 0 1-1.57-.26 2.67 2.67 0 0 1 1.48-.25m0-1c-1.41 0-2.46.31-2.49 1.23s1.1 1.28 2.58 1.28a34.13 34.13 0 0 0 7.19-1.2 32.78 32.78 0 0 0-7.28-1.31z"/><ellipse class="cls-7" cx="133.73" cy="64.16" rx="5.87" ry="9.73" transform="rotate(-44.89 133.738 64.158)"/><path class="cls-2" d="M141.96 43.67l5.04 2.8.57-5.2-5.39-3-.22 5.4z"/><path class="cls-8" d="M140.67 37.42l9.28 5.32M139.68 42.37l9.27 5.32"/><path class="cls-3" d="M59 100a64.17 64.17 0 0 0 11.13-.55 90.07 90.07 0 0 0 11-2.14 95 95 0 0 0 10.67-3.49A91.43 91.43 0 0 0 102 89.1a108 108 0 0 0 34-29c4.53-6 9.29-12 11.16-19.16a19 19 0 0 0-.06-10.7 16.33 16.33 0 0 0-6.4-8.43 21.61 21.61 0 0 0-10.17-3.67 20.06 20.06 0 0 0-10.63 1.71 15.8 15.8 0 0 0-4.39 3.1 15.61 15.61 0 0 0-3 4.45 27.67 27.67 0 0 0-1.81 10.81.29.29 0 0 1-.3.29.3.3 0 0 1-.29-.23 18.88 18.88 0 0 1 1-11.5 16.54 16.54 0 0 1 3.29-4.94 17 17 0 0 1 4.83-3.46 21.85 21.85 0 0 1 11.51-1.92 23.26 23.26 0 0 1 11 3.92 18.11 18.11 0 0 1 7.12 9.31 20.78 20.78 0 0 1 .14 11.75A38 38 0 0 1 144.22 52c-2.1 3.22-4.3 6.31-6.66 9.32A109.37 109.37 0 0 1 103 91a91 91 0 0 1-10.43 4.8 97.22 97.22 0 0 1-10.92 3.54 90.15 90.15 0 0 1-11.28 2.17 66.09 66.09 0 0 1-11.57.49 1 1 0 0 1 .1-2z"/><path class="cls-2" d="M144.06 44.88l5.04 2.79.58-5.2-5.4-3-.22 5.41z"/><path class="cls-8" d="M142.77 38.62l9.27 5.32M141.78 43.57l9.27 5.33"/><path class="cls-5" d="M116.37 64.05c-.64-.11-13.72-2.13-13.72-2.13s-2.94-3.09-1.41-8.69 3.6-5.55 3.6-5.55l19.38 4.74s-3.97 12.32-7.85 11.63zM128.91 81.58c0 .63-.81 13.51-.81 13.51s2.47 3.49 8.41 3.32 6.33-2.14 6.33-2.14l2.77-20.74s-16.56 2.2-16.7 6.05z"/><path class="cls-5" d="M145.35 74.92a1.46 1.46 0 0 1-.09 1.7c-15.19 23.6-37.73 21.33-38.82 21.31s-3.19-1.63-4.58-2.77a135 135 0 0 1-17.11-18s-3.51-3.71-2.91-5.56c1.8-1.73 19 2.8 41.34-19.09a1 1 0 0 1 1.37-.06l3.51 3.42.52.52-2.66 2.61 3.93 10.24 9.6 2.55 1.86-2z"/><path class="cls-9" d="M89 70.33c0 .1-7.25.63-7 1.79.51 2.56 7.14 10 9.21 12.16 9.06 9.21 14.39 13.18 14.68 13.19l6-.18c-4.13-10.12-6.25-17.33-4-25.35 1.14-4.11 9.11-11.78 16.89-18.55-.26-.26-.45-.47-.6-.59a2.11 2.11 0 0 0-.63.17S109.6 68.58 89 70.33z"/><path class="cls-10" d="M145.35 74.92a1.46 1.46 0 0 1-.09 1.7c-15.19 23.6-37.73 21.33-38.82 21.31s-3.19-1.63-4.58-2.77a135 135 0 0 1-17.11-18s-3.51-3.71-2.91-5.56c1.8-1.73 19 2.8 41.34-19.09a1 1 0 0 1 1.37-.06l3.51 3.42.52.52-2.66 2.61 3.93 10.24 9.6 2.55 1.86-2z"/><path class="cls-5" d="M128.7 56.81a10.24 10.24 0 0 0 2.84 10c2.83 2.88 6.68 3.9 9.77 2.92l-2.24 2.48c-3.09 1-6.94 0-9.77-2.92s-4.37-7.15-3.38-10.3zM67.46 139.87l-32.83-16.63 17.92-28.27 32.84 16.63-9.88 14.54-8.05 13.73z"/><path class="cls-11" d="M65.08 135.03l-9.82-4.99 1.35-2.15 9.83 4.99-1.36 2.15zM67.07 132.17l-9.83-5 1.35-2.14 9.83 4.99-1.35 2.15z"/></svg>