<svg id="Layer_1" data-name="Layer 1" xmlns="http://www.w3.org/2000/svg" viewBox="0 0 200 150"><defs><style>.cls-1{fill:#b1d1e8}.cls-2,.cls-3{fill:#fff}.cls-2,.cls-4,.cls-5,.cls-7,.cls-8{stroke:#6691af;stroke-linecap:round;stroke-width:1.5px}.cls-2,.cls-4,.cls-5,.cls-8{stroke-linejoin:round}.cls-4{fill:#6691af}.cls-5,.cls-7{fill:none}.cls-6,.cls-8{fill:#f0f3f3}.cls-7{stroke-miterlimit:10}.cls-9{fill:#b1d1e6}</style></defs><circle class="cls-1" cx="98.08" cy="76.07" r="58.28"/><path class="cls-2" d="M90.24 40.33a25.28 25.28 0 0 1 6.17.88c1.75.52 5.25 2 7 1s1.54-2.87-1.2-4.17-10.11-2.7-10.11-2.7z"/><path class="cls-2" transform="rotate(16.69 113.29 41.217)" d="M91.3 39.69h43.91v3.04H91.3z"/><path class="cls-3" d="M72.07 17.28l9.23 1.97 8.31.5 5.83 6.04 13.34 10 3.1 1.13-3.27 2.13-15.04-6.1.27 2.84-3.43 4.13-15.58-3.51-2.76-19.13z"/><path class="cls-4" d="M70.84 13.12s.59 12.25-7.63 20.23l-4-2.08 8-19.27z"/><path class="cls-5" d="M86.64 38s3.73 4 6.44-.63-5.48-9.81-5.48-9.81 6.11 5.5 9.52 6.46"/><path class="cls-2" d="M84.73 32.46s7.41 5.08 4.73 9.17-7.25.58-7.25.58"/><path class="cls-2" d="M82.56 37.07s4.68 5.14 2.34 7.77-6.37 2.45-9.9-1.28-5-5.77-3.92-7.77"/><path class="cls-2" d="M79.94 41.63A22.1 22.1 0 0 1 67 29.54a46.49 46.49 0 0 1-5.89-1.95c-3.3-1.32 5.33-14.37 5.33-14.37s3.76 3.77 6.65 4.17"/><path class="cls-6" d="M65.13 28.09s1.45-5.9 8.58-9.63a19.61 19.61 0 0 1-5.08-2.26S65.05 22.08 64 27.72z"/><path class="cls-7" d="M68.87 15.55a32.58 32.58 0 0 0 14.24 3.61c8.38.32 9.06 1.55 12.55 6.28s11.59 9.39 14.26 10.23c2.27.7 2.41 1.24 2.32 1.65-.16.79-.36 1.74-3.67 1.33-2.49-.31-8.16-1.25-12.42-5.72"/><path class="cls-4" d="M36.72 18.69s2.68 2.64 25.54 14.15c0 0 .86-11.2 7.46-19.78.54-.71-8-1-15.58-10.84a9.42 9.42 0 0 0-4.43 3.83c-.91 1.83-.48 2.87-.19 3.35s1.95 3.17-2 5.25a74.93 74.93 0 0 1-10.8 4.04z"/><path class="cls-2" d="M140.52 42.68s7.51-4.66 8.17-4.3-1.56 9.11-1.56 9.11 6.84 5.65 6.62 6.45-9.14 1.33-9.14 1.33-3.35 8.28-4.09 8.28-4.09-8.28-4.09-8.28-8.86-.55-9.15-1.33 6.62-6.45 6.62-6.45-2.17-8.64-1.56-9.11 8.18 4.3 8.18 4.3zM151.81 34.21s6.61-23.57 12.47-20.07-12.47 20.07-12.47 20.07zM147.36 34.53s-5.45-17.25-.4-17.46.4 17.46.4 17.46zM153.82 37.29s16.6-7.19 17.32-2.19-17.32 2.19-17.32 2.19zM53.85 88.82s-31 .82-30.16 6.67 30.16-6.67 30.16-6.67zM56.05 91.74s-18.4 9.8-16.13 13.06 16.13-13.06 16.13-13.06zM56.48 85.74s-22.06-8.48-20-12.46 20 12.46 20 12.46z"/><path class="cls-8" d="M139.31 144.44H56.85a2.45 2.45 0 0 1-2.35-2.55V121h87.16v20.87a2.45 2.45 0 0 1-2.35 2.57z"/><path class="cls-2" d="M142.63 137.92h-89.1a2.54 2.54 0 0 1-2.53-2.54V114.5h94.18v20.88a2.54 2.54 0 0 1-2.55 2.54z"/><path class="cls-8" d="M142.63 117.05h-89.1A2.55 2.55 0 0 1 51 114.5l7.95-9.42h77.21l9 9.42a2.55 2.55 0 0 1-2.53 2.55z"/><rect class="cls-2" x="63.27" y="60.97" width="69.62" height="50.38" rx="3.1"/><path class="cls-6" d="M67.74 66.66h22.24v39.42H67.74z"/><rect class="cls-9" x="93.47" y="96.75" width="30.94" height="5.43" rx=".73"/><path class="cls-5" d="M67.72 66.66h60.66v39.42H67.72z"/><path class="cls-2" d="M114.71 117.05v20.87"/></svg>