<svg data-name="Layer 1" xmlns="http://www.w3.org/2000/svg" viewBox="0 0 200 150"><circle cx="99.81" cy="74.69" r="58.28" fill="#d3ead1"/><path fill="#171442" d="M126.07 110.86l-67.03-5.46-34.91 19.99 64.81 7.47 37.13-22z"/><path fill="#171442" d="M126.05 111.39l-66.51-5.44-37.02 19.89.39 2.67 64.82 7.47 38.71-21.92-.39-2.67z"/><path fill="#171442" d="M23.45 125.9l63.35 7.38 37.05-20.41"/><path d="M86.8 133.48l-63.37-7.38a.19.19 0 0 1-.17-.22.21.21 0 0 1 .22-.18l63.28 7.38 37-20.39a.21.21 0 0 1 .27.08.2.2 0 0 1-.08.27l-37 20.41a.19.19 0 0 1-.15.03z" fill="#b2d1e8"/><path d="M123.91 111.81l-66.51-5.43-5.09-49a2.31 2.31 0 0 1 2.43-2.55l63.63 3.66a3.22 3.22 0 0 1 3 3z" fill="#171442"/><path fill="#fff" d="M119.66 107.89l-58.65-5.04-4.74-44.22 61 3.5 2.39 45.76z"/><path d="M120.06 108.3l-59.39-5.1-4.82-45 61.78 3.55zm-58.71-5.8l57.91 5-2.35-45L56.7 59z" fill="#161441"/><path d="M118.61 58.55l3.25.16a1.69 1.69 0 0 1 1.6 1.58l2.54 50.92-2 .69z" fill="#171442"/><path d="M59.73 61.92c17.9 1 35.79 2.27 53.7 3.28.82 13 1.5 25.93 2.51 38.87-17.38-1.13-34.72-2.86-52.11-4-1.3-12.71-2.83-25.42-4.1-38.15z" fill="#fff" stroke="#171442" stroke-linecap="round" stroke-linejoin="round" stroke-width=".682"/><path d="M91 69.48c7.54.54 11.3.81 19.15 1.26M91.33 73.93c7.49.57 11.23.86 19.07 1.31M91.69 78.52c7.46.59 11.17.9 19 1.37M92.06 83.19c7.41.61 11.1.93 18.91 1.42M92.44 87.86c7.37.64 11 1 18.83 1.46M92.82 92.48c7.33.66 11 1 18.75 1.48" fill="none" stroke="#bdcace" stroke-linecap="round" stroke-linejoin="round" stroke-width="1.588"/><path d="M90.1 101.77c-10.1-.91-15-1.43-26-2-1.28-12.48-2.75-24.94-4-37.42 11.08.56 16.27.94 26.83 1.65q1.49 18.89 3.17 37.77z" fill="#d3ead1"/><path d="M67.62 70.15c-4.82.62-4 8.51-4 8.51s-.53 0 1.64.41a14.72 14.72 0 0 0 4 .26c-.4-3.74-.6-5.61-1-9.17zM81.21 71.08c4.86 1.28 5.5 9.27 5.5 9.27s.5.05-1.5.2a13.34 13.34 0 0 1-3.81-.31c-.35-3.77-.53-5.65-.86-9.24z" fill="#b2d1e8" stroke="#171442" stroke-linecap="round" stroke-linejoin="round" stroke-width=".594"/><path d="M81.62 71.66a1 1 0 0 0-.61-.85 15.53 15.53 0 0 0-3-.7A3.07 3.07 0 0 1 74.78 72a4.67 4.67 0 0 1-3.63-2.32 14.59 14.59 0 0 0-3 .3.68.68 0 0 0-.48.77c.67 8.15 1.09 12.76 1.8 21.13 0 0 .19 1.38 7.62 2 7.09.58 7-.81 7-.81-1.01-8.46-1.54-13.15-2.47-21.41z" fill="#fff" stroke="#171443" stroke-linecap="round" stroke-linejoin="round" stroke-width=".541"/><path fill="#28295c" d="M114.25 114.25l-56.48-4.83L30.66 124l55.93 6.29 27.66-16.04z"/><path d="M123.91 112l-66.5-5.43a.22.22 0 0 1-.19-.22.2.2 0 0 1 .22-.18l66.28 5.41L121 59.75a.21.21 0 0 1 .19-.21.2.2 0 0 1 .2.19l2.7 52.07a.15.15 0 0 1-.06.15.16.16 0 0 1-.12.05z" fill="#b2d1e8"/><path d="M130.91 42.43a16.19 16.19 0 0 1 3.17-4.13 10.35 10.35 0 0 1 4.67-2.59 9.23 9.23 0 0 1 5.49.5 15.94 15.94 0 0 1 4.6 2.95l-.09-.08a28.19 28.19 0 0 1 2.46 2.06c.77.72 1.52 1.45 2.23 2.23a28.78 28.78 0 0 1 2 2.44c.62.84 1.23 1.69 1.81 2.56a61.59 61.59 0 0 1 5.86 11 68.29 68.29 0 0 1 3.6 11.93 77.71 77.71 0 0 1 1.48 12.34c.06 1 .06 2.07.07 3.11s0 2.08-.06 3.13a45.21 45.21 0 0 1-.77 6.25 50.19 50.19 0 0 1-3.92 11.9 52.46 52.46 0 0 1-15.58 19.38 42 42 0 0 1-11 6.07 33.3 33.3 0 0 1-12.48 2.09 30.75 30.75 0 0 1-12.32-3 37.51 37.51 0 0 1-10.25-7.36l-1.11-1.12-1-1.16-2-2.3c-1.34-1.53-2.69-3-4.07-4.52s-2.77-2.93-4.24-4.27c-.74-.66-1.5-1.29-2.23-1.92a22.81 22.81 0 0 0-2.3-1.71 10.44 10.44 0 0 0-2.61-1.21 8.76 8.76 0 0 0-2.72-.34 10.46 10.46 0 0 0-5.36 1.7c-1.65 1-2.57 2.45-3.84 4s-3.39 5.42-3.81 5.12c-.74-.33 1.61-3.77 2.73-5.51a18.9 18.9 0 0 1 4.19-4.66 11.84 11.84 0 0 1 6-2.51 10.89 10.89 0 0 1 3.36.13 12.48 12.48 0 0 1 3.13 1.19 20.26 20.26 0 0 1 2.76 1.71 23.89 23.89 0 0 1 2.41 2c1.53 1.44 3 2.92 4.37 4.43s2.76 3 4.12 4.57l2 2.29 1 1.11 1 1.06a35.17 35.17 0 0 0 9.53 6.84 28.08 28.08 0 0 0 11.26 2.76A30.6 30.6 0 0 0 136 131a40 40 0 0 0 10.33-5.7c12.59-9.62 20.43-25.58 19.21-41.55a75.63 75.63 0 0 0-1.43-11.92 66.1 66.1 0 0 0-3.46-11.46A58.78 58.78 0 0 0 155 49.85c-.56-.83-1.14-1.64-1.75-2.42l-1.87-2.32c-.62-.77-1.25-1.53-1.91-2.27s-1.37-1.46-2.05-2.07l-.09-.07a14.23 14.23 0 0 0-3.8-3 7.92 7.92 0 0 0-4.6-.89 9.77 9.77 0 0 0-4.5 1.92 15.48 15.48 0 0 0-3.52 3.7z" fill="#41af4a"/><ellipse cx="130.79" cy="18.86" rx="6.78" ry="11.19" transform="rotate(-81.01 130.784 18.86)" fill="#171442"/><path d="M132.58 26.57a19.12 19.12 0 0 1-2.79-.21c-6.63-1-11.39-5.05-10.84-9.25a5.68 5.68 0 0 1 2.36-3.77c2.46-1.85 6.38-2.59 10.48-2 6.64 1 11.4 5 10.85 9.25a5.64 5.64 0 0 1-2.37 3.77 12.87 12.87 0 0 1-7.69 2.21zM129 12.72a11.49 11.49 0 0 0-6.78 1.87 4.15 4.15 0 0 0-1.75 2.73c-.43 3.23 3.93 6.66 9.51 7.49 3.64.54 7.21-.11 9.31-1.69a4.11 4.11 0 0 0 1.75-2.72c.43-3.23-3.93-6.66-9.52-7.49a16.64 16.64 0 0 0-2.52-.19zm-9.31 4.49z" fill="#171442"/><path d="M152.34 22.21c.74-.19 15.83-4.58 15.83-4.58s4.81 2 6.2 9.1-.85 8.1-.85 8.1l-25.46 9.42s-.26-20.84 4.28-22.04z" fill="#b2d1e8"/><path d="M148.06 45a.75.75 0 0 1-.43-.13.74.74 0 0 1-.32-.61c0-3.58 0-21.49 4.84-22.77.72-.19 15.66-4.53 15.81-4.58a.85.85 0 0 1 .5 0c.21.09 5.2 2.23 6.64 9.65s-.81 8.72-1.27 8.92L148.32 45a.78.78 0 0 1-.26 0zm4.47-22.06c-2.62.69-3.73 11.9-3.73 20.24l24.46-9s1.57-1.14.37-7.26c-1.13-5.8-4.59-8-5.52-8.44-2.11.62-14.88 4.32-15.58 4.51zm-.19-.73z" fill="#161441"/><path d="M116 18c-.49-.62-10.13-13.54-10.13-13.54s-5-1.4-10.15 3.45-3.92 7-3.92 7l16.17 18.14S118.92 21.82 116 18z" fill="#b2d1e8"/><path d="M107.93 33.88a.81.81 0 0 1-.55-.25L91.2 15.48a.38.38 0 0 1-.09-.13c-.16-.27-1.36-2.85 4.06-7.95S105.81 3.71 106 3.77a.76.76 0 0 1 .4.28c.1.13 9.64 12.92 10.12 13.53 1.48 1.88.54 5.11-2.88 9.86a61.88 61.88 0 0 1-5.2 6.21.76.76 0 0 1-.51.23zM92.41 14.59L108 32c4-4.27 9.2-11.25 7.42-13.52-.46-.58-8.65-11.56-10-13.33-1-.19-5-.63-9.2 3.32-4.08 3.84-3.89 5.77-3.81 6.12z" fill="#161441"/><path d="M112.18 13.64c.19-1.07-.09-.8 1-.92 1.65-.18 1.73 1.58 6.83 2 1.29 3.81 5.09 7 9.95 7.77s9.38-.94 11.71-4.14c4.88 1.2 7.68 1.49 9.25 2.21 1 .44 1.49.7 1.35 1.8a32.65 32.65 0 0 0-2.64 10.75 50.05 50.05 0 0 0 .27 10.43l-4.7 38.97s-.4 4-24.56 0C97.6 78.63 98 74.65 98 74.65l8.19-37.24s.67-4.85 2.77-13.13a109 109 0 0 1 3.22-10.64z" fill="#fff"/><path d="M137.84 85a110.62 110.62 0 0 1-17.32-1.82c-22-3.67-23.38-7.53-23.27-8.63l8.21-37.33a133.78 133.78 0 0 1 2.77-13.16c1.49-5.89 3-10.06 3.22-10.64v-.37c.1-.75.39-1 1.13-1.07h.43a3.14 3.14 0 0 1 2.12.61A10.16 10.16 0 0 0 120 14a.73.73 0 0 1 .64.5c1.24 3.68 4.92 6.53 9.36 7.27s8.78-.77 11-3.77a.75.75 0 0 1 .79-.29c2 .5 3.71.85 5.06 1.12a22.54 22.54 0 0 1 4.32 1.13c.94.43 2 .91 1.79 2.58a1 1 0 0 1-.07.24 32.06 32.06 0 0 0-2.57 10.49 50.17 50.17 0 0 0 .26 10.25 1.21 1.21 0 0 1 0 .19l-4.64 38.89a1.57 1.57 0 0 1-.71 1.05c-.96.74-3.04 1.35-7.39 1.35zM98.77 74.67c.2.45 2.36 3.79 22 7.06 20.69 3.45 23.46.89 23.7.6l4.63-38.74a50.48 50.48 0 0 1-.25-10.5 33.82 33.82 0 0 1 2.65-10.89c.05-.42 0-.5-.93-.91a22.15 22.15 0 0 0-4-1c-1.26-.25-2.8-.57-4.64-1-2.65 3.25-7.34 4.83-12.13 4s-8.82-3.84-10.37-7.81a11.1 11.1 0 0 1-5-1.59c-.58-.34-.8-.46-1.2-.41h-.26v.28a.74.74 0 0 1 0 .14s-1.62 4.31-3.2 10.55c-2.06 8.14-2.74 13-2.75 13.06zm45.69 7.74zm-45.71-7.8zm13.43-61z" fill="#161441"/><path d="M120 14.77c1.29 3.81 5.09 7 9.95 7.77s9.38-.94 11.71-4.14l-.42 4.05c-2.34 3.2-6.86 4.95-11.71 4.14s-9.43-3.89-10.72-7.7z" fill="#b2d1e8"/><path d="M131.83 27.54a14.56 14.56 0 0 1-2.45-.21c-5.33-.88-10-4.26-11.31-8.2a.77.77 0 0 1 0-.45l1.19-4.12a.75.75 0 0 1 1.43 0c1.24 3.68 4.92 6.53 9.36 7.27S138.78 21 141 18a.76.76 0 0 1 .88-.26.75.75 0 0 1 .48.78l-.36 4.01a.67.67 0 0 1-.14.36 12.22 12.22 0 0 1-10.03 4.65zm-12.26-8.68c1.25 3.3 5.43 6.22 10.05 7 4.35.73 8.59-.72 10.86-3.68l.17-1.61a13.32 13.32 0 0 1-10.85 2.72 13.76 13.76 0 0 1-9.67-6.35z" fill="#161441"/><path d="M168.39 17.27c-1.26.32-.37 4.55.91 9.33s3.34 8.36 4.59 8 1.69-4.72.4-9.5-3.9-8.35-5.9-7.83z" fill="#171442"/><path d="M173.71 35.05a1.42 1.42 0 0 1-.68-.2c-1.37-.78-3-4.05-4.13-8.15-1.5-5.58-1.86-8.29-1.25-9.34a1 1 0 0 1 .64-.49c2.24-.58 5 2.92 6.4 8.13 1.28 4.77.95 9.54-.69 10a1.35 1.35 0 0 1-.29.05zm-5.22-17.38s-.07 0-.12.11c-.69 1.18.83 6.85 1.33 8.71 1.15 4.27 2.75 7.08 3.74 7.64a.52.52 0 0 0 .34.08c.82-.23 1.43-4.1.11-9s-3.87-7.93-5.4-7.54z" fill="#171442"/><path d="M98.85 74.66l8.61-37a1 1 0 0 0 0-.17 71.91 71.91 0 0 1 2.28-13c1.6-6.23 3.2-10.49 3.26-10.49a.75.75 0 0 0 0-.16v-.2h.2a1.47 1.47 0 0 1 .94.28c-.34 16.46.21 34.47 3.82 40.21 7.06 11.24 10.87 15.81 27.17 21.8l-.77 6.4c-.32.33-3.4 2.72-23.62-.65-19.08-3.25-21.6-6.51-21.89-7.02z" fill="#f0f3f3"/><path d="M64.88 117.61s-7.92-17.12-11-15.24 11 15.24 11 15.24zM63.8 119.19s-8.92-9-10.42-7.1 10.42 7.1 10.42 7.1zM67.85 119s10.27-10 11.94-7.87S67.85 119 67.85 119zM89.19 41.68S69.22 21.73 65.9 26s23.29 15.68 23.29 15.68zM88.63 45s-18-6-18.71-2.46S88.63 45 88.63 45zM92.86 41.49s-8.22-19.86-4.27-21 4.27 21 4.27 21z" fill="#41af4a"/></svg>