<svg data-name="Layer 1" xmlns="http://www.w3.org/2000/svg" viewBox="0 0 200 150"><circle cx="98.28" cy="74.1" r="58.28" fill="#b1d1e8"/><path d="M9.43 106.59c3.43 4.56 7.07 8.8 10.45 12.48l17.76-23.84s-13-17.1-20.54-11.12L5.86 97.51a21.53 21.53 0 0 0 3.57 9.08z" fill="#fff"/><path d="M143.56 43s24.72-13.62 21.58-18-21.58 18-21.58 18zM140.57 41.52s10-17.53 6.66-19.68-6.66 19.68-6.66 19.68zM142.73 46.55s21.36-2.37 21.32 1.73-21.32-1.73-21.32-1.73z" fill="#fff" stroke="#6592b0" stroke-miterlimit="10"/><path d="M84.48 76.11l-35.95 52s2.52 5.91 12.35 9.34 8.2 6.72 8.2 6.72L106 85.28s-14.62-15.81-21.52-9.17zM43.48 62.52c2.12-2.5-.76-2.53.3-5.78a33 33 0 0 0 .49-3.82v-1.28a18 18 0 0 0-.84-5.1 32.67 32.67 0 0 0-2-4.2 14.2 14.2 0 0 0-4.06-4.12c-.38-.2-.78-.5-1.23-.69a5.4 5.4 0 0 0-1.46-.41 6 6 0 0 0-2.19.41 1.86 1.86 0 0 0-1 1.09 3.61 3.61 0 0 0-.38 1.68 7.8 7.8 0 0 0 .13 1.42l.45 2.39a32.58 32.58 0 0 1 .54 9.36 16.54 16.54 0 0 1-1.13 4.41A26.55 26.55 0 0 1 28.87 62c-.86 1.34-1.8 2.68-2.66 4.11A23 23 0 0 0 25 68.33a10.51 10.51 0 0 0-.92 2.41 14.43 14.43 0 0 0-.32 2.62c-3.2 4.94-5.52 8.55-8.14 12.64l.21.65 19.24 13.53c1.47-2.22 2.57-3.76 4.14-5.92h.38a11.83 11.83 0 0 0 3.56-.26 9.82 9.82 0 0 0 3.3-1.43 51.36 51.36 0 0 0 5.25-4.09l2.46-2.16c.09-.1 4.84-3 4.93-3.14z" fill="#fff"/><path d="M44.25 53.29zM44.24 53.45a2.45 2.45 0 0 0 0 .27 2.45 2.45 0 0 1 0-.27z" fill="#ea205f"/><path d="M37.39 38.22c-.38-.2-.78-.5-1.23-.69a5.4 5.4 0 0 0-1.46-.41 6 6 0 0 0-2.19.41 1.86 1.86 0 0 0-1 1.09 3.61 3.61 0 0 0-.38 1.68 7.8 7.8 0 0 0 .13 1.42l.45 2.39a32.58 32.58 0 0 1 .54 9.36 16.54 16.54 0 0 1-1.13 4.41A26.55 26.55 0 0 1 28.87 62c-.86 1.34-1.8 2.68-2.66 4.11A23 23 0 0 0 25 68.33a10.51 10.51 0 0 0-.92 2.41 14.43 14.43 0 0 0-.32 2.62c-3.2 4.94-6.21 8.66-9.33 12.69l1.4.6c.47 0 5.54-6.19 8.24-10.37.08.3.17.6.26.88a5.19 5.19 0 0 0 .52 1.19 4 4 0 0 0 2 1.54 3.72 3.72 0 0 1-1.47-1.79 7.86 7.86 0 0 1-.27-2.29 11.41 11.41 0 0 1 1-4.42c.33-.68.51-1.43.87-2.11s.7-1.37 1.1-2c.81-1.35 1.74-2.68 2.63-4.07a28.23 28.23 0 0 0 2.42-4.44 19 19 0 0 0 1.29-5 34.86 34.86 0 0 0-.56-10c-.24-1.57-.81-3.46-.42-4.07a.71.71 0 0 1 .32-.3 1.38 1.38 0 0 1 .64 0 3.12 3.12 0 0 1 .87.25 5.15 5.15 0 0 1 .89.51 13.32 13.32 0 0 1 5.17 7.14 17 17 0 0 1 .24 9 30.59 30.59 0 0 1-2.73 9.15 25.66 25.66 0 0 0 4.92-8.66 33 33 0 0 0 .49-3.82v-1.28a18 18 0 0 0-.84-5.1 32.67 32.67 0 0 0-2-4.2 14.2 14.2 0 0 0-4.02-4.17zM51.44 85.75l-1.18 1a52.89 52.89 0 0 1-5 3.91 8.81 8.81 0 0 1-1.26.69 8.44 8.44 0 0 1-1.37.44 9.15 9.15 0 0 1-2.89.26c-1 0-1.81-.42-2.81-.49a8.06 8.06 0 0 1-1.44-.47c-.48-.24-1-.41-1.22-.94a1.4 1.4 0 0 0 .14.89 4.42 4.42 0 0 0 .47.76 6.35 6.35 0 0 0 1.27 1.32 8.78 8.78 0 0 0 .77.54 3.07 3.07 0 0 0 .31.17q-1.93 2.68-3.76 5.43l1.19 1.54c1.47-2.22 3-4.42 4.55-6.58h.38a11.83 11.83 0 0 0 3.56-.22 9.82 9.82 0 0 0 3.3-1.43 51.36 51.36 0 0 0 5.25-4.09l2.46-2.16c.09-.1.22-.15.32-.25zM44.25 53.29zM44.24 53.45a2.45 2.45 0 0 0 0 .27 2.45 2.45 0 0 1 0-.27z" fill="#6592b0"/><path d="M64.74 59.5s1-.36.85-2.78-1.1-3.64-1.25-3.69-1.55-2.21-4.86-.45c-1.65.87-11 5.56-13.14 6.91s-4.47 3.58-3.22 6.27c.8 1.69 1.94 2.81 3.89 2.16 2.2-.74 17.46-8.31 17.73-8.42z" fill="#d6e4ee"/><path d="M45.93 69.28c-1.32 0-2.77-.69-3.86-3-.72-1.54-1.21-4.59 3.64-7.74 1.6-1 7.08-3.82 10.7-5.67l2.52-1.29c2.38-1.27 4.57-1.07 6.14.57a1.6 1.6 0 0 0-.33-.19c.83.31 1.83 2.2 2 4.71.2 2.94-1.12 3.75-1.55 3.93l-1.72.84c-7 3.46-14.49 7.07-16.1 7.61a4.55 4.55 0 0 1-1.44.23zm16-16.22a4 4 0 0 0-1.85.55l-2.56 1.31c-3.36 1.71-9 4.58-10.49 5.55-2.57 1.66-3.51 3.28-2.8 4.79.89 1.9 1.7 1.81 2.46 1.55 1.68-.56 12-5.6 15.82-7.5l1.73-.84a2.75 2.75 0 0 0 .23-1.67 5.83 5.83 0 0 0-.82-2.87l-.2-.19a2 2 0 0 0-1.57-.68zm3.3 7.52zm-1.25-6.46zm0 0z" fill="#161542"/><rect x="39.72" y="30.8" width="27.57" height="43.16" rx="3.8" transform="rotate(24.9 53.482 52.367)" fill="#fff"/><path d="M55.07 77.21a4.45 4.45 0 0 1-1.89-.42l-18.11-8.41a4.5 4.5 0 0 1-2.19-6l15-32.25a4.5 4.5 0 0 1 6-2.19l18.11 8.41a4.5 4.5 0 0 1 2.19 6l-15 32.25a4.49 4.49 0 0 1-2.53 2.33 4.42 4.42 0 0 1-1.58.28zM51.93 29a3.1 3.1 0 0 0-2.82 1.8L34.14 63a3.1 3.1 0 0 0 1.51 4.12l18.11 8.41A3.11 3.11 0 0 0 57.89 74l15-32.25a3.12 3.12 0 0 0-1.51-4.13l-18.11-8.4a3.08 3.08 0 0 0-1.34-.22z" fill="#6592b0"/><rect x="42.54" y="60.23" width="6.76" height="6.76" rx=".78" transform="rotate(-65.1 45.921 63.61)" fill="#b1d1e8"/><path d="M47.19 68.62a1.51 1.51 0 0 1-.66-.14l-4.72-2.2a1.55 1.55 0 0 1-.76-2.06l2.2-4.73a1.55 1.55 0 0 1 2.06-.75L50 60.93a1.57 1.57 0 0 1 .8.88 1.54 1.54 0 0 1-.01 1.19l-2.19 4.72a1.56 1.56 0 0 1-.88.81 1.6 1.6 0 0 1-.53.09zm-2.54-8.47l-2.19 4.73 4.73 2.19 2.19-4.73zm4.73 2.19l.71.33-.71-.33zM52.78 71.69a1.21 1.21 0 0 1-.49-.11 1.17 1.17 0 0 1-.57-1.58L66 39.31a1.17 1.17 0 0 1 2.11 1L53.84 71a1.17 1.17 0 0 1-1.06.69z" fill="#6592b0"/><path d="M65.79 59.57c-.28.07-19.53 7.32-21 9.27s-1 3.59-.06 5.36a18.54 18.54 0 0 0-3.12 1.8c-1.61 1.38-1.61 4.43-.53 6.24a4.22 4.22 0 0 0 .85 1c-2.14 1-4.48 2.58-4 5.23a4.48 4.48 0 0 0 1.59 2.61l1.93 1.19a2.37 2.37 0 0 0 1.4.33 36.42 36.42 0 0 0 4.74-.56 58.7 58.7 0 0 0 9.68-3.87 14.68 14.68 0 0 0 1.65-.89 5.3 5.3 0 0 0 2.49-2.93 6.36 6.36 0 0 0-.41-4.13 12.73 12.73 0 0 0 2.4-1.1 5.64 5.64 0 0 0 2.32-2.63 5.86 5.86 0 0 0-.2-4.91 4.18 4.18 0 0 0-1.1-1.27c.49-.24 1-.5 1.43-.78a6.12 6.12 0 0 0 2.88-3.48 6.34 6.34 0 0 0-.73-5.18 1.82 1.82 0 0 0-2.21-1.3z" fill="#fff"/><path d="M65.79 59.57c-.28.07-19.53 7.32-21 9.27s-1 3.59-.06 5.36a18.54 18.54 0 0 0-3.12 1.8c-1.61 1.38-1.61 4.43-.53 6.24a4.22 4.22 0 0 0 .85 1c-2.14 1-4.48 2.58-4 5.23a4.48 4.48 0 0 0 1.59 2.61l1.93 1.19a2.37 2.37 0 0 0 1.4.33 36.42 36.42 0 0 0 4.74-.56 58.7 58.7 0 0 0 9.68-3.87 14.68 14.68 0 0 0 1.65-.89 5.3 5.3 0 0 0 2.49-2.93 6.36 6.36 0 0 0-.41-4.13 12.73 12.73 0 0 0 2.4-1.1 5.64 5.64 0 0 0 2.32-2.63 5.86 5.86 0 0 0-.2-4.91 4.18 4.18 0 0 0-1.1-1.27c.49-.24 1-.5 1.43-.78a6.12 6.12 0 0 0 2.88-3.48 6.34 6.34 0 0 0-.73-5.18 1.82 1.82 0 0 0-2.21-1.3zm-6.48 24.15c-.33 1.13-1.71 1.86-3 2.46A55.57 55.57 0 0 1 47 89.91a9.15 9.15 0 0 1-4.3.36 3.3 3.3 0 0 1-2.62-2.2c-.17-.89.55-2.22 4.8-3.57a8.46 8.46 0 0 0 3-.13c3.06-.76 5.56-1.61 8.72-2.69l2.17-.68h.08a4.48 4.48 0 0 1 .46 2.72zm4.31-8.08c-.67 1.63-2.75 2.31-4.76 3l-.8.27-2.12.72c-3.11 1.06-5.57 1.9-8.54 2.64-.64.16-3.47.47-4.42-1.13-.63-1-.6-2.85.05-3.4a21.66 21.66 0 0 1 3.29-1.82c1.76.93 4.17.52 5.62 0 3-1.1 5.34-2.22 8.36-3.65l1.57-.74v.13a2.19 2.19 0 0 1 1.7 1.07 3.63 3.63 0 0 1 .05 2.91zm2.94-10.21c-.49 1.69-2.48 2.6-4.41 3.48l-.76.34-2 1c-3 1.4-5.32 2.51-8.19 3.58 0 0-3.49 1.24-4.43-.48a4.44 4.44 0 0 1-.43-1.37 2.19 2.19 0 0 1 1.31-2.26l16.66-7.53c.11 0 1.47-.73 2 .09a4.51 4.51 0 0 1 .25 3.15z" fill="#6592b0"/><path d="M111.59 51.38c2.06-2.55-.82-2.51.17-5.79a33.62 33.62 0 0 0 .41-3.83v-1.28a18.39 18.39 0 0 0-1-5.08 32.54 32.54 0 0 0-2.1-4.15 14.21 14.21 0 0 0-4.15-4c-.38-.19-.79-.48-1.24-.66a5.56 5.56 0 0 0-1.47-.38 5.92 5.92 0 0 0-2.18.46 1.81 1.81 0 0 0-1 1.11 3.5 3.5 0 0 0-.35 1.69 6.81 6.81 0 0 0 .17 1.41l.5 2.38a32.33 32.33 0 0 1 .74 9.35 16.69 16.69 0 0 1-1 4.44A26.76 26.76 0 0 1 97 51.16c-.83 1.36-1.74 2.72-2.57 4.17a25.47 25.47 0 0 0-1.16 2.27 10.83 10.83 0 0 0-.9 2.4 14.36 14.36 0 0 0-.26 2.62c-3.09 5-5.32 8.67-7.86 12.82l.23.64L104 89.22c1.42-2.26 2.48-3.82 4-6h.39a11.78 11.78 0 0 0 3.55-.4 11.44 11.44 0 0 0 1.7-.59 10.62 10.62 0 0 0 1.57-.91 52.51 52.51 0 0 0 5.15-4.2l2.41-2.22c.1-.1 4.78-3.14 4.87-3.24z" fill="#fff"/><path d="M112.15 42.14zM112.14 42.3a2.44 2.44 0 0 1 0 .27 2.44 2.44 0 0 0 0-.27z" fill="#ea205f"/><path d="M105 27.22c-.38-.19-.79-.48-1.24-.66a5.56 5.56 0 0 0-1.47-.38 5.92 5.92 0 0 0-2.18.46 1.81 1.81 0 0 0-1 1.11 3.5 3.5 0 0 0-.35 1.69 6.81 6.81 0 0 0 .17 1.41l.5 2.38a32.33 32.33 0 0 1 .74 9.35 16.69 16.69 0 0 1-1 4.44A26.76 26.76 0 0 1 97 51.16c-.83 1.36-1.74 2.72-2.57 4.17a25.47 25.47 0 0 0-1.16 2.27 10.83 10.83 0 0 0-.9 2.4 14.36 14.36 0 0 0-.26 2.62c-3.09 5-5.32 8.67-7.86 12.82l.23.64a2.72 2.72 0 0 1 1.36.31c2.12-3.49 4-6.62 6.65-10.85q.12.45.27.87a5.24 5.24 0 0 0 .55 1.18 4 4 0 0 0 2 1.49 3.79 3.79 0 0 1-1.51-1.75 8.21 8.21 0 0 1-.32-2.28 11.67 11.67 0 0 1 .94-4.45c.33-.69.48-1.44.83-2.13a22.46 22.46 0 0 1 1.06-2.07c.78-1.36 1.67-2.71 2.53-4.12a28.84 28.84 0 0 0 2.33-4.49 18.61 18.61 0 0 0 1.17-5 34.34 34.34 0 0 0-.78-10c-.27-1.56-.88-3.44-.51-4.06a.69.69 0 0 1 .32-.31 1.44 1.44 0 0 1 .63-.06 3.41 3.41 0 0 1 .88.24 4.48 4.48 0 0 1 .9.49 13.25 13.25 0 0 1 5.33 7 17 17 0 0 1 .44 9 31.23 31.23 0 0 1-2.55 9.27 25.81 25.81 0 0 0 4.72-8.77 33.62 33.62 0 0 0 .41-3.83v-1.28a18.39 18.39 0 0 0-1-5.08 32.54 32.54 0 0 0-2.1-4.15 14.21 14.21 0 0 0-4.03-4.03zM120.06 74.42l-1.16 1.07a51.75 51.75 0 0 1-4.91 4 10.31 10.31 0 0 1-1.24.72 8.17 8.17 0 0 1-1.37.47 9.38 9.38 0 0 1-2.88.33 15.26 15.26 0 0 1-4.27-.87c-.49-.23-1-.39-1.24-.91a1.32 1.32 0 0 0 .16.88 4 4 0 0 0 .49.76 6.52 6.52 0 0 0 1.29 1.28c.25.19.51.36.78.53l.32.16q-1.87 2.73-3.64 5.52c.4.49.81 1 1.22 1.51 1.42-2.26 2.88-4.49 4.4-6.69h.39a11.78 11.78 0 0 0 3.55-.4 11.44 11.44 0 0 0 1.7-.59 10.62 10.62 0 0 0 1.57-.91 52.51 52.51 0 0 0 5.15-4.2l2.41-2.22c.1-.1.23-.16.32-.26zM112.15 42.14zM112.14 42.3a2.44 2.44 0 0 1 0 .27 2.44 2.44 0 0 0 0-.27z" fill="#6592b0"/><rect x="96.33" y="9.41" width="32.45" height="54.17" rx="2.04" transform="rotate(-3.25 112.558 36.53)" fill="#6592b0"/><path d="M126.42 60.6L101.53 62a1.32 1.32 0 0 1-1.39-1.24l-2.69-47a1.32 1.32 0 0 1 1.24-1.4L123.58 11a1.32 1.32 0 0 1 1.42 1.23l2.69 47a1.33 1.33 0 0 1-1.27 1.37z" fill="#fff"/><path d="M100.68 61.75l24-50.29a1.35 1.35 0 0 0-1.08-.47L98.69 12.4a1.32 1.32 0 0 0-1.24 1.4l2.69 47a1.27 1.27 0 0 0 .54.95z" fill="#eff8fd"/><path d="M121.81 8.84l-21.58 1.23.12 2.24 3.82-.22a1.43 1.43 0 0 1 1.5 1.34 1.61 1.61 0 0 0 1.71 1.57l7.87-.44a1.63 1.63 0 0 0 1.54-1.72 1.42 1.42 0 0 1 1.34-1.5l3.81-.22z" fill="#6592b0"/><rect x="103.89" y="47.44" width="18.92" height="6.31" rx="1.42" transform="rotate(-3.25 113.22 50.484)" fill="#b1d1e8"/><circle cx="112.23" cy="30.83" r="8.32" fill="#d6e4ee"/><path d="M115.87 31.36a2.45 2.45 0 0 0-.4-.59 2.18 2.18 0 0 0-.54-.42 4 4 0 0 0-.63-.29c-.22-.07-.45-.14-.68-.19l-.6-.12v-2.23l.27.07.37.11.32.09a.64.64 0 0 0 .63-.12.88.88 0 0 0 .24-.31l.48-.91-.08-.06a5 5 0 0 0-1-.57 3.89 3.89 0 0 0-1.26-.3v-1.39l-.91.11a.65.65 0 0 0-.46.24.64.64 0 0 0-.15.44v.68a4.19 4.19 0 0 0-1.32.46 3.44 3.44 0 0 0-1 .83 3 3 0 0 0-.56 1 2.92 2.92 0 0 0-.1 1.13 2.88 2.88 0 0 0 .4 1.25 2.57 2.57 0 0 0 .77.77 3.28 3.28 0 0 0 1 .41c.31.08.62.15.94.2v2.39a2.1 2.1 0 0 1-.42-.12l-.47-.19-.41-.17a.77.77 0 0 0-.74.08.73.73 0 0 0-.24.26l-.6 1.13.08.06a5.08 5.08 0 0 0 1.34.66 6.23 6.23 0 0 0 1.49.28v1.46l.91-.11a.63.63 0 0 0 .45-.24.7.7 0 0 0 .16-.44v-.77a4.48 4.48 0 0 0 1.32-.5 3.53 3.53 0 0 0 1-.87 3.26 3.26 0 0 0 .55-1.14 3.74 3.74 0 0 0 .08-1.3 3 3 0 0 0-.23-.76zm-2 1.38a1 1 0 0 1-.77 1.26v-2a1.94 1.94 0 0 1 .52.25.73.73 0 0 1 .24.49zm-2.41-5.11v1.8a2.41 2.41 0 0 1-.53-.28.73.73 0 0 1-.29-.55.65.65 0 0 1 0-.31.7.7 0 0 1 .14-.27 1.23 1.23 0 0 1 .29-.24 1.34 1.34 0 0 1 .38-.15z" fill="#6592b0"/><path d="M133.83 47.94c-.28.08-19.36 7.75-20.81 9.73s-.87 3.61.06 5.36a20.3 20.3 0 0 0-3.08 1.88c-1.59 1.4-1.51 4.45-.39 6.24a4.42 4.42 0 0 0 .87 1c-2.12 1-4.42 2.68-3.86 5.32a4.46 4.46 0 0 0 1.66 2.53l2 1.14a2.28 2.28 0 0 0 1.4.31 35.91 35.91 0 0 0 4.73-.67 58.14 58.14 0 0 0 9.59-4.05 16.51 16.51 0 0 0 1.63-.92 5.3 5.3 0 0 0 2.42-3 6.28 6.28 0 0 0-.57-4.12 12.4 12.4 0 0 0 2.37-1.16 5.63 5.63 0 0 0 2.26-2.68 5.81 5.81 0 0 0-.3-4.9 4 4 0 0 0-1.13-1.25c.48-.25 1-.52 1.42-.82a6.15 6.15 0 0 0 2.8-3.54 6.33 6.33 0 0 0-.78-5.16 1.8 1.8 0 0 0-2.29-1.24z" fill="#fff"/><path d="M133.83 47.94c-.28.08-19.36 7.75-20.81 9.73s-.87 3.61.06 5.36a20.3 20.3 0 0 0-3.08 1.88c-1.59 1.4-1.51 4.45-.39 6.24a4.42 4.42 0 0 0 .87 1c-2.12 1-4.42 2.68-3.86 5.32a5 5 0 0 0 1.64 2.77l1.55 1a4.79 4.79 0 0 0 1.82.28 35.91 35.91 0 0 0 4.73-.67 58.14 58.14 0 0 0 9.64-4.12 16.51 16.51 0 0 0 1.63-.92 5.3 5.3 0 0 0 2.42-3 6.28 6.28 0 0 0-.57-4.12 12.4 12.4 0 0 0 2.37-1.16 5.63 5.63 0 0 0 2.26-2.68 5.81 5.81 0 0 0-.3-4.9 4 4 0 0 0-1.13-1.25c.48-.25 1-.52 1.42-.82a6.15 6.15 0 0 0 2.8-3.54 6.33 6.33 0 0 0-.78-5.16 1.8 1.8 0 0 0-2.29-1.24zm-6 24.29c-.31 1.13-1.67 1.9-2.92 2.53a56 56 0 0 1-9.21 3.93 9.25 9.25 0 0 1-4.29.45 3.3 3.3 0 0 1-2.62-2.14c-.19-.89.5-2.24 4.72-3.67a8.84 8.84 0 0 0 3-.2c3-.83 5.52-1.74 8.66-2.89l2.09-.76h.08a4.44 4.44 0 0 1 .54 2.75zm4.17-8.17c-.64 1.64-2.71 2.36-4.71 3.06l-.78.28-2.11.77c-3.08 1.13-5.52 2-8.47 2.83-.65.17-3.46.54-4.46-1-.65-1-.66-2.84 0-3.41a22.76 22.76 0 0 1 3.24-1.89c1.78.9 4.18.43 5.62-.14 2.93-1.16 5.29-2.34 8.27-3.83l1.56-.77v.13a2.18 2.18 0 0 1 1.73 1 3.73 3.73 0 0 1 .11 2.97zm2.7-10.27c-.45 1.69-2.42 2.64-4.33 3.56l-.75.37-2 1c-2.94 1.47-5.26 2.63-8.1 3.76 0 0-3.47 1.32-4.45-.39a4.45 4.45 0 0 1-.45-1.36 2.2 2.2 0 0 1 1.25-2.29l16.49-7.89c.12 0 1.46-.76 2 .05a4.55 4.55 0 0 1 .36 3.19z" fill="#6592b0"/><path d="M136.27 41.87h-.05a14.76 14.76 0 0 0-2.82 0 25 25 0 0 0-4.44.91c-3.19.85-6.69 1.41-9.55 3.13a11.15 11.15 0 0 0-1.07.57c-2.12 1-4.42 2.68-3.87 5.32a4.51 4.51 0 0 0 1.65 2.58l2 1.14a2.28 2.28 0 0 0 1.4.31 37.67 37.67 0 0 0 4.73-.67 57.35 57.35 0 0 0 9.59-4.09 14.83 14.83 0 0 0 1.64-.92 5.36 5.36 0 0 0 2.42-3 5.84 5.84 0 0 0-.36-3.59 3.21 3.21 0 0 1-1.27-1.69z" fill="#fff"/><path d="M136.31 41.89h-.14a12.76 12.76 0 0 0-2 0 25.06 25.06 0 0 0-3.13.42c-3.4.87-3.82.91-6.77 1.71-.45.13-1.56.57-3.6 1.3a11.67 11.67 0 0 0-1.21.64 11.15 11.15 0 0 0-1.07.57c-2.12 1-4.42 2.68-3.87 5.32a4.51 4.51 0 0 0 1.65 2.58l2 1.14a2.28 2.28 0 0 0 1.4.31 37.67 37.67 0 0 0 4.73-.67 57.35 57.35 0 0 0 9.59-4.09 14.83 14.83 0 0 0 1.64-.92 5.36 5.36 0 0 0 2.42-3 5.84 5.84 0 0 0-.36-3.59 2.75 2.75 0 0 0-1.28-1.72zm-.58 4.67c-.32 1.13-1.67 1.89-2.92 2.52a56.17 56.17 0 0 1-9.22 3.92 9.37 9.37 0 0 1-4.29.45 3.31 3.31 0 0 1-2.67-2.14c-.18-.89.4-2.32 4.57-3.92 1.46-.56 3.85-1.49 4.47-1.66 3-.83 5.61-1.79 8.75-2.94a1.22 1.22 0 0 1 1.43 1.27 10.68 10.68 0 0 1-.12 2.5z" fill="#6592b0"/><path d="M93.46 28.3c-.41-.1-.88-.28-1.36-.35a5.51 5.51 0 0 0-1.52 0 6 6 0 0 0-2 1c-.53.49-.56.47-.69 1.11a3.63 3.63 0 0 0 .06 1.72 8.21 8.21 0 0 0 .5 1.33l1.06 2.19a32.65 32.65 0 0 1 3 8.91 16.92 16.92 0 0 1 .06 4.55 27.25 27.25 0 0 1-1.1 4.54c-.49 1.52-1 3-1.5 4.66-.23.81-.43 1.64-.58 2.48s.73 1.51.82 2.38a14.27 14.27 0 0 0 .37 2.61c0 .13.82 2.57.82 2.57 1.71 1.69 1.74 3.26 4.32 3.09a14.73 14.73 0 0 0 6.63-2.25c.44-.27.91-.6 1.38-1 2.06-.88 4.71-4.81 3.71-6.52-.81-1.93-3.67-3.27-4.46-5.35-1.16-3.07.52-8 1.27-11.13.06-.22-.08-.43 0-.63a34.27 34.27 0 0 0-.5-3.72c-.1-.42-.2-.83-.32-1.24a16.46 16.46 0 0 0-2.14-4.5 39.62 39.62 0 0 0-2.81-3.53s-2.67-2.39-5.02-2.92z" fill="#fff"/><path d="M104 40.85zM104 41a2.56 2.56 0 0 0 0 .27 2.56 2.56 0 0 1 0-.27z" fill="#ea205f"/><path d="M93.4 28.24c-.41-.1-.88-.28-1.36-.35a5.5 5.5 0 0 0-1.52 0 6 6 0 0 0-2 1 1.84 1.84 0 0 0-.69 1.31 3.81 3.81 0 0 0 .06 1.73 7.67 7.67 0 0 0 .51 1.33l1 2.19a32.59 32.59 0 0 1 3 8.9 16.92 16.92 0 0 1 .06 4.55 27 27 0 0 1-1.1 4.54c-.48 1.52-1 3.06-1.5 4.67a24.87 24.87 0 0 0-.58 2.48A11 11 0 0 0 89 63.1a14.29 14.29 0 0 0 .38 2.61c0 .13.82 2.57.82 2.57l.22.22c0 .06.62 3 .65 3.08.83.83.4-3.07.21-3.8a11.58 11.58 0 0 1-.15-4.54c.15-.74.12-1.51.29-2.26a22.47 22.47 0 0 1 .58-2.31c.43-1.52 1-3 1.47-4.61a28.74 28.74 0 0 0 1.19-4.92 19 19 0 0 0-.07-5.14 34.6 34.6 0 0 0-3.15-9.52C90.8 33 89.76 31.33 90 30.64a.65.65 0 0 1 .23-.37 1.26 1.26 0 0 1 .6-.21 3.12 3.12 0 0 1 .91 0 4.55 4.55 0 0 1 1 .26 13.25 13.25 0 0 1 6.85 5.54 17 17 0 0 1 2.59 8.67 32.86 32.86 0 0 1-.4 9.81c.26.28 1.25 1.43 1.75 1.5.13 0 .23-1 .27-1.1.87-2.88.6-10.68.57-11-.07-.65-.2-1.64-.46-3.16-.1-.41-.2-.83-.32-1.24a18.48 18.48 0 0 0-2.14-4.7 31.29 31.29 0 0 0-3-3.53s-2.7-2.34-5.05-2.87z" fill="#6592b0"/><path d="M104 40.85zM104 41a2.56 2.56 0 0 0 0 .27 2.56 2.56 0 0 1 0-.27z" fill="#161542"/><path d="M168.72 98.15s1-.4.74-2.81-1.24-3.6-1.39-3.65-1.63-2.14-4.88-.26c-1.61.94-4.78 2.45-6.82 3.88s-4.33 3.76-3 6.39c.86 1.66 2 2.73 4 2 2.17-.82 11.08-5.43 11.35-5.55z" fill="#d6e4ee"/><path d="M156.2 105.11c-1.28 0-2.69-.66-3.84-2.88-.78-1.51-1.38-4.54 3.34-7.87a47.67 47.67 0 0 1 5-2.88c.74-.4 1.42-.75 1.94-1 2.32-1.36 4.51-1.24 6.15.32a1.29 1.29 0 0 0-.33-.17c.85.29 1.92 2.14 2.19 4.64.31 3-1 3.8-1.41 4l-.9.46c-4.05 2.07-8.91 4.52-10.53 5.14a4.53 4.53 0 0 1-1.61.24zm9.5-13.29a3.93 3.93 0 0 0-1.92.62c-.54.31-1.24.69-2 1.1a45.39 45.39 0 0 0-4.71 2.73c-2.51 1.76-3.38 3.41-2.61 4.89.95 1.86 1.76 1.74 2.51 1.46 1.71-.65 8-3.84 10.3-5l.88-.45a2.71 2.71 0 0 0 .17-1.67 5.73 5.73 0 0 0-.94-2.84l-.21-.18a2 2 0 0 0-1.47-.66zm3.5 7.39z" fill="#161542"/><path d="M147.24 99.41a15.81 15.81 0 0 1-4 5.6c-2.87 2.63-7.55-1.31-4.66-4 4.06-3.7 4.37-7.83 2.89-12a6.82 6.82 0 0 1-.18 1.1 3.11 3.11 0 0 1-2.19 2.34 12 12 0 0 1-.32 2.63c-.3 1.2-.9 2.31-1.19 3.5 0 .25-.08.5-.13.74a3 3 0 0 1-4.92 1.64c-.16.28-.32.56-.49.84-.81 1.38-1.69 2.76-2.5 4.22-.4.74-.78 1.5-1.12 2.29a11.32 11.32 0 0 0-.83 2.44 15.35 15.35 0 0 0-.21 2.62c-3 5.06-5.18 8.76-7.64 13l.23.63 19.75 12.78c1.38-2.28 2.42-3.86 3.9-6.08h.38a11.43 11.43 0 0 0 3.55-.45 11.12 11.12 0 0 0 1.69-.62 12.13 12.13 0 0 0 1.56-.93 53.46 53.46 0 0 0 5.08-4.29l2.37-2.26c.09-.1 4.72-3.22 4.81-3.32l-16.4-20c.95-1.17.86-1.83.57-2.42z" fill="#fff"/><path d="M132.57 101c-.16.28-.32.56-.49.84-.81 1.38-1.12 1.91-1.92 3.37-.41.74-.86.17-1.2 1a40.25 40.25 0 0 0-1.33 4.63 15.35 15.35 0 0 0-.21 2.62c-3 5.06-5.18 8.76-7.64 13l.23.63a2.77 2.77 0 0 1 1.36.28c2.07-3.52 3.94-6.68 6.47-11 .09.3.19.59.29.87a5.06 5.06 0 0 0 .57 1.17 4 4 0 0 0 2 1.46 3.71 3.71 0 0 1-1.54-1.73 7.76 7.76 0 0 1-.36-2.27 11.47 11.47 0 0 1 .87-4.46c.31-.7.45-1.45.78-2.15s.65-1.4 1-2.08c.76-1.38 1.63-2.74 2.47-4.17.23-.39.46-.79.68-1.2a3.27 3.27 0 0 1-2.03-.81zM155.56 124.73l-1.15 1.09a51 51 0 0 1-4.84 4.1 10.28 10.28 0 0 1-1.23.74 9 9 0 0 1-1.35.49 9.75 9.75 0 0 1-2.88.38 8.64 8.64 0 0 1-2.83-.39 8.45 8.45 0 0 1-1.46-.41c-.48-.23-1-.37-1.25-.89a1.39 1.39 0 0 0 .18.88 4.41 4.41 0 0 0 .49.75 7.18 7.18 0 0 0 1.32 1.26c.25.18.52.35.79.51l.32.16q-1.83 2.76-3.54 5.57l1.24 1.49q2.07-3.42 4.29-6.75h.38a11.43 11.43 0 0 0 3.55-.45 11.12 11.12 0 0 0 1.69-.62 12.13 12.13 0 0 0 1.56-.93 53.46 53.46 0 0 0 5.08-4.29l2.37-2.26c.09-.1.22-.16.31-.26z" fill="#6592b0"/><path d="M168.88 98c-.27.08-19.23 8.07-20.64 10.08s-.81 3.62.15 5.35a20.62 20.62 0 0 0-3 1.93c-1.56 1.43-1.44 4.48-.28 6.25a4.16 4.16 0 0 0 .89 1c-2.11 1-4.38 2.75-3.78 5.38a4.51 4.51 0 0 0 1.69 2.55l2 1.11a2.31 2.31 0 0 0 1.41.28 35.81 35.81 0 0 0 4.72-.75 57.45 57.45 0 0 0 9.52-4.24 17.85 17.85 0 0 0 1.62-.94 5.35 5.35 0 0 0 2.36-3 6.29 6.29 0 0 0-.64-4.11 13.08 13.08 0 0 0 2.36-1.2 5.64 5.64 0 0 0 2.21-2.72A5.83 5.83 0 0 0 169 110a4.24 4.24 0 0 0-1.15-1.24c.47-.25 1-.53 1.4-.83a6.14 6.14 0 0 0 2.74-3.59 6.37 6.37 0 0 0-.86-5.15 1.81 1.81 0 0 0-2.25-1.19z" fill="#fff"/><path d="M168.88 98c-.27.08-19.23 8.07-20.64 10.08s-.81 3.62.15 5.35a20.62 20.62 0 0 0-3 1.93c-1.56 1.43-1.44 4.48-.28 6.25a4.16 4.16 0 0 0 .89 1c-2.11 1-4.38 2.75-3.78 5.38a5.74 5.74 0 0 0 1.72 2.75 11.51 11.51 0 0 0 1.88 1.06 2.31 2.31 0 0 0 1.41.28 38 38 0 0 0 4.79-.9 57.45 57.45 0 0 0 9.52-4.24 17.85 17.85 0 0 0 1.62-.94 5.35 5.35 0 0 0 2.36-3 6.29 6.29 0 0 0-.64-4.11 13.08 13.08 0 0 0 2.36-1.2 5.64 5.64 0 0 0 2.21-2.72A5.83 5.83 0 0 0 169 110a4.24 4.24 0 0 0-1.15-1.24c.47-.25 1-.53 1.4-.83a6.14 6.14 0 0 0 2.74-3.59 6.37 6.37 0 0 0-.86-5.15 1.81 1.81 0 0 0-2.25-1.19zm-5.53 24.39c-.3 1.13-1.64 1.92-2.88 2.57a56 56 0 0 1-9.15 4.09 9.34 9.34 0 0 1-4.28.52 3.33 3.33 0 0 1-2.71-2.09c-.2-.89.47-2.25 4.66-3.76a8.83 8.83 0 0 0 3-.24c3-.88 5.49-1.83 8.61-3l2.09-.8h.07a4.51 4.51 0 0 1 .59 2.73zm4-8.25c-.61 1.65-2.66 2.41-4.65 3.15l-.78.29-2.09.8c-3.07 1.19-5.5 2.12-8.43 3-.64.19-3.45.61-4.47-1-.67-1-.71-2.83-.08-3.41a23.4 23.4 0 0 1 3.22-1.94c1.79.86 4.19.36 5.62-.24 2.9-1.21 5.24-2.43 8.2-4l1.54-.8v.14a2.16 2.16 0 0 1 1.74 1 3.63 3.63 0 0 1 .17 3.03zm2.54-10.31c-.43 1.71-2.38 2.69-4.27 3.64l-.75.38-2 1c-2.91 1.52-5.21 2.72-8 3.89 0 0-3.45 1.38-4.45-.31a4.39 4.39 0 0 1-.48-1.35 2.21 2.21 0 0 1 1.21-2.31l16.36-8.16c.12 0 1.44-.79 2 0a4.57 4.57 0 0 1 .37 3.24z" fill="#6592b0"/><path fill="#fff" d="M157.1 62.464l23.128 14.2-23.98 39.056-23.129-14.2z"/><path d="M156.24 116.5a.78.78 0 0 1-.41-.12l-23.13-14.2a.76.76 0 0 1-.34-.48.74.74 0 0 1 .09-.58l24-39.05a.77.77 0 0 1 1.06-.26L180.63 76a.76.76 0 0 1 .35.47.82.82 0 0 1-.1.59l-24 39.05a.75.75 0 0 1-.64.39zm-22.07-15.23L156 114.66l23.18-37.73-21.81-13.4z" fill="#6592b0"/><path d="M155.52 112.23l-19.06-11.7 21.27-34.62 19.06 11.7zm-15.85-12.47l15.08 9.24 18.83-30.65-15.09-9.26z" fill="#b1d1e8"/><circle cx="156.79" cy="89.18" r="7.12" fill="#abd5a1"/><path d="M159.58 87.22a1.75 1.75 0 0 0-.6 0 2.19 2.19 0 0 0-.56.14 3.14 3.14 0 0 0-.51.27 3.27 3.27 0 0 0-.48.35l-.39.33-1.5-1.13.18-.15.27-.19a2.29 2.29 0 0 0 .23-.16.55.55 0 0 0 .25-.48.88.88 0 0 0-.08-.32L156 85h-.08a4.4 4.4 0 0 0-.9.37 3.48 3.48 0 0 0-.85.68l-.93-.71-.41.66a.55.55 0 0 0-.07.43.58.58 0 0 0 .21.33l.45.34a4 4 0 0 0-.38 1.12 3.28 3.28 0 0 0 0 1.09 2.58 2.58 0 0 0 .4.91 2.44 2.44 0 0 0 .7.66 2.5 2.5 0 0 0 1 .38 2.09 2.09 0 0 0 .9-.11 2.71 2.71 0 0 0 .78-.43 7.75 7.75 0 0 0 .62-.52l1.6 1.22a2.64 2.64 0 0 1-.29.21l-.37.21-.33.19a.65.65 0 0 0-.33.53.68.68 0 0 0 .05.29l.43 1h.09a4.3 4.3 0 0 0 1.13-.54 5.46 5.46 0 0 0 1-.84l1 .74.4-.66a.55.55 0 0 0 .08-.43.59.59 0 0 0-.22-.33l-.51-.39a3.42 3.42 0 0 0 .35-1.13 2.56 2.56 0 0 0-.06-1.11 2.67 2.67 0 0 0-.46-1 2.86 2.86 0 0 0-.82-.72 2.08 2.08 0 0 0-.6-.22zm-.13 2a.87.87 0 0 1 .4 1.14l-1.33-1a1.74 1.74 0 0 1 .44-.21.59.59 0 0 1 .49.11zm-4.63-1.06l1.2.91a1.57 1.57 0 0 1-.46.21.62.62 0 0 1-.52-.09.77.77 0 0 1-.19-.17.64.64 0 0 1-.1-.24.83.83 0 0 1 0-.32 1.35 1.35 0 0 1 .07-.26z" fill="#fff"/><path fill="#fff" d="M163.54 61.91l22.326 15.431-26.057 37.702-22.326-15.43z"/><path d="M159.79 115.81a.76.76 0 0 1-.44-.13L137 100.25a.79.79 0 0 1-.2-1.08l26.07-37.7a.78.78 0 0 1 1.08-.19l22.32 15.43a.79.79 0 0 1 .2 1.08l-26.07 37.69a.76.76 0 0 1-.61.33zm-21.25-16.4L159.59 114l25.19-36.43L163.72 63z" fill="#6592b0"/><path d="M159.26 111.52l-18.4-12.72L164 65.38l18.4 12.72zm-15.15-13.31l14.56 10.06 20.45-29.58-14.56-10.06z" fill="#b1d1e8"/><circle cx="161.78" cy="88.56" r="7.12" fill="#abd5a1"/><path d="M164.67 86.76a1.77 1.77 0 0 0-.6-.08 1.8 1.8 0 0 0-.56.11 2.79 2.79 0 0 0-.51.21 3.84 3.84 0 0 0-.5.32l-.41.31-1.43-1.21.19-.14.28-.17.23-.16a.54.54 0 0 0 .28-.46.84.84 0 0 0-.07-.32l-.31-.81h-.08a4 4 0 0 0-.91.32 3 3 0 0 0-.89.63l-.9-.75-.44.63a.54.54 0 0 0-.09.42.5.5 0 0 0 .19.34l.43.37a3.72 3.72 0 0 0-.44 1.1 3.35 3.35 0 0 0 0 1.09 2.68 2.68 0 0 0 .35.93 2.42 2.42 0 0 0 .66.69 2.47 2.47 0 0 0 1 .44 2.31 2.31 0 0 0 .91-.06 2.58 2.58 0 0 0 .8-.39c.22-.15.44-.31.65-.48L164 91a2 2 0 0 1-.31.2l-.38.19-.33.16a.67.67 0 0 0-.36.52.7.7 0 0 0 0 .29l.38 1h.08a3.83 3.83 0 0 0 1.17-.47 5.43 5.43 0 0 0 1-.79l.94.79.43-.63a.58.58 0 0 0-.09-.77l-.49-.41a3.56 3.56 0 0 0 .41-1.12 3 3 0 0 0 0-1.11 2.73 2.73 0 0 0-.41-1 3 3 0 0 0-.78-.77 2.12 2.12 0 0 0-.59-.32zm-.24 2a.88.88 0 0 1 .34 1.16l-1.27-1.08a1.45 1.45 0 0 1 .45-.19.58.58 0 0 1 .48.14zm-4.57-1.31l1.15 1a1.62 1.62 0 0 1-.47.18.61.61 0 0 1-.51-.12.77.77 0 0 1-.18-.18.64.64 0 0 1-.1-.24 1.18 1.18 0 0 1 0-.32 1.5 1.5 0 0 1 .11-.29z" fill="#fff"/><path d="M145.35 75c-.36-.23-.73-.57-1.16-.8a5.67 5.67 0 0 0-1.41-.55 5.76 5.76 0 0 0-2.22.21 1.8 1.8 0 0 0-1.11 1 3.57 3.57 0 0 0-.54 1.63 7.53 7.53 0 0 0 0 1.43l.22 2.42a32.61 32.61 0 0 1-.33 9.38 16.83 16.83 0 0 1-1.54 4.28 27.09 27.09 0 0 1-2.61 3.87c-1 1.26-2 2.51-3 3.85-.5.68-1 1.38-1.42 2.12s.17 1.67-.06 2.52a15.11 15.11 0 0 0-.56 2.57c-.08.11-.12 2.7-.12 2.7 1 2.18.48 3.66 3 4.4a14.67 14.67 0 0 0 7 .2c.5-.1 1.06-.24 1.63-.41 2.23-.1 6.09-2.86 5.75-4.81-.09-2.09-2.3-4.35-2.32-6.56 0-3.29 3.3-7.37 5.08-10a3.1 3.1 0 0 1 .45-.51 36.76 36.76 0 0 0 .82-3.66c.06-.42.1-.85.13-1.27a18.25 18.25 0 0 0-.35-5.16 33.75 33.75 0 0 0-1.68-4.42s-1.63-3.16-3.65-4.43z" fill="#d6e4ee"/><path d="M150.78 90.59zM150.75 90.75v.26c-.03-.08-.01-.17 0-.26z" fill="#ea205f"/><path d="M145.35 75c-.36-.23-.73-.57-1.16-.8a5.67 5.67 0 0 0-1.41-.55 5.76 5.76 0 0 0-2.22.21 1.8 1.8 0 0 0-1.11 1 3.57 3.57 0 0 0-.54 1.63 7.53 7.53 0 0 0 0 1.43l.22 2.42a32.61 32.61 0 0 1-.33 9.38 16.83 16.83 0 0 1-1.54 4.28 27.09 27.09 0 0 1-2.61 3.87c-1 1.26-2 2.51-3 3.85-.5.68-1 1.38-1.42 2.12a11.28 11.28 0 0 0-1.14 2.31 15 15 0 0 0-.56 2.58c-.08.1-.12 2.69-.12 2.69s.08.19.13.29c0 .06-.47 3-.46 3.11.48 1.06 1.45-2.74 1.52-3.49a11.58 11.58 0 0 1 1.44-4.3c.4-.65.64-1.38 1.06-2s.83-1.3 1.29-1.93c.94-1.26 2-2.5 3-3.8a29.5 29.5 0 0 0 2.83-4.3 19.11 19.11 0 0 0 1.78-4.88 34.86 34.86 0 0 0 .37-10c-.09-1.59-.48-3.52 0-4.09a.66.66 0 0 1 .35-.27 1.38 1.38 0 0 1 .64 0 3.22 3.22 0 0 1 .84.34 5.08 5.08 0 0 1 .84.58 13.32 13.32 0 0 1 4.49 7.59 17.06 17.06 0 0 1-.6 9 33.62 33.62 0 0 1-3.74 9.2c.36-.36 1.35 1.31 1.69.93 1.82-2.39 4.29-9.79 4.36-10.08.17-.63.39-1.6.67-3.12.06-.42.1-.85.13-1.27a18.25 18.25 0 0 0-.35-5.16 33.75 33.75 0 0 0-1.69-4.34s-1.63-3.16-3.65-4.43zM150.78 90.59z" fill="#161542"/><path d="M150.75 90.75v.26c-.03-.08-.01-.17 0-.26z" fill="#161542"/><path d="M142.62 101.42a8.29 8.29 0 0 1 2.77 1.9 10 10 0 0 1 1.94 2.73 7.84 7.84 0 0 1 .84 3.36 4.69 4.69 0 0 1-1.13 3.26 13.35 13.35 0 0 0-.68-3 26 26 0 0 0-1.13-2.63 60.27 60.27 0 0 1-2.61-5.62z" fill="#6592b0"/><path fill="#fff" d="M171.087 62.413l20.723 17.525-29.593 34.995-20.724-17.525z"/><path d="M162.2 115.7a.72.72 0 0 1-.5-.18L141 98a.76.76 0 0 1-.27-.53.72.72 0 0 1 .18-.56l29.6-35a.77.77 0 0 1 1.09-.09l20.7 17.54a.8.8 0 0 1 .27.52.76.76 0 0 1-.18.56l-29.6 35a.78.78 0 0 1-.59.26zm-19.64-18.38l19.55 16.52L190.71 80l-19.54-16.49z" fill="#6592b0"/><path d="M162 111.37l-17.06-14.44 26.24-31 17.08 14.45zm-13.78-14.71l13.52 11.43L185 80.63 171.46 69.2z" fill="#b1d1e8"/><circle cx="166.75" cy="88.77" r="7.12" fill="#b1d1e8"/><path d="M169.8 87.26a1.76 1.76 0 0 0-.58-.14 2.24 2.24 0 0 0-.58 0 4.5 4.5 0 0 0-.55.19 4.41 4.41 0 0 0-.52.28 4 4 0 0 0-.44.27l-1.31-1.35.2-.12.3-.14.25-.14a.55.55 0 0 0 .32-.43.82.82 0 0 0 0-.33l-.23-.83h-.08a4 4 0 0 0-.94.23 3.16 3.16 0 0 0-.95.54l-.82-.84-.49.59a.5.5 0 0 0-.14.41.5.5 0 0 0 .16.36l.39.41a3.62 3.62 0 0 0-.54 1 3 3 0 0 0-.14 1.08 2.58 2.58 0 0 0 .26 1 2.62 2.62 0 0 0 1.56 1.29 2.33 2.33 0 0 0 .91 0 2.94 2.94 0 0 0 .84-.31q.35-.19.69-.42l1.4 1.44a1.73 1.73 0 0 1-.33.17l-.4.15-.34.13a.65.65 0 0 0-.41.48.76.76 0 0 0 0 .3l.28 1h.09a4.19 4.19 0 0 0 1.2-.36 5.19 5.19 0 0 0 1.08-.69l.85.88.5-.59a.57.57 0 0 0 .14-.41.6.6 0 0 0-.16-.36l-.45-.46a3.76 3.76 0 0 0 .52-1.07 3 3 0 0 0 .11-1.11 2.78 2.78 0 0 0-.32-1 2.93 2.93 0 0 0-.7-.84 2 2 0 0 0-.63-.26zm-.43 2a.88.88 0 0 1 .22 1.18l-1.16-1.19a1.51 1.51 0 0 1 .47-.15.6.6 0 0 1 .47.16zm-4.43-1.75l1.06 1.08a1.66 1.66 0 0 1-.49.14.65.65 0 0 1-.5-.17.78.78 0 0 1-.16-.2.61.61 0 0 1-.07-.25.91.91 0 0 1 0-.31 2.24 2.24 0 0 1 .16-.29z" fill="#6592b0"/><path d="M145.35 75c-.36-.23-.73-.57-1.16-.8a5.67 5.67 0 0 0-1.41-.55 5.76 5.76 0 0 0-2.22.21 1.8 1.8 0 0 0-1.11 1 3.57 3.57 0 0 0-.54 1.63 7.53 7.53 0 0 0 0 1.43l.22 2.42a32.61 32.61 0 0 1-.33 9.38 16.83 16.83 0 0 1-1.54 4.28 27.09 27.09 0 0 1-2.61 3.87c-1 1.26-2 2.51-3 3.85-.5.68-1 1.38-1.42 2.12s.17 1.67-.06 2.52a15.11 15.11 0 0 0-.56 2.57c-.08.11-.12 2.7-.12 2.7 1 2.18.48 3.66 3 4.4a14.67 14.67 0 0 0 7 .2c.5-.1 1.06-.24 1.63-.41 2.23-.1 6.09-2.86 5.75-4.81-.09-2.09-2.3-4.35-2.32-6.56 0-3.29 3.3-7.37 5.08-10a3.1 3.1 0 0 1 .45-.51 36.76 36.76 0 0 0 .82-3.66c.06-.42.1-.85.13-1.27a18.25 18.25 0 0 0-.35-5.16 33.75 33.75 0 0 0-1.68-4.42s-1.63-3.16-3.65-4.43zM150.78 90.59z" fill="#fff"/><path d="M150.75 90.75v.26c-.03-.08-.01-.17 0-.26z" fill="#fff"/><path d="M145.35 75c-.36-.23-.73-.57-1.16-.8a5.67 5.67 0 0 0-1.41-.55 5.76 5.76 0 0 0-2.22.21 1.8 1.8 0 0 0-1.11 1 3.57 3.57 0 0 0-.54 1.63 7.53 7.53 0 0 0 0 1.43l.22 2.42a32.61 32.61 0 0 1-.33 9.38 16.83 16.83 0 0 1-1.54 4.28 27.09 27.09 0 0 1-2.61 3.87c-1 1.26-2 2.51-3 3.85-.5.68-1 1.38-1.42 2.12a11.28 11.28 0 0 0-1.14 2.31 15 15 0 0 0-.56 2.58c-.08.1-.12 2.69-.12 2.69s.08.19.13.29c0 .06-.47 3-.46 3.11.48 1.06 1.45-2.74 1.52-3.49a11.58 11.58 0 0 1 1.44-4.3c.4-.65.64-1.38 1.06-2s.83-1.3 1.29-1.93c.94-1.26 2-2.5 3-3.8a29.5 29.5 0 0 0 2.83-4.3 19.11 19.11 0 0 0 1.78-4.88 34.86 34.86 0 0 0 .37-10c-.09-1.59-.48-3.52 0-4.09a.66.66 0 0 1 .35-.27 1.38 1.38 0 0 1 .64 0 3.22 3.22 0 0 1 .84.34 5.08 5.08 0 0 1 .84.58 13.32 13.32 0 0 1 4.49 7.59 17.06 17.06 0 0 1-.6 9 33.62 33.62 0 0 1-3.74 9.2c.16.92.38 2.33.49 2.65.19.59 1-1.46 1.2-1.72 1.82-2.39 4.29-9.79 4.36-10.08.17-.63.39-1.6.67-3.12.06-.42.1-.85.13-1.27a18.25 18.25 0 0 0-.35-5.16 33.75 33.75 0 0 0-1.69-4.34s-1.63-3.16-3.65-4.43z" fill="#6592b0"/><path d="M150.78 90.59zM150.75 90.75v.26c-.03-.08-.01-.17 0-.26z" fill="#161542"/><path fill="#6592b0" d="M47.666 127.476L89.65 67.538l1.703 1.193L49.37 128.67zM67.716 144.35l38.466-62.772 1.705 1.045-38.466 62.772zM5.076 96.83l18.28-21.118 1.572 1.362L6.648 98.19zM19.062 118.478l19.068-26.38 1.62 1.172-19.067 26.38zM101.72 54.32a8.19 8.19 0 0 1 2.9 1.67 10 10 0 0 1 2.15 2.57 7.8 7.8 0 0 1 1.11 3.29 4.74 4.74 0 0 1-.88 3.34 13.39 13.39 0 0 0-.91-2.92 24.48 24.48 0 0 0-1.33-2.53 61.76 61.76 0 0 1-3.04-5.42z"/></svg>