<svg id="Layer_1" data-name="Layer 1" xmlns="http://www.w3.org/2000/svg" viewBox="0 0 200 150"><defs><style>.cls-1{fill:#b1d1e8}.cls-2,.cls-6{fill:#6691af}.cls-3,.cls-7{fill:#fff}.cls-3,.cls-4,.cls-5,.cls-6{stroke:#6691af;stroke-linecap:round;stroke-linejoin:round;stroke-width:1.5px}.cls-4,.cls-8{fill:#f0f3f3}.cls-5{fill:none}</style></defs><circle class="cls-1" cx="99.81" cy="74.69" r="58.28"/><path class="cls-2" d="M51.1 116.41a26.88 26.88 0 0 0 4.3 5.1 46.74 46.74 0 0 0 5.29 4.29 67.82 67.82 0 0 0 12 6.65 70 70 0 0 0 26.62 5.8 60.48 60.48 0 0 0 26.52-5.6c1-.45 2-1 3.06-1.53.5-.26 1-.53 1.49-.79l1.46-.89q2.89-1.84 5.63-3.93a58.56 58.56 0 0 0 9.9-9.35c2.84-3.48 5.14-7.5 5.63-11.79a9.59 9.59 0 0 0-.08-3.05 2.28 2.28 0 0 0-.49-1 1.48 1.48 0 0 0-.87-.41 6.94 6.94 0 0 0-2.89.43 26.57 26.57 0 0 0-3.09 1.24c-8.22 4-16 9.34-25.09 12.37a29.89 29.89 0 0 1-7.06 1.5 17.74 17.74 0 0 1-3.71-.09c-.61-.08-1.19-.21-1.79-.31s-1.19-.28-1.78-.46a15 15 0 0 1-6.4-3.74 13.59 13.59 0 0 1-3.5-6.57c-1.07-4.86-.32-9.73.93-14.27a50.75 50.75 0 0 1 5.73-12.84.25.25 0 0 1 .35-.08.25.25 0 0 1 .1.3A131.38 131.38 0 0 0 99 90.52c-1.1 4.39-1.81 9-.81 13.28a11.58 11.58 0 0 0 3 5.58 13.06 13.06 0 0 0 5.53 3.17c.53.16 1.07.27 1.6.41s1.1.2 1.64.28a16 16 0 0 0 3.25.05 27.83 27.83 0 0 0 6.54-1.42 80.94 80.94 0 0 0 12.47-5.74c4.07-2.2 8-4.6 12.33-6.66a29.47 29.47 0 0 1 3.36-1.36 9.08 9.08 0 0 1 4-.53 3.81 3.81 0 0 1 2.2 1.09 4.41 4.41 0 0 1 1.09 2.06 11.73 11.73 0 0 1 .17 3.89c-.57 5-3.13 9.39-6.13 13.06a59.86 59.86 0 0 1-10.32 9.75q-2.82 2.15-5.8 4l-1.52.93c-.54.31-1.06.56-1.58.84-1.05.55-2.09 1.12-3.18 1.58a62.65 62.65 0 0 1-27.57 5.82 71.72 71.72 0 0 1-27.49-6.14 69.11 69.11 0 0 1-12.31-6.95 48.29 48.29 0 0 1-5.54-4.51 28.07 28.07 0 0 1-4.61-5.57 1 1 0 0 1 1.77-1.08z"/><path class="cls-3" d="M83.32 82L59.63 97.06a6.05 6.05 0 0 0-2.91 5.24l-.09 38.08 23.45-19.8 4.1-12-.1-24.73a2.56 2.56 0 0 0-2.14-2.65L46 75.81a2.15 2.15 0 0 0-1.32.21L18.4 89.14a5.06 5.06 0 0 0-2.83 4.69l.32 27.25 1 8.43 39.72 10.87"/><path class="cls-4" d="M84 90.38l-3 1.77v-3.33a.77.77 0 0 0-1.19-.65l-19.18 12.15a2.64 2.64 0 0 0-1.19 2.2v4.92l-2.74 1.94L15.64 100l.25 21.13 40.76 11 10.8-8.71a6.82 6.82 0 0 0 1.48-1.69l3.73-6a6.1 6.1 0 0 1 1.47-1.73l10.05-7.88z"/><path class="cls-5" d="M83.32 82L59.63 97.06a6.05 6.05 0 0 0-2.91 5.24l-.09 38.08 23.45-19.8 4.1-12-.1-24.73a2.56 2.56 0 0 0-2.14-2.65L46 75.81a2.15 2.15 0 0 0-1.32.21L18.4 89.14a5.06 5.06 0 0 0-2.83 4.69l.32 27.25 1 8.43 39.72 10.87"/><path class="cls-6" d="M49.4 133.9l-6.34-1.84v-3.66l6.34 1.83v3.67zM56.24 92.69l-25.31-5.08 5.25-2.35 24.45 4.9-4.39 2.53z"/><path class="cls-3" d="M107.16 77.28s1 24.46 7.5 22.41-7.5-22.41-7.5-22.41zM100.46 72.64s-15.41 9.47-11.74 12.93 11.74-12.93 11.74-12.93zM110.23 73.76s11.46 14 14.39 9.89-14.39-9.89-14.39-9.89z"/><path class="cls-3" d="M56.73 91s9.59-27.74 25.45-31.39c13.47-3.09 13.06 10.49 25.89 10 16.37-.58 37-27.8 40.86-55L96.77 9.73s-.43 44-13.67 54.21c-5.61 4.33-19.56-13.57-29.65-11.42-20.14 4.29-17.09 34.56-17.09 34.56"/><path class="cls-3" d="M55.38 52.34L88.3 59.4S78 56.79 67.3 71"/><path class="cls-4" d="M104.65 69.41l-24.51-4.87a17.82 17.82 0 0 1-4.42-1.79s5.8-4.44 12.21-3.43 7.76 8.85 16.72 10.09z"/><path class="cls-2" d="M102.11 34.57s15.92 3.92 28.28 5.11M102.29 33.84l7 1.39c2.34.46 4.69.92 7 1.35s4.7.85 7.05 1.26 4.71.76 7.06 1.09a.75.75 0 0 1 .64.85.74.74 0 0 1-.79.64q-3.61-.22-7.2-.72c-2.39-.32-4.76-.73-7.13-1.15s-4.72-.94-7.07-1.47-4.67-1.12-7-1.79a.75.75 0 0 1 .35-1.45zM102.67 39.23a154.65 154.65 0 0 0 23.64 4.34"/><path class="cls-2" d="M102.87 38.51l5.86 1.18c2 .38 3.91.79 5.87 1.12s3.92.71 5.88 1 3.94.63 5.9 1a.76.76 0 0 1 .61.87.75.75 0 0 1-.77.62c-2-.07-4-.24-6-.48s-4-.57-6-.92-4-.79-5.91-1.28-3.9-1-5.83-1.68a.75.75 0 0 1 .39-1.45zM96.87 45.86l1.75.36M97 45.12a3.32 3.32 0 0 1 1.75.36.8.8 0 0 1 .26 1.1.77.77 0 0 1-.57.37 2.93 2.93 0 0 1-.89-.06 3 3 0 0 1-.85-.3.8.8 0 0 1-.28-1.09.82.82 0 0 1 .58-.38z"/><path class="cls-7" d="M102.67 47s6.77 1.72 12.7 2.66"/><path class="cls-2" d="M102.86 46.29c4.21.88 8.42 1.81 12.62 2.65a.75.75 0 0 1-.23 1.48c-2.17-.25-4.31-.65-6.44-1.09s-4.23-.95-6.32-1.58a.76.76 0 0 1-.51-.94.77.77 0 0 1 .88-.52zM95.58 49.99l1.75.36M95.74 49.25a3 3 0 0 1 .9 0 2.67 2.67 0 0 1 .84.31.82.82 0 0 1 .23 1.12.85.85 0 0 1-.53.35 2.25 2.25 0 0 1-.9 0 3 3 0 0 1-.85-.31.8.8 0 0 1-.27-1.09.82.82 0 0 1 .58-.38z"/><path class="cls-7" d="M101.38 51.15s11.14 2.64 16.92 3.55"/><path class="cls-2" d="M101.56 50.42c2.82.55 5.63 1.18 8.44 1.77l4.21.92 4.21.85a.75.75 0 0 1-.24 1.48c-2.9-.35-5.72-1-8.56-1.53s-5.63-1.26-8.42-2a.74.74 0 0 1-.52-.92.76.76 0 0 1 .88-.57zM93.94 54.34l1.75.36M94.1 53.6a2.7 2.7 0 0 1 .9 0 2.1 2.1 0 0 1 .84.34.82.82 0 0 1 .16 1.19.78.78 0 0 1-.46.3 2.14 2.14 0 0 1-.91 0 2.75 2.75 0 0 1-.84-.34.8.8 0 0 1-.21-1.09.78.78 0 0 1 .52-.4z"/><path class="cls-7" d="M99.74 55.5s3.19.71 6.71 1.43"/><path class="cls-2" d="M99.91 54.77c1.13.14 2.25.36 3.37.6s2.22.51 3.32.82a.75.75 0 0 1-.31 1.47c-1.14-.16-2.26-.37-3.38-.6s-2.24-.48-3.34-.82a.75.75 0 0 1 .31-1.47zM92.04 58.1l1.75.37M92.19 57.37a3.07 3.07 0 0 1 .91 0 1.83 1.83 0 0 1 .84.33.84.84 0 0 1 .15 1.17.79.79 0 0 1-.45.3 1.86 1.86 0 0 1-.91 0 3 3 0 0 1-.84-.33.79.79 0 0 1-.27-1.09.77.77 0 0 1 .57-.38z"/><path class="cls-7" d="M97.84 59.27a76.55 76.55 0 0 0 7.79 1.54"/><path class="cls-2" d="M98 58.55l3.86.73 1.93.34a9.29 9.29 0 0 1 1.91.45.76.76 0 0 1 .44 1 .79.79 0 0 1-.66.49 7.53 7.53 0 0 1-2-.17c-.66-.12-1.31-.24-2-.38-1.31-.28-2.6-.61-3.89-1a.75.75 0 0 1 .41-1.47z"/><path class="cls-7" d="M144.32 96.29L141.73 92l-4.24-2L122 63l2.62.76 3 2.61s2.24-6.63 4.09-7.86c.76-.5 1.74-.34 1.61-2-.16-2-17.89-.31-16-1.32.82-.44 14.48-10.92 15.86-11.58 3.86-1.85 15.45 11.63 18.05 12.16C156 56.71 157 80.5 157 80.5l1.27 13.43-12.63 4.3z"/><path class="cls-8" d="M143 93.41a25.35 25.35 0 0 0 13.43-19l3.14 25.21-14.44-.62zM120.48 53.36l19.46-5.77 5.31 6.38-25.55 2.96.78-3.57z"/><path class="cls-5" d="M158.08 91.46L155 60.78a8.4 8.4 0 0 0-4.81-6.31c-4.1-2.06-9.38-7.56-15.12-10.71a2.59 2.59 0 0 0-2.88.24 96.33 96.33 0 0 1-15.08 10.7c-5.58 3.18-.06 4.41 4 3.54s5.79-1.62 12.14-4.73"/><path class="cls-8" d="M133.23 57.58s-7.25 7-5 9.21a4.75 4.75 0 0 0 4.83 1.21s6.36.83 5.71-9.71-5.54-.71-5.54-.71z"/><path class="cls-2" d="M132.17 65.37a18.89 18.89 0 0 0 4.37-4.56 12 12 0 0 0 1.35-2.76l.22-.73c0-.25.09-.5.16-.74a5.94 5.94 0 0 1 .62-1.52.26.26 0 0 1 .36-.07.28.28 0 0 1 .09.1 4.3 4.3 0 0 1-.05 3.48 11.1 11.1 0 0 1-1.63 3.08 13.81 13.81 0 0 1-5.25 4.27.29.29 0 0 1-.38-.15.31.31 0 0 1 .09-.35z"/><path class="cls-2" d="M132.16 50.8a16.3 16.3 0 0 0 1.31 1.78 14.34 14.34 0 0 0 1.53 1.58 19.76 19.76 0 0 0 1.77 1.36c.31.21.64.4.94.62s.66.38 1 .59a.75.75 0 0 1-.71 1.32 13.75 13.75 0 0 1-2.17-1.17 12.71 12.71 0 0 1-2-1.56 10.35 10.35 0 0 1-1.58-2 5 5 0 0 1-.73-2.47.29.29 0 0 1 .29-.28.28.28 0 0 1 .24.13z"/><path class="cls-5" d="M127.89 65.93s-.72-5.69 7.39-9.44"/><path class="cls-3" d="M111.77 56.79l1.08 5.29 29.43-6.43-1.12-5.97-29.39 7.11z"/><path class="cls-3" d="M153.69 45.99l1.68 7.82-13.26 2.67-1.93-7.66 13.51-2.83zM104.65 60.86l8.2 1.22-1.08-5.29-7.12 4.07zM145.15 97.74L141.92 92s-4.73.34-15.25-12.85c-7.46-9.36-10.09-10.48-10.09-10.48s-2.92-.55.19-6 1-5.71 3.74-5.61 3.09 3.88 2.16 5.81"/><path class="cls-2" d="M134.31 68.26a13 13 0 0 1-3.74-.08 10.1 10.1 0 0 1-3.63-1.3 6.34 6.34 0 0 1-.81-.58 4.9 4.9 0 0 1-.73-.71l-.57-.65a3.93 3.93 0 0 0-.57-.5 7.69 7.69 0 0 0-3-1h-.08a.57.57 0 0 1 0-1.12 4.13 4.13 0 0 1 2 .07 6 6 0 0 1 1.88.85 6.4 6.4 0 0 1 .8.68c.25.26.47.55.62.72a4.94 4.94 0 0 0 .55.57 4.39 4.39 0 0 0 .63.51 9.37 9.37 0 0 0 3.07 1.41 18.2 18.2 0 0 0 3.46.64.27.27 0 0 1 .25.3.27.27 0 0 1-.13.19z"/><path class="cls-6" d="M147.86 142.63c-.3-28.85-6.61-44.44-6.61-44.44s13.91-13.57 22.75-8.51c0 0 9.52 17.48 12.49 43.06 0 0-3.83 3.32-6.32 2.89s-3.16-2.57-6.58-.33-5.48 7-9.34 7.91a9.25 9.25 0 0 1-6.39-.58z"/><path class="cls-2" d="M110.1 58.54l.45 2.69-4.1-.61 3.65-2.08z"/><path class="cls-6" d="M109.67 23.55a15.74 15.74 0 0 1-.92 2.92S118.94 28 128 28.81a6.78 6.78 0 0 0 2.72-3.15s-8.82-1.02-21.05-2.11z"/><path class="cls-6" d="M126.21 25.88c0 3.54-3.52 5.83-7.06 5.83s-6-3.54-6-7.08 3.18-5.48 6.72-5.48a6.6 6.6 0 0 1 6.34 6.73z"/></svg>